ISO-10303-21;
HEADER;
/* Generated by software containing ST-Developer
 * from STEP Tools, Inc. (www.steptools.com) 
 */

FILE_DESCRIPTION(
/* description */ (''),
/* implementation_level */ '2;1');

FILE_NAME(
/* name */ 
'C:/Users/Caleb/Desktop/KAN0741-0601M1 5 way tactile switch.step',
/* time_stamp */ '2020-04-18T12:09:32-10:00',
/* author */ (''),
/* organization */ (''),
/* preprocessor_version */ 'ST-DEVELOPER v18.1',
/* originating_system */ 'Autodesk Translation Framework v9.2.0.1227',
/* authorisation */ '');

FILE_SCHEMA (('AUTOMOTIVE_DESIGN { 1 0 10303 214 3 1 1 }'));
ENDSEC;

DATA;
#10=MECHANICAL_DESIGN_GEOMETRIC_PRESENTATION_REPRESENTATION('',(#1064,#1065,
#1066,#1067,#1068,#1069,#1070,#1071,#1072,#1073,#1074,#1075,#1076,#1077,
#1078,#1079,#1080,#1081,#1082,#1083,#1084),#1920);
#11=SHAPE_REPRESENTATION_RELATIONSHIP('SRR','None',#1927,#12);
#12=ADVANCED_BREP_SHAPE_REPRESENTATION('',(#13,#14,#15,#16,#17,#18,#19,
#20),#1919);
#13=MANIFOLD_SOLID_BREP('Main Body',#1154);
#14=MANIFOLD_SOLID_BREP('SMD Block 1',#1155);
#15=MANIFOLD_SOLID_BREP('Actuator Body',#1156);
#16=MANIFOLD_SOLID_BREP('SMD Block 4',#1157);
#17=MANIFOLD_SOLID_BREP('SMD Block 6',#1158);
#18=MANIFOLD_SOLID_BREP('SMD Block 5',#1159);
#19=MANIFOLD_SOLID_BREP('SMD Block 2',#1160);
#20=MANIFOLD_SOLID_BREP('SMD Block 3',#1161);
#21=CONICAL_SURFACE('',#1214,1.775,0.785398163397448);
#22=FACE_BOUND('',#165,.T.);
#23=FACE_BOUND('',#176,.T.);
#24=PLANE('',#1178);
#25=PLANE('',#1186);
#26=PLANE('',#1191);
#27=PLANE('',#1196);
#28=PLANE('',#1201);
#29=PLANE('',#1204);
#30=PLANE('',#1205);
#31=PLANE('',#1206);
#32=PLANE('',#1207);
#33=PLANE('',#1208);
#34=PLANE('',#1212);
#35=PLANE('',#1215);
#36=PLANE('',#1216);
#37=PLANE('',#1217);
#38=PLANE('',#1218);
#39=PLANE('',#1219);
#40=PLANE('',#1220);
#41=PLANE('',#1221);
#42=PLANE('',#1227);
#43=PLANE('',#1232);
#44=PLANE('',#1233);
#45=PLANE('',#1238);
#46=PLANE('',#1240);
#47=PLANE('',#1242);
#48=PLANE('',#1243);
#49=PLANE('',#1244);
#50=PLANE('',#1245);
#51=PLANE('',#1246);
#52=PLANE('',#1247);
#53=PLANE('',#1248);
#54=PLANE('',#1249);
#55=PLANE('',#1250);
#56=PLANE('',#1251);
#57=PLANE('',#1252);
#58=PLANE('',#1253);
#59=PLANE('',#1254);
#60=PLANE('',#1255);
#61=PLANE('',#1256);
#62=PLANE('',#1257);
#63=PLANE('',#1258);
#64=PLANE('',#1259);
#65=PLANE('',#1260);
#66=PLANE('',#1261);
#67=PLANE('',#1262);
#68=PLANE('',#1263);
#69=PLANE('',#1264);
#70=PLANE('',#1265);
#71=PLANE('',#1266);
#72=PLANE('',#1267);
#73=PLANE('',#1268);
#74=PLANE('',#1269);
#75=PLANE('',#1270);
#76=PLANE('',#1271);
#77=PLANE('',#1272);
#78=FACE_OUTER_BOUND('',#147,.T.);
#79=FACE_OUTER_BOUND('',#148,.T.);
#80=FACE_OUTER_BOUND('',#149,.T.);
#81=FACE_OUTER_BOUND('',#150,.T.);
#82=FACE_OUTER_BOUND('',#151,.T.);
#83=FACE_OUTER_BOUND('',#152,.T.);
#84=FACE_OUTER_BOUND('',#153,.T.);
#85=FACE_OUTER_BOUND('',#154,.T.);
#86=FACE_OUTER_BOUND('',#155,.T.);
#87=FACE_OUTER_BOUND('',#156,.T.);
#88=FACE_OUTER_BOUND('',#157,.T.);
#89=FACE_OUTER_BOUND('',#158,.T.);
#90=FACE_OUTER_BOUND('',#159,.T.);
#91=FACE_OUTER_BOUND('',#160,.T.);
#92=FACE_OUTER_BOUND('',#161,.T.);
#93=FACE_OUTER_BOUND('',#162,.T.);
#94=FACE_OUTER_BOUND('',#163,.T.);
#95=FACE_OUTER_BOUND('',#164,.T.);
#96=FACE_OUTER_BOUND('',#166,.T.);
#97=FACE_OUTER_BOUND('',#167,.T.);
#98=FACE_OUTER_BOUND('',#168,.T.);
#99=FACE_OUTER_BOUND('',#169,.T.);
#100=FACE_OUTER_BOUND('',#170,.T.);
#101=FACE_OUTER_BOUND('',#171,.T.);
#102=FACE_OUTER_BOUND('',#172,.T.);
#103=FACE_OUTER_BOUND('',#173,.T.);
#104=FACE_OUTER_BOUND('',#174,.T.);
#105=FACE_OUTER_BOUND('',#175,.T.);
#106=FACE_OUTER_BOUND('',#177,.T.);
#107=FACE_OUTER_BOUND('',#178,.T.);
#108=FACE_OUTER_BOUND('',#179,.T.);
#109=FACE_OUTER_BOUND('',#180,.T.);
#110=FACE_OUTER_BOUND('',#181,.T.);
#111=FACE_OUTER_BOUND('',#182,.T.);
#112=FACE_OUTER_BOUND('',#183,.T.);
#113=FACE_OUTER_BOUND('',#184,.T.);
#114=FACE_OUTER_BOUND('',#185,.T.);
#115=FACE_OUTER_BOUND('',#186,.T.);
#116=FACE_OUTER_BOUND('',#187,.T.);
#117=FACE_OUTER_BOUND('',#188,.T.);
#118=FACE_OUTER_BOUND('',#189,.T.);
#119=FACE_OUTER_BOUND('',#190,.T.);
#120=FACE_OUTER_BOUND('',#191,.T.);
#121=FACE_OUTER_BOUND('',#192,.T.);
#122=FACE_OUTER_BOUND('',#193,.T.);
#123=FACE_OUTER_BOUND('',#194,.T.);
#124=FACE_OUTER_BOUND('',#195,.T.);
#125=FACE_OUTER_BOUND('',#196,.T.);
#126=FACE_OUTER_BOUND('',#197,.T.);
#127=FACE_OUTER_BOUND('',#198,.T.);
#128=FACE_OUTER_BOUND('',#199,.T.);
#129=FACE_OUTER_BOUND('',#200,.T.);
#130=FACE_OUTER_BOUND('',#201,.T.);
#131=FACE_OUTER_BOUND('',#202,.T.);
#132=FACE_OUTER_BOUND('',#203,.T.);
#133=FACE_OUTER_BOUND('',#204,.T.);
#134=FACE_OUTER_BOUND('',#205,.T.);
#135=FACE_OUTER_BOUND('',#206,.T.);
#136=FACE_OUTER_BOUND('',#207,.T.);
#137=FACE_OUTER_BOUND('',#208,.T.);
#138=FACE_OUTER_BOUND('',#209,.T.);
#139=FACE_OUTER_BOUND('',#210,.T.);
#140=FACE_OUTER_BOUND('',#211,.T.);
#141=FACE_OUTER_BOUND('',#212,.T.);
#142=FACE_OUTER_BOUND('',#213,.T.);
#143=FACE_OUTER_BOUND('',#214,.T.);
#144=FACE_OUTER_BOUND('',#215,.T.);
#145=FACE_OUTER_BOUND('',#216,.T.);
#146=FACE_OUTER_BOUND('',#217,.T.);
#147=EDGE_LOOP('',(#746,#747,#748,#749));
#148=EDGE_LOOP('',(#750,#751,#752,#753,#754,#755,#756,#757,#758,#759,#760,
#761,#762,#763,#764,#765));
#149=EDGE_LOOP('',(#766,#767,#768,#769));
#150=EDGE_LOOP('',(#770,#771,#772,#773));
#151=EDGE_LOOP('',(#774,#775,#776,#777));
#152=EDGE_LOOP('',(#778,#779,#780,#781));
#153=EDGE_LOOP('',(#782,#783,#784,#785));
#154=EDGE_LOOP('',(#786,#787,#788,#789));
#155=EDGE_LOOP('',(#790,#791,#792,#793));
#156=EDGE_LOOP('',(#794,#795,#796,#797));
#157=EDGE_LOOP('',(#798,#799,#800,#801));
#158=EDGE_LOOP('',(#802,#803,#804,#805));
#159=EDGE_LOOP('',(#806,#807,#808,#809));
#160=EDGE_LOOP('',(#810,#811,#812,#813));
#161=EDGE_LOOP('',(#814,#815,#816,#817));
#162=EDGE_LOOP('',(#818,#819,#820,#821));
#163=EDGE_LOOP('',(#822,#823,#824,#825));
#164=EDGE_LOOP('',(#826,#827,#828,#829,#830,#831,#832,#833,#834,#835,#836,
#837,#838,#839,#840,#841));
#165=EDGE_LOOP('',(#842));
#166=EDGE_LOOP('',(#843,#844,#845,#846));
#167=EDGE_LOOP('',(#847));
#168=EDGE_LOOP('',(#848,#849,#850,#851));
#169=EDGE_LOOP('',(#852,#853,#854,#855));
#170=EDGE_LOOP('',(#856,#857,#858,#859));
#171=EDGE_LOOP('',(#860,#861,#862,#863));
#172=EDGE_LOOP('',(#864,#865,#866,#867));
#173=EDGE_LOOP('',(#868,#869,#870,#871));
#174=EDGE_LOOP('',(#872,#873,#874,#875));
#175=EDGE_LOOP('',(#876));
#176=EDGE_LOOP('',(#877,#878,#879,#880,#881,#882,#883,#884));
#177=EDGE_LOOP('',(#885));
#178=EDGE_LOOP('',(#886,#887,#888,#889));
#179=EDGE_LOOP('',(#890,#891,#892,#893));
#180=EDGE_LOOP('',(#894,#895,#896,#897));
#181=EDGE_LOOP('',(#898,#899,#900,#901,#902,#903,#904,#905));
#182=EDGE_LOOP('',(#906,#907,#908,#909));
#183=EDGE_LOOP('',(#910,#911,#912,#913));
#184=EDGE_LOOP('',(#914,#915,#916,#917));
#185=EDGE_LOOP('',(#918,#919,#920,#921));
#186=EDGE_LOOP('',(#922,#923,#924,#925));
#187=EDGE_LOOP('',(#926,#927,#928,#929));
#188=EDGE_LOOP('',(#930,#931,#932,#933));
#189=EDGE_LOOP('',(#934,#935,#936,#937));
#190=EDGE_LOOP('',(#938,#939,#940,#941));
#191=EDGE_LOOP('',(#942,#943,#944,#945));
#192=EDGE_LOOP('',(#946,#947,#948,#949));
#193=EDGE_LOOP('',(#950,#951,#952,#953));
#194=EDGE_LOOP('',(#954,#955,#956,#957));
#195=EDGE_LOOP('',(#958,#959,#960,#961));
#196=EDGE_LOOP('',(#962,#963,#964,#965));
#197=EDGE_LOOP('',(#966,#967,#968,#969));
#198=EDGE_LOOP('',(#970,#971,#972,#973));
#199=EDGE_LOOP('',(#974,#975,#976,#977));
#200=EDGE_LOOP('',(#978,#979,#980,#981));
#201=EDGE_LOOP('',(#982,#983,#984,#985));
#202=EDGE_LOOP('',(#986,#987,#988,#989));
#203=EDGE_LOOP('',(#990,#991,#992,#993));
#204=EDGE_LOOP('',(#994,#995,#996,#997));
#205=EDGE_LOOP('',(#998,#999,#1000,#1001));
#206=EDGE_LOOP('',(#1002,#1003,#1004,#1005));
#207=EDGE_LOOP('',(#1006,#1007,#1008,#1009));
#208=EDGE_LOOP('',(#1010,#1011,#1012,#1013));
#209=EDGE_LOOP('',(#1014,#1015,#1016,#1017));
#210=EDGE_LOOP('',(#1018,#1019,#1020,#1021));
#211=EDGE_LOOP('',(#1022,#1023,#1024,#1025));
#212=EDGE_LOOP('',(#1026,#1027,#1028,#1029));
#213=EDGE_LOOP('',(#1030,#1031,#1032,#1033));
#214=EDGE_LOOP('',(#1034,#1035,#1036,#1037));
#215=EDGE_LOOP('',(#1038,#1039,#1040,#1041));
#216=EDGE_LOOP('',(#1042,#1043,#1044,#1045));
#217=EDGE_LOOP('',(#1046,#1047,#1048,#1049));
#218=LINE('',#1600,#341);
#219=LINE('',#1603,#342);
#220=LINE('',#1606,#343);
#221=LINE('',#1610,#344);
#222=LINE('',#1614,#345);
#223=LINE('',#1618,#346);
#224=LINE('',#1622,#347);
#225=LINE('',#1626,#348);
#226=LINE('',#1630,#349);
#227=LINE('',#1633,#350);
#228=LINE('',#1636,#351);
#229=LINE('',#1637,#352);
#230=LINE('',#1641,#353);
#231=LINE('',#1646,#354);
#232=LINE('',#1647,#355);
#233=LINE('',#1650,#356);
#234=LINE('',#1651,#357);
#235=LINE('',#1655,#358);
#236=LINE('',#1660,#359);
#237=LINE('',#1661,#360);
#238=LINE('',#1664,#361);
#239=LINE('',#1665,#362);
#240=LINE('',#1669,#363);
#241=LINE('',#1674,#364);
#242=LINE('',#1675,#365);
#243=LINE('',#1678,#366);
#244=LINE('',#1679,#367);
#245=LINE('',#1683,#368);
#246=LINE('',#1685,#369);
#247=LINE('',#1687,#370);
#248=LINE('',#1689,#371);
#249=LINE('',#1691,#372);
#250=LINE('',#1698,#373);
#251=LINE('',#1703,#374);
#252=LINE('',#1707,#375);
#253=LINE('',#1709,#376);
#254=LINE('',#1711,#377);
#255=LINE('',#1712,#378);
#256=LINE('',#1715,#379);
#257=LINE('',#1717,#380);
#258=LINE('',#1718,#381);
#259=LINE('',#1721,#382);
#260=LINE('',#1722,#383);
#261=LINE('',#1725,#384);
#262=LINE('',#1726,#385);
#263=LINE('',#1728,#386);
#264=LINE('',#1737,#387);
#265=LINE('',#1741,#388);
#266=LINE('',#1745,#389);
#267=LINE('',#1748,#390);
#268=LINE('',#1753,#391);
#269=LINE('',#1758,#392);
#270=LINE('',#1759,#393);
#271=LINE('',#1762,#394);
#272=LINE('',#1763,#395);
#273=LINE('',#1766,#396);
#274=LINE('',#1770,#397);
#275=LINE('',#1774,#398);
#276=LINE('',#1777,#399);
#277=LINE('',#1779,#400);
#278=LINE('',#1781,#401);
#279=LINE('',#1783,#402);
#280=LINE('',#1785,#403);
#281=LINE('',#1790,#404);
#282=LINE('',#1792,#405);
#283=LINE('',#1794,#406);
#284=LINE('',#1795,#407);
#285=LINE('',#1798,#408);
#286=LINE('',#1800,#409);
#287=LINE('',#1801,#410);
#288=LINE('',#1804,#411);
#289=LINE('',#1805,#412);
#290=LINE('',#1808,#413);
#291=LINE('',#1809,#414);
#292=LINE('',#1811,#415);
#293=LINE('',#1816,#416);
#294=LINE('',#1818,#417);
#295=LINE('',#1820,#418);
#296=LINE('',#1821,#419);
#297=LINE('',#1824,#420);
#298=LINE('',#1826,#421);
#299=LINE('',#1827,#422);
#300=LINE('',#1830,#423);
#301=LINE('',#1831,#424);
#302=LINE('',#1834,#425);
#303=LINE('',#1835,#426);
#304=LINE('',#1837,#427);
#305=LINE('',#1842,#428);
#306=LINE('',#1844,#429);
#307=LINE('',#1846,#430);
#308=LINE('',#1847,#431);
#309=LINE('',#1850,#432);
#310=LINE('',#1852,#433);
#311=LINE('',#1853,#434);
#312=LINE('',#1856,#435);
#313=LINE('',#1857,#436);
#314=LINE('',#1860,#437);
#315=LINE('',#1861,#438);
#316=LINE('',#1863,#439);
#317=LINE('',#1868,#440);
#318=LINE('',#1870,#441);
#319=LINE('',#1872,#442);
#320=LINE('',#1873,#443);
#321=LINE('',#1876,#444);
#322=LINE('',#1878,#445);
#323=LINE('',#1879,#446);
#324=LINE('',#1882,#447);
#325=LINE('',#1883,#448);
#326=LINE('',#1886,#449);
#327=LINE('',#1887,#450);
#328=LINE('',#1889,#451);
#329=LINE('',#1894,#452);
#330=LINE('',#1896,#453);
#331=LINE('',#1898,#454);
#332=LINE('',#1899,#455);
#333=LINE('',#1902,#456);
#334=LINE('',#1904,#457);
#335=LINE('',#1905,#458);
#336=LINE('',#1908,#459);
#337=LINE('',#1909,#460);
#338=LINE('',#1912,#461);
#339=LINE('',#1913,#462);
#340=LINE('',#1915,#463);
#341=VECTOR('',#1279,10.);
#342=VECTOR('',#1282,10.);
#343=VECTOR('',#1285,10.);
#344=VECTOR('',#1288,10.);
#345=VECTOR('',#1291,10.);
#346=VECTOR('',#1294,10.);
#347=VECTOR('',#1297,10.);
#348=VECTOR('',#1300,10.);
#349=VECTOR('',#1303,10.);
#350=VECTOR('',#1306,10.);
#351=VECTOR('',#1309,10.);
#352=VECTOR('',#1310,10.);
#353=VECTOR('',#1315,10.);
#354=VECTOR('',#1320,10.);
#355=VECTOR('',#1321,10.);
#356=VECTOR('',#1324,10.);
#357=VECTOR('',#1325,10.);
#358=VECTOR('',#1330,10.);
#359=VECTOR('',#1335,10.);
#360=VECTOR('',#1336,10.);
#361=VECTOR('',#1339,10.);
#362=VECTOR('',#1340,10.);
#363=VECTOR('',#1345,10.);
#364=VECTOR('',#1350,10.);
#365=VECTOR('',#1351,10.);
#366=VECTOR('',#1354,10.);
#367=VECTOR('',#1355,10.);
#368=VECTOR('',#1360,10.);
#369=VECTOR('',#1363,10.);
#370=VECTOR('',#1366,10.);
#371=VECTOR('',#1369,10.);
#372=VECTOR('',#1372,10.);
#373=VECTOR('',#1381,1.9);
#374=VECTOR('',#1388,1.775);
#375=VECTOR('',#1391,10.);
#376=VECTOR('',#1392,10.);
#377=VECTOR('',#1393,10.);
#378=VECTOR('',#1394,10.);
#379=VECTOR('',#1397,10.);
#380=VECTOR('',#1398,10.);
#381=VECTOR('',#1399,10.);
#382=VECTOR('',#1402,10.);
#383=VECTOR('',#1403,10.);
#384=VECTOR('',#1406,10.);
#385=VECTOR('',#1407,10.);
#386=VECTOR('',#1410,10.);
#387=VECTOR('',#1419,10.);
#388=VECTOR('',#1422,10.);
#389=VECTOR('',#1425,10.);
#390=VECTOR('',#1428,10.);
#391=VECTOR('',#1435,1.5);
#392=VECTOR('',#1440,10.);
#393=VECTOR('',#1441,10.);
#394=VECTOR('',#1444,10.);
#395=VECTOR('',#1445,10.);
#396=VECTOR('',#1448,10.);
#397=VECTOR('',#1451,10.);
#398=VECTOR('',#1454,10.);
#399=VECTOR('',#1459,10.);
#400=VECTOR('',#1462,10.);
#401=VECTOR('',#1465,10.);
#402=VECTOR('',#1468,10.);
#403=VECTOR('',#1471,10.);
#404=VECTOR('',#1476,10.);
#405=VECTOR('',#1477,10.);
#406=VECTOR('',#1478,10.);
#407=VECTOR('',#1479,10.);
#408=VECTOR('',#1482,10.);
#409=VECTOR('',#1483,10.);
#410=VECTOR('',#1484,10.);
#411=VECTOR('',#1487,10.);
#412=VECTOR('',#1488,10.);
#413=VECTOR('',#1491,10.);
#414=VECTOR('',#1492,10.);
#415=VECTOR('',#1495,10.);
#416=VECTOR('',#1500,10.);
#417=VECTOR('',#1501,10.);
#418=VECTOR('',#1502,10.);
#419=VECTOR('',#1503,10.);
#420=VECTOR('',#1506,10.);
#421=VECTOR('',#1507,10.);
#422=VECTOR('',#1508,10.);
#423=VECTOR('',#1511,10.);
#424=VECTOR('',#1512,10.);
#425=VECTOR('',#1515,10.);
#426=VECTOR('',#1516,10.);
#427=VECTOR('',#1519,10.);
#428=VECTOR('',#1524,10.);
#429=VECTOR('',#1525,10.);
#430=VECTOR('',#1526,10.);
#431=VECTOR('',#1527,10.);
#432=VECTOR('',#1530,10.);
#433=VECTOR('',#1531,10.);
#434=VECTOR('',#1532,10.);
#435=VECTOR('',#1535,10.);
#436=VECTOR('',#1536,10.);
#437=VECTOR('',#1539,10.);
#438=VECTOR('',#1540,10.);
#439=VECTOR('',#1543,10.);
#440=VECTOR('',#1548,10.);
#441=VECTOR('',#1549,10.);
#442=VECTOR('',#1550,10.);
#443=VECTOR('',#1551,10.);
#444=VECTOR('',#1554,10.);
#445=VECTOR('',#1555,10.);
#446=VECTOR('',#1556,10.);
#447=VECTOR('',#1559,10.);
#448=VECTOR('',#1560,10.);
#449=VECTOR('',#1563,10.);
#450=VECTOR('',#1564,10.);
#451=VECTOR('',#1567,10.);
#452=VECTOR('',#1572,10.);
#453=VECTOR('',#1573,10.);
#454=VECTOR('',#1574,10.);
#455=VECTOR('',#1575,10.);
#456=VECTOR('',#1578,10.);
#457=VECTOR('',#1579,10.);
#458=VECTOR('',#1580,10.);
#459=VECTOR('',#1583,10.);
#460=VECTOR('',#1584,10.);
#461=VECTOR('',#1587,10.);
#462=VECTOR('',#1588,10.);
#463=VECTOR('',#1591,10.);
#464=CIRCLE('',#1176,0.5);
#465=CIRCLE('',#1177,0.5);
#466=CIRCLE('',#1179,0.5);
#467=CIRCLE('',#1180,0.5);
#468=CIRCLE('',#1181,0.5);
#469=CIRCLE('',#1182,0.5);
#470=CIRCLE('',#1183,0.5);
#471=CIRCLE('',#1184,0.5);
#472=CIRCLE('',#1185,0.5);
#473=CIRCLE('',#1188,0.5);
#474=CIRCLE('',#1190,0.5);
#475=CIRCLE('',#1193,0.5);
#476=CIRCLE('',#1195,0.5);
#477=CIRCLE('',#1198,0.5);
#478=CIRCLE('',#1200,0.5);
#479=CIRCLE('',#1203,0.5);
#480=CIRCLE('',#1209,1.9);
#481=CIRCLE('',#1211,1.9);
#482=CIRCLE('',#1213,1.65);
#483=CIRCLE('',#1222,1.5);
#484=CIRCLE('',#1223,0.3);
#485=CIRCLE('',#1224,0.3);
#486=CIRCLE('',#1225,0.3);
#487=CIRCLE('',#1226,0.3);
#488=CIRCLE('',#1228,1.5);
#489=CIRCLE('',#1231,0.3);
#490=CIRCLE('',#1234,0.3);
#491=CIRCLE('',#1235,0.3);
#492=CIRCLE('',#1236,0.3);
#493=VERTEX_POINT('',#1596);
#494=VERTEX_POINT('',#1597);
#495=VERTEX_POINT('',#1599);
#496=VERTEX_POINT('',#1601);
#497=VERTEX_POINT('',#1605);
#498=VERTEX_POINT('',#1607);
#499=VERTEX_POINT('',#1609);
#500=VERTEX_POINT('',#1611);
#501=VERTEX_POINT('',#1613);
#502=VERTEX_POINT('',#1615);
#503=VERTEX_POINT('',#1617);
#504=VERTEX_POINT('',#1619);
#505=VERTEX_POINT('',#1621);
#506=VERTEX_POINT('',#1623);
#507=VERTEX_POINT('',#1625);
#508=VERTEX_POINT('',#1627);
#509=VERTEX_POINT('',#1629);
#510=VERTEX_POINT('',#1631);
#511=VERTEX_POINT('',#1635);
#512=VERTEX_POINT('',#1639);
#513=VERTEX_POINT('',#1643);
#514=VERTEX_POINT('',#1644);
#515=VERTEX_POINT('',#1649);
#516=VERTEX_POINT('',#1653);
#517=VERTEX_POINT('',#1657);
#518=VERTEX_POINT('',#1658);
#519=VERTEX_POINT('',#1663);
#520=VERTEX_POINT('',#1667);
#521=VERTEX_POINT('',#1671);
#522=VERTEX_POINT('',#1672);
#523=VERTEX_POINT('',#1677);
#524=VERTEX_POINT('',#1681);
#525=VERTEX_POINT('',#1693);
#526=VERTEX_POINT('',#1696);
#527=VERTEX_POINT('',#1700);
#528=VERTEX_POINT('',#1705);
#529=VERTEX_POINT('',#1706);
#530=VERTEX_POINT('',#1708);
#531=VERTEX_POINT('',#1710);
#532=VERTEX_POINT('',#1714);
#533=VERTEX_POINT('',#1716);
#534=VERTEX_POINT('',#1720);
#535=VERTEX_POINT('',#1724);
#536=VERTEX_POINT('',#1731);
#537=VERTEX_POINT('',#1733);
#538=VERTEX_POINT('',#1734);
#539=VERTEX_POINT('',#1736);
#540=VERTEX_POINT('',#1738);
#541=VERTEX_POINT('',#1740);
#542=VERTEX_POINT('',#1742);
#543=VERTEX_POINT('',#1744);
#544=VERTEX_POINT('',#1746);
#545=VERTEX_POINT('',#1750);
#546=VERTEX_POINT('',#1755);
#547=VERTEX_POINT('',#1756);
#548=VERTEX_POINT('',#1761);
#549=VERTEX_POINT('',#1765);
#550=VERTEX_POINT('',#1767);
#551=VERTEX_POINT('',#1769);
#552=VERTEX_POINT('',#1771);
#553=VERTEX_POINT('',#1773);
#554=VERTEX_POINT('',#1788);
#555=VERTEX_POINT('',#1789);
#556=VERTEX_POINT('',#1791);
#557=VERTEX_POINT('',#1793);
#558=VERTEX_POINT('',#1797);
#559=VERTEX_POINT('',#1799);
#560=VERTEX_POINT('',#1803);
#561=VERTEX_POINT('',#1807);
#562=VERTEX_POINT('',#1814);
#563=VERTEX_POINT('',#1815);
#564=VERTEX_POINT('',#1817);
#565=VERTEX_POINT('',#1819);
#566=VERTEX_POINT('',#1823);
#567=VERTEX_POINT('',#1825);
#568=VERTEX_POINT('',#1829);
#569=VERTEX_POINT('',#1833);
#570=VERTEX_POINT('',#1840);
#571=VERTEX_POINT('',#1841);
#572=VERTEX_POINT('',#1843);
#573=VERTEX_POINT('',#1845);
#574=VERTEX_POINT('',#1849);
#575=VERTEX_POINT('',#1851);
#576=VERTEX_POINT('',#1855);
#577=VERTEX_POINT('',#1859);
#578=VERTEX_POINT('',#1866);
#579=VERTEX_POINT('',#1867);
#580=VERTEX_POINT('',#1869);
#581=VERTEX_POINT('',#1871);
#582=VERTEX_POINT('',#1875);
#583=VERTEX_POINT('',#1877);
#584=VERTEX_POINT('',#1881);
#585=VERTEX_POINT('',#1885);
#586=VERTEX_POINT('',#1892);
#587=VERTEX_POINT('',#1893);
#588=VERTEX_POINT('',#1895);
#589=VERTEX_POINT('',#1897);
#590=VERTEX_POINT('',#1901);
#591=VERTEX_POINT('',#1903);
#592=VERTEX_POINT('',#1907);
#593=VERTEX_POINT('',#1911);
#594=EDGE_CURVE('',#493,#494,#464,.T.);
#595=EDGE_CURVE('',#494,#495,#218,.T.);
#596=EDGE_CURVE('',#495,#496,#465,.T.);
#597=EDGE_CURVE('',#496,#493,#219,.T.);
#598=EDGE_CURVE('',#495,#497,#220,.T.);
#599=EDGE_CURVE('',#498,#497,#466,.T.);
#600=EDGE_CURVE('',#499,#498,#221,.T.);
#601=EDGE_CURVE('',#500,#499,#467,.T.);
#602=EDGE_CURVE('',#500,#501,#222,.T.);
#603=EDGE_CURVE('',#502,#501,#468,.T.);
#604=EDGE_CURVE('',#503,#502,#223,.T.);
#605=EDGE_CURVE('',#504,#503,#469,.T.);
#606=EDGE_CURVE('',#504,#505,#224,.T.);
#607=EDGE_CURVE('',#506,#505,#470,.T.);
#608=EDGE_CURVE('',#507,#506,#225,.T.);
#609=EDGE_CURVE('',#508,#507,#471,.T.);
#610=EDGE_CURVE('',#508,#509,#226,.T.);
#611=EDGE_CURVE('',#510,#509,#472,.T.);
#612=EDGE_CURVE('',#496,#510,#227,.T.);
#613=EDGE_CURVE('',#511,#494,#228,.T.);
#614=EDGE_CURVE('',#497,#511,#229,.T.);
#615=EDGE_CURVE('',#511,#512,#473,.T.);
#616=EDGE_CURVE('',#512,#498,#230,.T.);
#617=EDGE_CURVE('',#513,#514,#474,.T.);
#618=EDGE_CURVE('',#514,#500,#231,.T.);
#619=EDGE_CURVE('',#499,#513,#232,.T.);
#620=EDGE_CURVE('',#515,#514,#233,.T.);
#621=EDGE_CURVE('',#501,#515,#234,.T.);
#622=EDGE_CURVE('',#515,#516,#475,.T.);
#623=EDGE_CURVE('',#516,#502,#235,.T.);
#624=EDGE_CURVE('',#517,#518,#476,.T.);
#625=EDGE_CURVE('',#518,#504,#236,.T.);
#626=EDGE_CURVE('',#503,#517,#237,.T.);
#627=EDGE_CURVE('',#519,#518,#238,.T.);
#628=EDGE_CURVE('',#505,#519,#239,.T.);
#629=EDGE_CURVE('',#519,#520,#477,.T.);
#630=EDGE_CURVE('',#520,#506,#240,.T.);
#631=EDGE_CURVE('',#521,#522,#478,.T.);
#632=EDGE_CURVE('',#522,#510,#241,.T.);
#633=EDGE_CURVE('',#509,#521,#242,.T.);
#634=EDGE_CURVE('',#523,#508,#243,.T.);
#635=EDGE_CURVE('',#521,#523,#244,.T.);
#636=EDGE_CURVE('',#524,#523,#479,.T.);
#637=EDGE_CURVE('',#507,#524,#245,.T.);
#638=EDGE_CURVE('',#513,#512,#246,.T.);
#639=EDGE_CURVE('',#517,#516,#247,.T.);
#640=EDGE_CURVE('',#524,#520,#248,.T.);
#641=EDGE_CURVE('',#493,#522,#249,.T.);
#642=EDGE_CURVE('',#525,#525,#480,.T.);
#643=EDGE_CURVE('',#526,#526,#481,.T.);
#644=EDGE_CURVE('',#526,#525,#250,.T.);
#645=EDGE_CURVE('',#527,#527,#482,.T.);
#646=EDGE_CURVE('',#527,#526,#251,.T.);
#647=EDGE_CURVE('',#528,#529,#252,.T.);
#648=EDGE_CURVE('',#529,#530,#253,.T.);
#649=EDGE_CURVE('',#530,#531,#254,.T.);
#650=EDGE_CURVE('',#531,#528,#255,.T.);
#651=EDGE_CURVE('',#532,#529,#256,.T.);
#652=EDGE_CURVE('',#533,#532,#257,.T.);
#653=EDGE_CURVE('',#533,#530,#258,.T.);
#654=EDGE_CURVE('',#534,#533,#259,.T.);
#655=EDGE_CURVE('',#534,#531,#260,.T.);
#656=EDGE_CURVE('',#535,#534,#261,.T.);
#657=EDGE_CURVE('',#528,#535,#262,.T.);
#658=EDGE_CURVE('',#532,#535,#263,.T.);
#659=EDGE_CURVE('',#536,#536,#483,.T.);
#660=EDGE_CURVE('',#537,#538,#484,.F.);
#661=EDGE_CURVE('',#537,#539,#264,.T.);
#662=EDGE_CURVE('',#540,#539,#485,.F.);
#663=EDGE_CURVE('',#540,#541,#265,.T.);
#664=EDGE_CURVE('',#542,#541,#486,.F.);
#665=EDGE_CURVE('',#542,#543,#266,.T.);
#666=EDGE_CURVE('',#544,#543,#487,.F.);
#667=EDGE_CURVE('',#544,#538,#267,.T.);
#668=EDGE_CURVE('',#545,#545,#488,.T.);
#669=EDGE_CURVE('',#536,#545,#268,.T.);
#670=EDGE_CURVE('',#546,#547,#489,.T.);
#671=EDGE_CURVE('',#547,#537,#269,.T.);
#672=EDGE_CURVE('',#538,#546,#270,.T.);
#673=EDGE_CURVE('',#548,#547,#271,.T.);
#674=EDGE_CURVE('',#539,#548,#272,.T.);
#675=EDGE_CURVE('',#546,#549,#273,.T.);
#676=EDGE_CURVE('',#550,#549,#490,.T.);
#677=EDGE_CURVE('',#550,#551,#274,.T.);
#678=EDGE_CURVE('',#552,#551,#491,.T.);
#679=EDGE_CURVE('',#552,#553,#275,.T.);
#680=EDGE_CURVE('',#548,#553,#492,.T.);
#681=EDGE_CURVE('',#553,#540,#276,.T.);
#682=EDGE_CURVE('',#541,#552,#277,.T.);
#683=EDGE_CURVE('',#551,#542,#278,.T.);
#684=EDGE_CURVE('',#543,#550,#279,.T.);
#685=EDGE_CURVE('',#549,#544,#280,.T.);
#686=EDGE_CURVE('',#554,#555,#281,.T.);
#687=EDGE_CURVE('',#556,#554,#282,.T.);
#688=EDGE_CURVE('',#557,#556,#283,.T.);
#689=EDGE_CURVE('',#555,#557,#284,.T.);
#690=EDGE_CURVE('',#558,#555,#285,.T.);
#691=EDGE_CURVE('',#559,#557,#286,.T.);
#692=EDGE_CURVE('',#559,#558,#287,.T.);
#693=EDGE_CURVE('',#560,#556,#288,.T.);
#694=EDGE_CURVE('',#560,#559,#289,.T.);
#695=EDGE_CURVE('',#554,#561,#290,.T.);
#696=EDGE_CURVE('',#561,#560,#291,.T.);
#697=EDGE_CURVE('',#558,#561,#292,.T.);
#698=EDGE_CURVE('',#562,#563,#293,.T.);
#699=EDGE_CURVE('',#564,#562,#294,.T.);
#700=EDGE_CURVE('',#565,#564,#295,.T.);
#701=EDGE_CURVE('',#563,#565,#296,.T.);
#702=EDGE_CURVE('',#566,#563,#297,.T.);
#703=EDGE_CURVE('',#567,#565,#298,.T.);
#704=EDGE_CURVE('',#567,#566,#299,.T.);
#705=EDGE_CURVE('',#568,#564,#300,.T.);
#706=EDGE_CURVE('',#568,#567,#301,.T.);
#707=EDGE_CURVE('',#562,#569,#302,.T.);
#708=EDGE_CURVE('',#569,#568,#303,.T.);
#709=EDGE_CURVE('',#566,#569,#304,.T.);
#710=EDGE_CURVE('',#570,#571,#305,.T.);
#711=EDGE_CURVE('',#572,#570,#306,.T.);
#712=EDGE_CURVE('',#573,#572,#307,.T.);
#713=EDGE_CURVE('',#571,#573,#308,.T.);
#714=EDGE_CURVE('',#574,#571,#309,.T.);
#715=EDGE_CURVE('',#575,#573,#310,.T.);
#716=EDGE_CURVE('',#575,#574,#311,.T.);
#717=EDGE_CURVE('',#576,#572,#312,.T.);
#718=EDGE_CURVE('',#576,#575,#313,.T.);
#719=EDGE_CURVE('',#570,#577,#314,.T.);
#720=EDGE_CURVE('',#577,#576,#315,.T.);
#721=EDGE_CURVE('',#574,#577,#316,.T.);
#722=EDGE_CURVE('',#578,#579,#317,.T.);
#723=EDGE_CURVE('',#579,#580,#318,.T.);
#724=EDGE_CURVE('',#580,#581,#319,.T.);
#725=EDGE_CURVE('',#581,#578,#320,.T.);
#726=EDGE_CURVE('',#582,#579,#321,.T.);
#727=EDGE_CURVE('',#583,#582,#322,.T.);
#728=EDGE_CURVE('',#583,#580,#323,.T.);
#729=EDGE_CURVE('',#584,#583,#324,.T.);
#730=EDGE_CURVE('',#584,#581,#325,.T.);
#731=EDGE_CURVE('',#585,#584,#326,.T.);
#732=EDGE_CURVE('',#578,#585,#327,.T.);
#733=EDGE_CURVE('',#582,#585,#328,.T.);
#734=EDGE_CURVE('',#586,#587,#329,.T.);
#735=EDGE_CURVE('',#587,#588,#330,.T.);
#736=EDGE_CURVE('',#588,#589,#331,.T.);
#737=EDGE_CURVE('',#589,#586,#332,.T.);
#738=EDGE_CURVE('',#590,#587,#333,.T.);
#739=EDGE_CURVE('',#591,#590,#334,.T.);
#740=EDGE_CURVE('',#591,#588,#335,.T.);
#741=EDGE_CURVE('',#592,#591,#336,.T.);
#742=EDGE_CURVE('',#592,#589,#337,.T.);
#743=EDGE_CURVE('',#593,#592,#338,.T.);
#744=EDGE_CURVE('',#586,#593,#339,.T.);
#745=EDGE_CURVE('',#590,#593,#340,.T.);
#746=ORIENTED_EDGE('',*,*,#594,.T.);
#747=ORIENTED_EDGE('',*,*,#595,.T.);
#748=ORIENTED_EDGE('',*,*,#596,.T.);
#749=ORIENTED_EDGE('',*,*,#597,.T.);
#750=ORIENTED_EDGE('',*,*,#596,.F.);
#751=ORIENTED_EDGE('',*,*,#598,.T.);
#752=ORIENTED_EDGE('',*,*,#599,.F.);
#753=ORIENTED_EDGE('',*,*,#600,.F.);
#754=ORIENTED_EDGE('',*,*,#601,.F.);
#755=ORIENTED_EDGE('',*,*,#602,.T.);
#756=ORIENTED_EDGE('',*,*,#603,.F.);
#757=ORIENTED_EDGE('',*,*,#604,.F.);
#758=ORIENTED_EDGE('',*,*,#605,.F.);
#759=ORIENTED_EDGE('',*,*,#606,.T.);
#760=ORIENTED_EDGE('',*,*,#607,.F.);
#761=ORIENTED_EDGE('',*,*,#608,.F.);
#762=ORIENTED_EDGE('',*,*,#609,.F.);
#763=ORIENTED_EDGE('',*,*,#610,.T.);
#764=ORIENTED_EDGE('',*,*,#611,.F.);
#765=ORIENTED_EDGE('',*,*,#612,.F.);
#766=ORIENTED_EDGE('',*,*,#595,.F.);
#767=ORIENTED_EDGE('',*,*,#613,.F.);
#768=ORIENTED_EDGE('',*,*,#614,.F.);
#769=ORIENTED_EDGE('',*,*,#598,.F.);
#770=ORIENTED_EDGE('',*,*,#615,.T.);
#771=ORIENTED_EDGE('',*,*,#616,.T.);
#772=ORIENTED_EDGE('',*,*,#599,.T.);
#773=ORIENTED_EDGE('',*,*,#614,.T.);
#774=ORIENTED_EDGE('',*,*,#617,.T.);
#775=ORIENTED_EDGE('',*,*,#618,.T.);
#776=ORIENTED_EDGE('',*,*,#601,.T.);
#777=ORIENTED_EDGE('',*,*,#619,.T.);
#778=ORIENTED_EDGE('',*,*,#618,.F.);
#779=ORIENTED_EDGE('',*,*,#620,.F.);
#780=ORIENTED_EDGE('',*,*,#621,.F.);
#781=ORIENTED_EDGE('',*,*,#602,.F.);
#782=ORIENTED_EDGE('',*,*,#622,.T.);
#783=ORIENTED_EDGE('',*,*,#623,.T.);
#784=ORIENTED_EDGE('',*,*,#603,.T.);
#785=ORIENTED_EDGE('',*,*,#621,.T.);
#786=ORIENTED_EDGE('',*,*,#624,.T.);
#787=ORIENTED_EDGE('',*,*,#625,.T.);
#788=ORIENTED_EDGE('',*,*,#605,.T.);
#789=ORIENTED_EDGE('',*,*,#626,.T.);
#790=ORIENTED_EDGE('',*,*,#625,.F.);
#791=ORIENTED_EDGE('',*,*,#627,.F.);
#792=ORIENTED_EDGE('',*,*,#628,.F.);
#793=ORIENTED_EDGE('',*,*,#606,.F.);
#794=ORIENTED_EDGE('',*,*,#629,.T.);
#795=ORIENTED_EDGE('',*,*,#630,.T.);
#796=ORIENTED_EDGE('',*,*,#607,.T.);
#797=ORIENTED_EDGE('',*,*,#628,.T.);
#798=ORIENTED_EDGE('',*,*,#631,.T.);
#799=ORIENTED_EDGE('',*,*,#632,.T.);
#800=ORIENTED_EDGE('',*,*,#611,.T.);
#801=ORIENTED_EDGE('',*,*,#633,.T.);
#802=ORIENTED_EDGE('',*,*,#633,.F.);
#803=ORIENTED_EDGE('',*,*,#610,.F.);
#804=ORIENTED_EDGE('',*,*,#634,.F.);
#805=ORIENTED_EDGE('',*,*,#635,.F.);
#806=ORIENTED_EDGE('',*,*,#636,.T.);
#807=ORIENTED_EDGE('',*,*,#634,.T.);
#808=ORIENTED_EDGE('',*,*,#609,.T.);
#809=ORIENTED_EDGE('',*,*,#637,.T.);
#810=ORIENTED_EDGE('',*,*,#616,.F.);
#811=ORIENTED_EDGE('',*,*,#638,.F.);
#812=ORIENTED_EDGE('',*,*,#619,.F.);
#813=ORIENTED_EDGE('',*,*,#600,.T.);
#814=ORIENTED_EDGE('',*,*,#623,.F.);
#815=ORIENTED_EDGE('',*,*,#639,.F.);
#816=ORIENTED_EDGE('',*,*,#626,.F.);
#817=ORIENTED_EDGE('',*,*,#604,.T.);
#818=ORIENTED_EDGE('',*,*,#630,.F.);
#819=ORIENTED_EDGE('',*,*,#640,.F.);
#820=ORIENTED_EDGE('',*,*,#637,.F.);
#821=ORIENTED_EDGE('',*,*,#608,.T.);
#822=ORIENTED_EDGE('',*,*,#597,.F.);
#823=ORIENTED_EDGE('',*,*,#612,.T.);
#824=ORIENTED_EDGE('',*,*,#632,.F.);
#825=ORIENTED_EDGE('',*,*,#641,.F.);
#826=ORIENTED_EDGE('',*,*,#594,.F.);
#827=ORIENTED_EDGE('',*,*,#641,.T.);
#828=ORIENTED_EDGE('',*,*,#631,.F.);
#829=ORIENTED_EDGE('',*,*,#635,.T.);
#830=ORIENTED_EDGE('',*,*,#636,.F.);
#831=ORIENTED_EDGE('',*,*,#640,.T.);
#832=ORIENTED_EDGE('',*,*,#629,.F.);
#833=ORIENTED_EDGE('',*,*,#627,.T.);
#834=ORIENTED_EDGE('',*,*,#624,.F.);
#835=ORIENTED_EDGE('',*,*,#639,.T.);
#836=ORIENTED_EDGE('',*,*,#622,.F.);
#837=ORIENTED_EDGE('',*,*,#620,.T.);
#838=ORIENTED_EDGE('',*,*,#617,.F.);
#839=ORIENTED_EDGE('',*,*,#638,.T.);
#840=ORIENTED_EDGE('',*,*,#615,.F.);
#841=ORIENTED_EDGE('',*,*,#613,.T.);
#842=ORIENTED_EDGE('',*,*,#642,.T.);
#843=ORIENTED_EDGE('',*,*,#643,.F.);
#844=ORIENTED_EDGE('',*,*,#644,.T.);
#845=ORIENTED_EDGE('',*,*,#642,.F.);
#846=ORIENTED_EDGE('',*,*,#644,.F.);
#847=ORIENTED_EDGE('',*,*,#645,.F.);
#848=ORIENTED_EDGE('',*,*,#645,.T.);
#849=ORIENTED_EDGE('',*,*,#646,.T.);
#850=ORIENTED_EDGE('',*,*,#643,.T.);
#851=ORIENTED_EDGE('',*,*,#646,.F.);
#852=ORIENTED_EDGE('',*,*,#647,.T.);
#853=ORIENTED_EDGE('',*,*,#648,.T.);
#854=ORIENTED_EDGE('',*,*,#649,.T.);
#855=ORIENTED_EDGE('',*,*,#650,.T.);
#856=ORIENTED_EDGE('',*,*,#651,.F.);
#857=ORIENTED_EDGE('',*,*,#652,.F.);
#858=ORIENTED_EDGE('',*,*,#653,.T.);
#859=ORIENTED_EDGE('',*,*,#648,.F.);
#860=ORIENTED_EDGE('',*,*,#653,.F.);
#861=ORIENTED_EDGE('',*,*,#654,.F.);
#862=ORIENTED_EDGE('',*,*,#655,.T.);
#863=ORIENTED_EDGE('',*,*,#649,.F.);
#864=ORIENTED_EDGE('',*,*,#655,.F.);
#865=ORIENTED_EDGE('',*,*,#656,.F.);
#866=ORIENTED_EDGE('',*,*,#657,.F.);
#867=ORIENTED_EDGE('',*,*,#650,.F.);
#868=ORIENTED_EDGE('',*,*,#657,.T.);
#869=ORIENTED_EDGE('',*,*,#658,.F.);
#870=ORIENTED_EDGE('',*,*,#651,.T.);
#871=ORIENTED_EDGE('',*,*,#647,.F.);
#872=ORIENTED_EDGE('',*,*,#658,.T.);
#873=ORIENTED_EDGE('',*,*,#656,.T.);
#874=ORIENTED_EDGE('',*,*,#654,.T.);
#875=ORIENTED_EDGE('',*,*,#652,.T.);
#876=ORIENTED_EDGE('',*,*,#659,.T.);
#877=ORIENTED_EDGE('',*,*,#660,.F.);
#878=ORIENTED_EDGE('',*,*,#661,.T.);
#879=ORIENTED_EDGE('',*,*,#662,.F.);
#880=ORIENTED_EDGE('',*,*,#663,.T.);
#881=ORIENTED_EDGE('',*,*,#664,.F.);
#882=ORIENTED_EDGE('',*,*,#665,.T.);
#883=ORIENTED_EDGE('',*,*,#666,.F.);
#884=ORIENTED_EDGE('',*,*,#667,.T.);
#885=ORIENTED_EDGE('',*,*,#668,.T.);
#886=ORIENTED_EDGE('',*,*,#659,.F.);
#887=ORIENTED_EDGE('',*,*,#669,.T.);
#888=ORIENTED_EDGE('',*,*,#668,.F.);
#889=ORIENTED_EDGE('',*,*,#669,.F.);
#890=ORIENTED_EDGE('',*,*,#670,.T.);
#891=ORIENTED_EDGE('',*,*,#671,.T.);
#892=ORIENTED_EDGE('',*,*,#660,.T.);
#893=ORIENTED_EDGE('',*,*,#672,.T.);
#894=ORIENTED_EDGE('',*,*,#671,.F.);
#895=ORIENTED_EDGE('',*,*,#673,.F.);
#896=ORIENTED_EDGE('',*,*,#674,.F.);
#897=ORIENTED_EDGE('',*,*,#661,.F.);
#898=ORIENTED_EDGE('',*,*,#670,.F.);
#899=ORIENTED_EDGE('',*,*,#675,.T.);
#900=ORIENTED_EDGE('',*,*,#676,.F.);
#901=ORIENTED_EDGE('',*,*,#677,.T.);
#902=ORIENTED_EDGE('',*,*,#678,.F.);
#903=ORIENTED_EDGE('',*,*,#679,.T.);
#904=ORIENTED_EDGE('',*,*,#680,.F.);
#905=ORIENTED_EDGE('',*,*,#673,.T.);
#906=ORIENTED_EDGE('',*,*,#680,.T.);
#907=ORIENTED_EDGE('',*,*,#681,.T.);
#908=ORIENTED_EDGE('',*,*,#662,.T.);
#909=ORIENTED_EDGE('',*,*,#674,.T.);
#910=ORIENTED_EDGE('',*,*,#681,.F.);
#911=ORIENTED_EDGE('',*,*,#679,.F.);
#912=ORIENTED_EDGE('',*,*,#682,.F.);
#913=ORIENTED_EDGE('',*,*,#663,.F.);
#914=ORIENTED_EDGE('',*,*,#678,.T.);
#915=ORIENTED_EDGE('',*,*,#683,.T.);
#916=ORIENTED_EDGE('',*,*,#664,.T.);
#917=ORIENTED_EDGE('',*,*,#682,.T.);
#918=ORIENTED_EDGE('',*,*,#683,.F.);
#919=ORIENTED_EDGE('',*,*,#677,.F.);
#920=ORIENTED_EDGE('',*,*,#684,.F.);
#921=ORIENTED_EDGE('',*,*,#665,.F.);
#922=ORIENTED_EDGE('',*,*,#676,.T.);
#923=ORIENTED_EDGE('',*,*,#685,.T.);
#924=ORIENTED_EDGE('',*,*,#666,.T.);
#925=ORIENTED_EDGE('',*,*,#684,.T.);
#926=ORIENTED_EDGE('',*,*,#672,.F.);
#927=ORIENTED_EDGE('',*,*,#667,.F.);
#928=ORIENTED_EDGE('',*,*,#685,.F.);
#929=ORIENTED_EDGE('',*,*,#675,.F.);
#930=ORIENTED_EDGE('',*,*,#686,.F.);
#931=ORIENTED_EDGE('',*,*,#687,.F.);
#932=ORIENTED_EDGE('',*,*,#688,.F.);
#933=ORIENTED_EDGE('',*,*,#689,.F.);
#934=ORIENTED_EDGE('',*,*,#690,.T.);
#935=ORIENTED_EDGE('',*,*,#689,.T.);
#936=ORIENTED_EDGE('',*,*,#691,.F.);
#937=ORIENTED_EDGE('',*,*,#692,.T.);
#938=ORIENTED_EDGE('',*,*,#691,.T.);
#939=ORIENTED_EDGE('',*,*,#688,.T.);
#940=ORIENTED_EDGE('',*,*,#693,.F.);
#941=ORIENTED_EDGE('',*,*,#694,.T.);
#942=ORIENTED_EDGE('',*,*,#693,.T.);
#943=ORIENTED_EDGE('',*,*,#687,.T.);
#944=ORIENTED_EDGE('',*,*,#695,.T.);
#945=ORIENTED_EDGE('',*,*,#696,.T.);
#946=ORIENTED_EDGE('',*,*,#695,.F.);
#947=ORIENTED_EDGE('',*,*,#686,.T.);
#948=ORIENTED_EDGE('',*,*,#690,.F.);
#949=ORIENTED_EDGE('',*,*,#697,.T.);
#950=ORIENTED_EDGE('',*,*,#697,.F.);
#951=ORIENTED_EDGE('',*,*,#692,.F.);
#952=ORIENTED_EDGE('',*,*,#694,.F.);
#953=ORIENTED_EDGE('',*,*,#696,.F.);
#954=ORIENTED_EDGE('',*,*,#698,.F.);
#955=ORIENTED_EDGE('',*,*,#699,.F.);
#956=ORIENTED_EDGE('',*,*,#700,.F.);
#957=ORIENTED_EDGE('',*,*,#701,.F.);
#958=ORIENTED_EDGE('',*,*,#702,.T.);
#959=ORIENTED_EDGE('',*,*,#701,.T.);
#960=ORIENTED_EDGE('',*,*,#703,.F.);
#961=ORIENTED_EDGE('',*,*,#704,.T.);
#962=ORIENTED_EDGE('',*,*,#703,.T.);
#963=ORIENTED_EDGE('',*,*,#700,.T.);
#964=ORIENTED_EDGE('',*,*,#705,.F.);
#965=ORIENTED_EDGE('',*,*,#706,.T.);
#966=ORIENTED_EDGE('',*,*,#705,.T.);
#967=ORIENTED_EDGE('',*,*,#699,.T.);
#968=ORIENTED_EDGE('',*,*,#707,.T.);
#969=ORIENTED_EDGE('',*,*,#708,.T.);
#970=ORIENTED_EDGE('',*,*,#707,.F.);
#971=ORIENTED_EDGE('',*,*,#698,.T.);
#972=ORIENTED_EDGE('',*,*,#702,.F.);
#973=ORIENTED_EDGE('',*,*,#709,.T.);
#974=ORIENTED_EDGE('',*,*,#709,.F.);
#975=ORIENTED_EDGE('',*,*,#704,.F.);
#976=ORIENTED_EDGE('',*,*,#706,.F.);
#977=ORIENTED_EDGE('',*,*,#708,.F.);
#978=ORIENTED_EDGE('',*,*,#710,.F.);
#979=ORIENTED_EDGE('',*,*,#711,.F.);
#980=ORIENTED_EDGE('',*,*,#712,.F.);
#981=ORIENTED_EDGE('',*,*,#713,.F.);
#982=ORIENTED_EDGE('',*,*,#714,.T.);
#983=ORIENTED_EDGE('',*,*,#713,.T.);
#984=ORIENTED_EDGE('',*,*,#715,.F.);
#985=ORIENTED_EDGE('',*,*,#716,.T.);
#986=ORIENTED_EDGE('',*,*,#715,.T.);
#987=ORIENTED_EDGE('',*,*,#712,.T.);
#988=ORIENTED_EDGE('',*,*,#717,.F.);
#989=ORIENTED_EDGE('',*,*,#718,.T.);
#990=ORIENTED_EDGE('',*,*,#717,.T.);
#991=ORIENTED_EDGE('',*,*,#711,.T.);
#992=ORIENTED_EDGE('',*,*,#719,.T.);
#993=ORIENTED_EDGE('',*,*,#720,.T.);
#994=ORIENTED_EDGE('',*,*,#719,.F.);
#995=ORIENTED_EDGE('',*,*,#710,.T.);
#996=ORIENTED_EDGE('',*,*,#714,.F.);
#997=ORIENTED_EDGE('',*,*,#721,.T.);
#998=ORIENTED_EDGE('',*,*,#721,.F.);
#999=ORIENTED_EDGE('',*,*,#716,.F.);
#1000=ORIENTED_EDGE('',*,*,#718,.F.);
#1001=ORIENTED_EDGE('',*,*,#720,.F.);
#1002=ORIENTED_EDGE('',*,*,#722,.T.);
#1003=ORIENTED_EDGE('',*,*,#723,.T.);
#1004=ORIENTED_EDGE('',*,*,#724,.T.);
#1005=ORIENTED_EDGE('',*,*,#725,.T.);
#1006=ORIENTED_EDGE('',*,*,#726,.F.);
#1007=ORIENTED_EDGE('',*,*,#727,.F.);
#1008=ORIENTED_EDGE('',*,*,#728,.T.);
#1009=ORIENTED_EDGE('',*,*,#723,.F.);
#1010=ORIENTED_EDGE('',*,*,#728,.F.);
#1011=ORIENTED_EDGE('',*,*,#729,.F.);
#1012=ORIENTED_EDGE('',*,*,#730,.T.);
#1013=ORIENTED_EDGE('',*,*,#724,.F.);
#1014=ORIENTED_EDGE('',*,*,#730,.F.);
#1015=ORIENTED_EDGE('',*,*,#731,.F.);
#1016=ORIENTED_EDGE('',*,*,#732,.F.);
#1017=ORIENTED_EDGE('',*,*,#725,.F.);
#1018=ORIENTED_EDGE('',*,*,#732,.T.);
#1019=ORIENTED_EDGE('',*,*,#733,.F.);
#1020=ORIENTED_EDGE('',*,*,#726,.T.);
#1021=ORIENTED_EDGE('',*,*,#722,.F.);
#1022=ORIENTED_EDGE('',*,*,#733,.T.);
#1023=ORIENTED_EDGE('',*,*,#731,.T.);
#1024=ORIENTED_EDGE('',*,*,#729,.T.);
#1025=ORIENTED_EDGE('',*,*,#727,.T.);
#1026=ORIENTED_EDGE('',*,*,#734,.T.);
#1027=ORIENTED_EDGE('',*,*,#735,.T.);
#1028=ORIENTED_EDGE('',*,*,#736,.T.);
#1029=ORIENTED_EDGE('',*,*,#737,.T.);
#1030=ORIENTED_EDGE('',*,*,#738,.F.);
#1031=ORIENTED_EDGE('',*,*,#739,.F.);
#1032=ORIENTED_EDGE('',*,*,#740,.T.);
#1033=ORIENTED_EDGE('',*,*,#735,.F.);
#1034=ORIENTED_EDGE('',*,*,#740,.F.);
#1035=ORIENTED_EDGE('',*,*,#741,.F.);
#1036=ORIENTED_EDGE('',*,*,#742,.T.);
#1037=ORIENTED_EDGE('',*,*,#736,.F.);
#1038=ORIENTED_EDGE('',*,*,#742,.F.);
#1039=ORIENTED_EDGE('',*,*,#743,.F.);
#1040=ORIENTED_EDGE('',*,*,#744,.F.);
#1041=ORIENTED_EDGE('',*,*,#737,.F.);
#1042=ORIENTED_EDGE('',*,*,#744,.T.);
#1043=ORIENTED_EDGE('',*,*,#745,.F.);
#1044=ORIENTED_EDGE('',*,*,#738,.T.);
#1045=ORIENTED_EDGE('',*,*,#734,.F.);
#1046=ORIENTED_EDGE('',*,*,#745,.T.);
#1047=ORIENTED_EDGE('',*,*,#743,.T.);
#1048=ORIENTED_EDGE('',*,*,#741,.T.);
#1049=ORIENTED_EDGE('',*,*,#739,.T.);
#1050=CYLINDRICAL_SURFACE('',#1175,0.5);
#1051=CYLINDRICAL_SURFACE('',#1187,0.5);
#1052=CYLINDRICAL_SURFACE('',#1189,0.5);
#1053=CYLINDRICAL_SURFACE('',#1192,0.5);
#1054=CYLINDRICAL_SURFACE('',#1194,0.5);
#1055=CYLINDRICAL_SURFACE('',#1197,0.5);
#1056=CYLINDRICAL_SURFACE('',#1199,0.5);
#1057=CYLINDRICAL_SURFACE('',#1202,0.5);
#1058=CYLINDRICAL_SURFACE('',#1210,1.9);
#1059=CYLINDRICAL_SURFACE('',#1229,1.5);
#1060=CYLINDRICAL_SURFACE('',#1230,0.3);
#1061=CYLINDRICAL_SURFACE('',#1237,0.3);
#1062=CYLINDRICAL_SURFACE('',#1239,0.3);
#1063=CYLINDRICAL_SURFACE('',#1241,0.3);
#1064=STYLED_ITEM('',(#1938),#1085);
#1065=STYLED_ITEM('',(#1938),#1087);
#1066=STYLED_ITEM('',(#1938),#1088);
#1067=STYLED_ITEM('',(#1938),#1089);
#1068=STYLED_ITEM('',(#1938),#1090);
#1069=STYLED_ITEM('',(#1938),#1091);
#1070=STYLED_ITEM('',(#1938),#1092);
#1071=STYLED_ITEM('',(#1938),#1093);
#1072=STYLED_ITEM('',(#1938),#1094);
#1073=STYLED_ITEM('',(#1938),#1095);
#1074=STYLED_ITEM('',(#1938),#1096);
#1075=STYLED_ITEM('',(#1938),#1097);
#1076=STYLED_ITEM('',(#1938),#1104);
#1077=STYLED_ITEM('',(#1937),#13);
#1078=STYLED_ITEM('',(#1939),#14);
#1079=STYLED_ITEM('',(#1938),#15);
#1080=STYLED_ITEM('',(#1939),#16);
#1081=STYLED_ITEM('',(#1939),#17);
#1082=STYLED_ITEM('',(#1939),#18);
#1083=STYLED_ITEM('',(#1939),#19);
#1084=STYLED_ITEM('',(#1939),#20);
#1085=ADVANCED_FACE('',(#78),#1050,.T.);
#1086=ADVANCED_FACE('',(#79),#24,.F.);
#1087=ADVANCED_FACE('',(#80),#25,.T.);
#1088=ADVANCED_FACE('',(#81),#1051,.T.);
#1089=ADVANCED_FACE('',(#82),#1052,.T.);
#1090=ADVANCED_FACE('',(#83),#26,.T.);
#1091=ADVANCED_FACE('',(#84),#1053,.T.);
#1092=ADVANCED_FACE('',(#85),#1054,.T.);
#1093=ADVANCED_FACE('',(#86),#27,.T.);
#1094=ADVANCED_FACE('',(#87),#1055,.T.);
#1095=ADVANCED_FACE('',(#88),#1056,.T.);
#1096=ADVANCED_FACE('',(#89),#28,.T.);
#1097=ADVANCED_FACE('',(#90),#1057,.T.);
#1098=ADVANCED_FACE('',(#91),#29,.T.);
#1099=ADVANCED_FACE('',(#92),#30,.T.);
#1100=ADVANCED_FACE('',(#93),#31,.T.);
#1101=ADVANCED_FACE('',(#94),#32,.T.);
#1102=ADVANCED_FACE('',(#95,#22),#33,.T.);
#1103=ADVANCED_FACE('',(#96),#1058,.T.);
#1104=ADVANCED_FACE('',(#97),#34,.T.);
#1105=ADVANCED_FACE('',(#98),#21,.T.);
#1106=ADVANCED_FACE('',(#99),#35,.T.);
#1107=ADVANCED_FACE('',(#100),#36,.T.);
#1108=ADVANCED_FACE('',(#101),#37,.T.);
#1109=ADVANCED_FACE('',(#102),#38,.T.);
#1110=ADVANCED_FACE('',(#103),#39,.T.);
#1111=ADVANCED_FACE('',(#104),#40,.T.);
#1112=ADVANCED_FACE('',(#105,#23),#41,.T.);
#1113=ADVANCED_FACE('',(#106),#42,.F.);
#1114=ADVANCED_FACE('',(#107),#1059,.T.);
#1115=ADVANCED_FACE('',(#108),#1060,.T.);
#1116=ADVANCED_FACE('',(#109),#43,.T.);
#1117=ADVANCED_FACE('',(#110),#44,.T.);
#1118=ADVANCED_FACE('',(#111),#1061,.T.);
#1119=ADVANCED_FACE('',(#112),#45,.T.);
#1120=ADVANCED_FACE('',(#113),#1062,.T.);
#1121=ADVANCED_FACE('',(#114),#46,.T.);
#1122=ADVANCED_FACE('',(#115),#1063,.T.);
#1123=ADVANCED_FACE('',(#116),#47,.T.);
#1124=ADVANCED_FACE('',(#117),#48,.F.);
#1125=ADVANCED_FACE('',(#118),#49,.F.);
#1126=ADVANCED_FACE('',(#119),#50,.F.);
#1127=ADVANCED_FACE('',(#120),#51,.F.);
#1128=ADVANCED_FACE('',(#121),#52,.F.);
#1129=ADVANCED_FACE('',(#122),#53,.F.);
#1130=ADVANCED_FACE('',(#123),#54,.F.);
#1131=ADVANCED_FACE('',(#124),#55,.F.);
#1132=ADVANCED_FACE('',(#125),#56,.F.);
#1133=ADVANCED_FACE('',(#126),#57,.F.);
#1134=ADVANCED_FACE('',(#127),#58,.F.);
#1135=ADVANCED_FACE('',(#128),#59,.F.);
#1136=ADVANCED_FACE('',(#129),#60,.F.);
#1137=ADVANCED_FACE('',(#130),#61,.F.);
#1138=ADVANCED_FACE('',(#131),#62,.F.);
#1139=ADVANCED_FACE('',(#132),#63,.F.);
#1140=ADVANCED_FACE('',(#133),#64,.F.);
#1141=ADVANCED_FACE('',(#134),#65,.F.);
#1142=ADVANCED_FACE('',(#135),#66,.T.);
#1143=ADVANCED_FACE('',(#136),#67,.T.);
#1144=ADVANCED_FACE('',(#137),#68,.T.);
#1145=ADVANCED_FACE('',(#138),#69,.T.);
#1146=ADVANCED_FACE('',(#139),#70,.T.);
#1147=ADVANCED_FACE('',(#140),#71,.T.);
#1148=ADVANCED_FACE('',(#141),#72,.T.);
#1149=ADVANCED_FACE('',(#142),#73,.T.);
#1150=ADVANCED_FACE('',(#143),#74,.T.);
#1151=ADVANCED_FACE('',(#144),#75,.T.);
#1152=ADVANCED_FACE('',(#145),#76,.T.);
#1153=ADVANCED_FACE('',(#146),#77,.T.);
#1154=CLOSED_SHELL('',(#1085,#1086,#1087,#1088,#1089,#1090,#1091,#1092,
#1093,#1094,#1095,#1096,#1097,#1098,#1099,#1100,#1101,#1102,#1103,#1104,
#1105));
#1155=CLOSED_SHELL('',(#1106,#1107,#1108,#1109,#1110,#1111));
#1156=CLOSED_SHELL('',(#1112,#1113,#1114,#1115,#1116,#1117,#1118,#1119,
#1120,#1121,#1122,#1123));
#1157=CLOSED_SHELL('',(#1124,#1125,#1126,#1127,#1128,#1129));
#1158=CLOSED_SHELL('',(#1130,#1131,#1132,#1133,#1134,#1135));
#1159=CLOSED_SHELL('',(#1136,#1137,#1138,#1139,#1140,#1141));
#1160=CLOSED_SHELL('',(#1142,#1143,#1144,#1145,#1146,#1147));
#1161=CLOSED_SHELL('',(#1148,#1149,#1150,#1151,#1152,#1153));
#1162=DERIVED_UNIT_ELEMENT(#1164,1.);
#1163=DERIVED_UNIT_ELEMENT(#1922,3.);
#1164=(
MASS_UNIT()
NAMED_UNIT(*)
SI_UNIT(.KILO.,.GRAM.)
);
#1165=DERIVED_UNIT((#1162,#1163));
#1166=MEASURE_REPRESENTATION_ITEM('density measure',
POSITIVE_RATIO_MEASURE(1120.),#1165);
#1167=PROPERTY_DEFINITION_REPRESENTATION(#1172,#1169);
#1168=PROPERTY_DEFINITION_REPRESENTATION(#1173,#1170);
#1169=REPRESENTATION('material name',(#1171),#1919);
#1170=REPRESENTATION('density',(#1166),#1919);
#1171=DESCRIPTIVE_REPRESENTATION_ITEM('Nylon 6','Nylon 6');
#1172=PROPERTY_DEFINITION('material property','material name',#1929);
#1173=PROPERTY_DEFINITION('material property','density of part',#1929);
#1174=AXIS2_PLACEMENT_3D('placement',#1594,#1273,#1274);
#1175=AXIS2_PLACEMENT_3D('',#1595,#1275,#1276);
#1176=AXIS2_PLACEMENT_3D('',#1598,#1277,#1278);
#1177=AXIS2_PLACEMENT_3D('',#1602,#1280,#1281);
#1178=AXIS2_PLACEMENT_3D('',#1604,#1283,#1284);
#1179=AXIS2_PLACEMENT_3D('',#1608,#1286,#1287);
#1180=AXIS2_PLACEMENT_3D('',#1612,#1289,#1290);
#1181=AXIS2_PLACEMENT_3D('',#1616,#1292,#1293);
#1182=AXIS2_PLACEMENT_3D('',#1620,#1295,#1296);
#1183=AXIS2_PLACEMENT_3D('',#1624,#1298,#1299);
#1184=AXIS2_PLACEMENT_3D('',#1628,#1301,#1302);
#1185=AXIS2_PLACEMENT_3D('',#1632,#1304,#1305);
#1186=AXIS2_PLACEMENT_3D('',#1634,#1307,#1308);
#1187=AXIS2_PLACEMENT_3D('',#1638,#1311,#1312);
#1188=AXIS2_PLACEMENT_3D('',#1640,#1313,#1314);
#1189=AXIS2_PLACEMENT_3D('',#1642,#1316,#1317);
#1190=AXIS2_PLACEMENT_3D('',#1645,#1318,#1319);
#1191=AXIS2_PLACEMENT_3D('',#1648,#1322,#1323);
#1192=AXIS2_PLACEMENT_3D('',#1652,#1326,#1327);
#1193=AXIS2_PLACEMENT_3D('',#1654,#1328,#1329);
#1194=AXIS2_PLACEMENT_3D('',#1656,#1331,#1332);
#1195=AXIS2_PLACEMENT_3D('',#1659,#1333,#1334);
#1196=AXIS2_PLACEMENT_3D('',#1662,#1337,#1338);
#1197=AXIS2_PLACEMENT_3D('',#1666,#1341,#1342);
#1198=AXIS2_PLACEMENT_3D('',#1668,#1343,#1344);
#1199=AXIS2_PLACEMENT_3D('',#1670,#1346,#1347);
#1200=AXIS2_PLACEMENT_3D('',#1673,#1348,#1349);
#1201=AXIS2_PLACEMENT_3D('',#1676,#1352,#1353);
#1202=AXIS2_PLACEMENT_3D('',#1680,#1356,#1357);
#1203=AXIS2_PLACEMENT_3D('',#1682,#1358,#1359);
#1204=AXIS2_PLACEMENT_3D('',#1684,#1361,#1362);
#1205=AXIS2_PLACEMENT_3D('',#1686,#1364,#1365);
#1206=AXIS2_PLACEMENT_3D('',#1688,#1367,#1368);
#1207=AXIS2_PLACEMENT_3D('',#1690,#1370,#1371);
#1208=AXIS2_PLACEMENT_3D('',#1692,#1373,#1374);
#1209=AXIS2_PLACEMENT_3D('',#1694,#1375,#1376);
#1210=AXIS2_PLACEMENT_3D('',#1695,#1377,#1378);
#1211=AXIS2_PLACEMENT_3D('',#1697,#1379,#1380);
#1212=AXIS2_PLACEMENT_3D('',#1699,#1382,#1383);
#1213=AXIS2_PLACEMENT_3D('',#1701,#1384,#1385);
#1214=AXIS2_PLACEMENT_3D('',#1702,#1386,#1387);
#1215=AXIS2_PLACEMENT_3D('',#1704,#1389,#1390);
#1216=AXIS2_PLACEMENT_3D('',#1713,#1395,#1396);
#1217=AXIS2_PLACEMENT_3D('',#1719,#1400,#1401);
#1218=AXIS2_PLACEMENT_3D('',#1723,#1404,#1405);
#1219=AXIS2_PLACEMENT_3D('',#1727,#1408,#1409);
#1220=AXIS2_PLACEMENT_3D('',#1729,#1411,#1412);
#1221=AXIS2_PLACEMENT_3D('',#1730,#1413,#1414);
#1222=AXIS2_PLACEMENT_3D('',#1732,#1415,#1416);
#1223=AXIS2_PLACEMENT_3D('',#1735,#1417,#1418);
#1224=AXIS2_PLACEMENT_3D('',#1739,#1420,#1421);
#1225=AXIS2_PLACEMENT_3D('',#1743,#1423,#1424);
#1226=AXIS2_PLACEMENT_3D('',#1747,#1426,#1427);
#1227=AXIS2_PLACEMENT_3D('',#1749,#1429,#1430);
#1228=AXIS2_PLACEMENT_3D('',#1751,#1431,#1432);
#1229=AXIS2_PLACEMENT_3D('',#1752,#1433,#1434);
#1230=AXIS2_PLACEMENT_3D('',#1754,#1436,#1437);
#1231=AXIS2_PLACEMENT_3D('',#1757,#1438,#1439);
#1232=AXIS2_PLACEMENT_3D('',#1760,#1442,#1443);
#1233=AXIS2_PLACEMENT_3D('',#1764,#1446,#1447);
#1234=AXIS2_PLACEMENT_3D('',#1768,#1449,#1450);
#1235=AXIS2_PLACEMENT_3D('',#1772,#1452,#1453);
#1236=AXIS2_PLACEMENT_3D('',#1775,#1455,#1456);
#1237=AXIS2_PLACEMENT_3D('',#1776,#1457,#1458);
#1238=AXIS2_PLACEMENT_3D('',#1778,#1460,#1461);
#1239=AXIS2_PLACEMENT_3D('',#1780,#1463,#1464);
#1240=AXIS2_PLACEMENT_3D('',#1782,#1466,#1467);
#1241=AXIS2_PLACEMENT_3D('',#1784,#1469,#1470);
#1242=AXIS2_PLACEMENT_3D('',#1786,#1472,#1473);
#1243=AXIS2_PLACEMENT_3D('',#1787,#1474,#1475);
#1244=AXIS2_PLACEMENT_3D('',#1796,#1480,#1481);
#1245=AXIS2_PLACEMENT_3D('',#1802,#1485,#1486);
#1246=AXIS2_PLACEMENT_3D('',#1806,#1489,#1490);
#1247=AXIS2_PLACEMENT_3D('',#1810,#1493,#1494);
#1248=AXIS2_PLACEMENT_3D('',#1812,#1496,#1497);
#1249=AXIS2_PLACEMENT_3D('',#1813,#1498,#1499);
#1250=AXIS2_PLACEMENT_3D('',#1822,#1504,#1505);
#1251=AXIS2_PLACEMENT_3D('',#1828,#1509,#1510);
#1252=AXIS2_PLACEMENT_3D('',#1832,#1513,#1514);
#1253=AXIS2_PLACEMENT_3D('',#1836,#1517,#1518);
#1254=AXIS2_PLACEMENT_3D('',#1838,#1520,#1521);
#1255=AXIS2_PLACEMENT_3D('',#1839,#1522,#1523);
#1256=AXIS2_PLACEMENT_3D('',#1848,#1528,#1529);
#1257=AXIS2_PLACEMENT_3D('',#1854,#1533,#1534);
#1258=AXIS2_PLACEMENT_3D('',#1858,#1537,#1538);
#1259=AXIS2_PLACEMENT_3D('',#1862,#1541,#1542);
#1260=AXIS2_PLACEMENT_3D('',#1864,#1544,#1545);
#1261=AXIS2_PLACEMENT_3D('',#1865,#1546,#1547);
#1262=AXIS2_PLACEMENT_3D('',#1874,#1552,#1553);
#1263=AXIS2_PLACEMENT_3D('',#1880,#1557,#1558);
#1264=AXIS2_PLACEMENT_3D('',#1884,#1561,#1562);
#1265=AXIS2_PLACEMENT_3D('',#1888,#1565,#1566);
#1266=AXIS2_PLACEMENT_3D('',#1890,#1568,#1569);
#1267=AXIS2_PLACEMENT_3D('',#1891,#1570,#1571);
#1268=AXIS2_PLACEMENT_3D('',#1900,#1576,#1577);
#1269=AXIS2_PLACEMENT_3D('',#1906,#1581,#1582);
#1270=AXIS2_PLACEMENT_3D('',#1910,#1585,#1586);
#1271=AXIS2_PLACEMENT_3D('',#1914,#1589,#1590);
#1272=AXIS2_PLACEMENT_3D('',#1916,#1592,#1593);
#1273=DIRECTION('axis',(0.,0.,1.));
#1274=DIRECTION('refdir',(1.,0.,0.));
#1275=DIRECTION('center_axis',(0.,0.,1.));
#1276=DIRECTION('ref_axis',(-0.923879532511287,0.38268343236509,0.));
#1277=DIRECTION('center_axis',(0.,0.,-1.));
#1278=DIRECTION('ref_axis',(-0.923879532511287,0.38268343236509,0.));
#1279=DIRECTION('',(0.,0.,-1.));
#1280=DIRECTION('center_axis',(0.,0.,1.));
#1281=DIRECTION('ref_axis',(-0.923879532511287,0.38268343236509,0.));
#1282=DIRECTION('',(0.,0.,1.));
#1283=DIRECTION('center_axis',(0.,0.,1.));
#1284=DIRECTION('ref_axis',(1.,0.,0.));
#1285=DIRECTION('',(0.707106781186548,0.707106781186547,0.));
#1286=DIRECTION('center_axis',(0.,0.,1.));
#1287=DIRECTION('ref_axis',(-0.38268343236509,0.923879532511287,0.));
#1288=DIRECTION('',(-1.,0.,0.));
#1289=DIRECTION('center_axis',(0.,0.,1.));
#1290=DIRECTION('ref_axis',(0.38268343236509,0.923879532511287,0.));
#1291=DIRECTION('',(0.707106781186547,-0.707106781186548,0.));
#1292=DIRECTION('center_axis',(0.,0.,1.));
#1293=DIRECTION('ref_axis',(0.923879532511287,0.38268343236509,0.));
#1294=DIRECTION('',(0.,1.,0.));
#1295=DIRECTION('center_axis',(0.,0.,1.));
#1296=DIRECTION('ref_axis',(0.923879532511287,-0.38268343236509,0.));
#1297=DIRECTION('',(-0.707106781186548,-0.707106781186547,0.));
#1298=DIRECTION('center_axis',(0.,0.,1.));
#1299=DIRECTION('ref_axis',(0.38268343236509,-0.923879532511287,0.));
#1300=DIRECTION('',(1.,0.,0.));
#1301=DIRECTION('center_axis',(0.,0.,1.));
#1302=DIRECTION('ref_axis',(-0.38268343236509,-0.923879532511287,0.));
#1303=DIRECTION('',(-0.707106781186548,0.707106781186548,0.));
#1304=DIRECTION('center_axis',(0.,0.,1.));
#1305=DIRECTION('ref_axis',(-0.923879532511287,-0.38268343236509,0.));
#1306=DIRECTION('',(0.,-1.,0.));
#1307=DIRECTION('center_axis',(-0.707106781186547,0.707106781186548,0.));
#1308=DIRECTION('ref_axis',(-0.707106781186548,-0.707106781186547,0.));
#1309=DIRECTION('',(-0.707106781186548,-0.707106781186547,0.));
#1310=DIRECTION('',(0.,0.,1.));
#1311=DIRECTION('center_axis',(0.,0.,1.));
#1312=DIRECTION('ref_axis',(-0.38268343236509,0.923879532511287,0.));
#1313=DIRECTION('center_axis',(0.,0.,-1.));
#1314=DIRECTION('ref_axis',(-0.38268343236509,0.923879532511287,0.));
#1315=DIRECTION('',(0.,0.,-1.));
#1316=DIRECTION('center_axis',(0.,0.,1.));
#1317=DIRECTION('ref_axis',(0.38268343236509,0.923879532511287,0.));
#1318=DIRECTION('center_axis',(0.,0.,-1.));
#1319=DIRECTION('ref_axis',(0.38268343236509,0.923879532511287,0.));
#1320=DIRECTION('',(0.,0.,-1.));
#1321=DIRECTION('',(0.,0.,1.));
#1322=DIRECTION('center_axis',(0.707106781186548,0.707106781186547,0.));
#1323=DIRECTION('ref_axis',(-0.707106781186547,0.707106781186548,0.));
#1324=DIRECTION('',(-0.707106781186547,0.707106781186548,0.));
#1325=DIRECTION('',(0.,0.,1.));
#1326=DIRECTION('center_axis',(0.,0.,1.));
#1327=DIRECTION('ref_axis',(0.923879532511287,0.38268343236509,0.));
#1328=DIRECTION('center_axis',(0.,0.,-1.));
#1329=DIRECTION('ref_axis',(0.923879532511287,0.38268343236509,0.));
#1330=DIRECTION('',(0.,0.,-1.));
#1331=DIRECTION('center_axis',(0.,0.,1.));
#1332=DIRECTION('ref_axis',(0.923879532511287,-0.38268343236509,0.));
#1333=DIRECTION('center_axis',(0.,0.,-1.));
#1334=DIRECTION('ref_axis',(0.923879532511287,-0.38268343236509,0.));
#1335=DIRECTION('',(0.,0.,-1.));
#1336=DIRECTION('',(0.,0.,1.));
#1337=DIRECTION('center_axis',(0.707106781186547,-0.707106781186548,0.));
#1338=DIRECTION('ref_axis',(0.707106781186548,0.707106781186547,0.));
#1339=DIRECTION('',(0.707106781186548,0.707106781186547,0.));
#1340=DIRECTION('',(0.,0.,1.));
#1341=DIRECTION('center_axis',(0.,0.,1.));
#1342=DIRECTION('ref_axis',(0.38268343236509,-0.923879532511287,0.));
#1343=DIRECTION('center_axis',(0.,0.,-1.));
#1344=DIRECTION('ref_axis',(0.38268343236509,-0.923879532511287,0.));
#1345=DIRECTION('',(0.,0.,-1.));
#1346=DIRECTION('center_axis',(0.,0.,1.));
#1347=DIRECTION('ref_axis',(-0.923879532511287,-0.38268343236509,0.));
#1348=DIRECTION('center_axis',(0.,0.,-1.));
#1349=DIRECTION('ref_axis',(-0.923879532511287,-0.38268343236509,0.));
#1350=DIRECTION('',(0.,0.,-1.));
#1351=DIRECTION('',(0.,0.,1.));
#1352=DIRECTION('center_axis',(-0.707106781186548,-0.707106781186548,0.));
#1353=DIRECTION('ref_axis',(0.707106781186548,-0.707106781186548,0.));
#1354=DIRECTION('',(0.,0.,-1.));
#1355=DIRECTION('',(0.707106781186548,-0.707106781186548,0.));
#1356=DIRECTION('center_axis',(0.,0.,1.));
#1357=DIRECTION('ref_axis',(-0.38268343236509,-0.923879532511287,0.));
#1358=DIRECTION('center_axis',(0.,0.,-1.));
#1359=DIRECTION('ref_axis',(-0.38268343236509,-0.923879532511287,0.));
#1360=DIRECTION('',(0.,0.,1.));
#1361=DIRECTION('center_axis',(0.,1.,0.));
#1362=DIRECTION('ref_axis',(-1.,0.,0.));
#1363=DIRECTION('',(-1.,0.,0.));
#1364=DIRECTION('center_axis',(1.,0.,0.));
#1365=DIRECTION('ref_axis',(0.,1.,0.));
#1366=DIRECTION('',(0.,1.,0.));
#1367=DIRECTION('center_axis',(0.,-1.,0.));
#1368=DIRECTION('ref_axis',(1.,0.,0.));
#1369=DIRECTION('',(1.,0.,0.));
#1370=DIRECTION('center_axis',(-1.,0.,0.));
#1371=DIRECTION('ref_axis',(0.,-1.,0.));
#1372=DIRECTION('',(0.,-1.,0.));
#1373=DIRECTION('center_axis',(0.,0.,1.));
#1374=DIRECTION('ref_axis',(1.,0.,0.));
#1375=DIRECTION('center_axis',(0.,0.,-1.));
#1376=DIRECTION('ref_axis',(-1.,0.,0.));
#1377=DIRECTION('center_axis',(0.,0.,1.));
#1378=DIRECTION('ref_axis',(-1.,0.,0.));
#1379=DIRECTION('center_axis',(0.,0.,1.));
#1380=DIRECTION('ref_axis',(-1.,0.,0.));
#1381=DIRECTION('',(0.,0.,-1.));
#1382=DIRECTION('center_axis',(0.,0.,1.));
#1383=DIRECTION('ref_axis',(-1.,0.,0.));
#1384=DIRECTION('center_axis',(0.,0.,-1.));
#1385=DIRECTION('ref_axis',(-1.,0.,0.));
#1386=DIRECTION('center_axis',(0.,0.,-1.));
#1387=DIRECTION('ref_axis',(-1.,0.,0.));
#1388=DIRECTION('',(0.707106781186547,8.65956056235493E-17,-0.707106781186547));
#1389=DIRECTION('center_axis',(0.,0.,-1.));
#1390=DIRECTION('ref_axis',(-1.,0.,0.));
#1391=DIRECTION('',(-1.,0.,0.));
#1392=DIRECTION('',(0.,1.,0.));
#1393=DIRECTION('',(1.,0.,0.));
#1394=DIRECTION('',(0.,-1.,0.));
#1395=DIRECTION('center_axis',(-1.,0.,0.));
#1396=DIRECTION('ref_axis',(0.,-1.,0.));
#1397=DIRECTION('',(0.,0.,-1.));
#1398=DIRECTION('',(0.,-1.,0.));
#1399=DIRECTION('',(0.,0.,-1.));
#1400=DIRECTION('center_axis',(0.,1.,0.));
#1401=DIRECTION('ref_axis',(-1.,0.,0.));
#1402=DIRECTION('',(-1.,0.,0.));
#1403=DIRECTION('',(0.,0.,-1.));
#1404=DIRECTION('center_axis',(1.,0.,0.));
#1405=DIRECTION('ref_axis',(0.,1.,0.));
#1406=DIRECTION('',(0.,1.,0.));
#1407=DIRECTION('',(0.,0.,1.));
#1408=DIRECTION('center_axis',(0.,-1.,0.));
#1409=DIRECTION('ref_axis',(1.,0.,0.));
#1410=DIRECTION('',(1.,0.,0.));
#1411=DIRECTION('center_axis',(0.,0.,1.));
#1412=DIRECTION('ref_axis',(1.,0.,0.));
#1413=DIRECTION('center_axis',(0.,0.,1.));
#1414=DIRECTION('ref_axis',(-1.,0.,0.));
#1415=DIRECTION('center_axis',(0.,0.,1.));
#1416=DIRECTION('ref_axis',(-1.,0.,0.));
#1417=DIRECTION('center_axis',(0.,0.,-1.));
#1418=DIRECTION('ref_axis',(-1.,0.,0.));
#1419=DIRECTION('',(0.707106781186548,0.707106781186548,0.));
#1420=DIRECTION('center_axis',(0.,0.,-1.));
#1421=DIRECTION('ref_axis',(0.,1.,0.));
#1422=DIRECTION('',(0.707106781186548,-0.707106781186548,0.));
#1423=DIRECTION('center_axis',(0.,0.,-1.));
#1424=DIRECTION('ref_axis',(1.,0.,0.));
#1425=DIRECTION('',(-0.707106781186548,-0.707106781186548,0.));
#1426=DIRECTION('center_axis',(0.,0.,-1.));
#1427=DIRECTION('ref_axis',(0.,-1.,0.));
#1428=DIRECTION('',(-0.707106781186548,0.707106781186548,0.));
#1429=DIRECTION('center_axis',(0.,0.,1.));
#1430=DIRECTION('ref_axis',(1.,0.,0.));
#1431=DIRECTION('center_axis',(0.,0.,-1.));
#1432=DIRECTION('ref_axis',(-1.,0.,0.));
#1433=DIRECTION('center_axis',(0.,0.,1.));
#1434=DIRECTION('ref_axis',(-1.,0.,0.));
#1435=DIRECTION('',(0.,0.,-1.));
#1436=DIRECTION('center_axis',(0.,0.,1.));
#1437=DIRECTION('ref_axis',(-1.,0.,0.));
#1438=DIRECTION('center_axis',(0.,0.,-1.));
#1439=DIRECTION('ref_axis',(-1.,0.,0.));
#1440=DIRECTION('',(0.,0.,-1.));
#1441=DIRECTION('',(0.,0.,1.));
#1442=DIRECTION('center_axis',(-0.707106781186548,0.707106781186548,0.));
#1443=DIRECTION('ref_axis',(-0.707106781186548,-0.707106781186548,0.));
#1444=DIRECTION('',(-0.707106781186547,-0.707106781186547,0.));
#1445=DIRECTION('',(0.,0.,1.));
#1446=DIRECTION('center_axis',(0.,0.,1.));
#1447=DIRECTION('ref_axis',(1.,0.,0.));
#1448=DIRECTION('',(0.707106781186547,-0.707106781186547,0.));
#1449=DIRECTION('center_axis',(0.,0.,-1.));
#1450=DIRECTION('ref_axis',(0.,-1.,0.));
#1451=DIRECTION('',(0.707106781186547,0.707106781186547,0.));
#1452=DIRECTION('center_axis',(0.,0.,-1.));
#1453=DIRECTION('ref_axis',(1.,0.,0.));
#1454=DIRECTION('',(-0.707106781186547,0.707106781186547,0.));
#1455=DIRECTION('center_axis',(0.,0.,-1.));
#1456=DIRECTION('ref_axis',(0.,1.,0.));
#1457=DIRECTION('center_axis',(0.,0.,1.));
#1458=DIRECTION('ref_axis',(0.,1.,0.));
#1459=DIRECTION('',(0.,0.,-1.));
#1460=DIRECTION('center_axis',(0.707106781186548,0.707106781186548,0.));
#1461=DIRECTION('ref_axis',(-0.707106781186548,0.707106781186548,0.));
#1462=DIRECTION('',(0.,0.,1.));
#1463=DIRECTION('center_axis',(0.,0.,1.));
#1464=DIRECTION('ref_axis',(1.,0.,0.));
#1465=DIRECTION('',(0.,0.,-1.));
#1466=DIRECTION('center_axis',(0.707106781186548,-0.707106781186548,0.));
#1467=DIRECTION('ref_axis',(0.707106781186548,0.707106781186548,0.));
#1468=DIRECTION('',(0.,0.,1.));
#1469=DIRECTION('center_axis',(0.,0.,1.));
#1470=DIRECTION('ref_axis',(0.,-1.,0.));
#1471=DIRECTION('',(0.,0.,-1.));
#1472=DIRECTION('center_axis',(-0.707106781186548,-0.707106781186548,0.));
#1473=DIRECTION('ref_axis',(0.707106781186548,-0.707106781186548,0.));
#1474=DIRECTION('center_axis',(0.,0.,1.));
#1475=DIRECTION('ref_axis',(1.,0.,0.));
#1476=DIRECTION('',(1.,0.,0.));
#1477=DIRECTION('',(0.,-1.,0.));
#1478=DIRECTION('',(-1.,0.,0.));
#1479=DIRECTION('',(0.,1.,0.));
#1480=DIRECTION('center_axis',(-1.,0.,0.));
#1481=DIRECTION('ref_axis',(0.,-1.,0.));
#1482=DIRECTION('',(0.,0.,-1.));
#1483=DIRECTION('',(0.,0.,-1.));
#1484=DIRECTION('',(0.,-1.,0.));
#1485=DIRECTION('center_axis',(0.,-1.,0.));
#1486=DIRECTION('ref_axis',(1.,0.,0.));
#1487=DIRECTION('',(0.,0.,-1.));
#1488=DIRECTION('',(1.,0.,0.));
#1489=DIRECTION('center_axis',(1.,0.,0.));
#1490=DIRECTION('ref_axis',(0.,1.,0.));
#1491=DIRECTION('',(0.,0.,1.));
#1492=DIRECTION('',(0.,1.,0.));
#1493=DIRECTION('center_axis',(0.,1.,0.));
#1494=DIRECTION('ref_axis',(-1.,0.,0.));
#1495=DIRECTION('',(-1.,0.,0.));
#1496=DIRECTION('center_axis',(0.,0.,-1.));
#1497=DIRECTION('ref_axis',(-1.,0.,0.));
#1498=DIRECTION('center_axis',(0.,0.,1.));
#1499=DIRECTION('ref_axis',(1.,0.,0.));
#1500=DIRECTION('',(1.,0.,0.));
#1501=DIRECTION('',(0.,-1.,0.));
#1502=DIRECTION('',(-1.,0.,0.));
#1503=DIRECTION('',(0.,1.,0.));
#1504=DIRECTION('center_axis',(-1.,0.,0.));
#1505=DIRECTION('ref_axis',(0.,-1.,0.));
#1506=DIRECTION('',(0.,0.,-1.));
#1507=DIRECTION('',(0.,0.,-1.));
#1508=DIRECTION('',(0.,-1.,0.));
#1509=DIRECTION('center_axis',(0.,-1.,0.));
#1510=DIRECTION('ref_axis',(1.,0.,0.));
#1511=DIRECTION('',(0.,0.,-1.));
#1512=DIRECTION('',(1.,0.,0.));
#1513=DIRECTION('center_axis',(1.,0.,0.));
#1514=DIRECTION('ref_axis',(0.,1.,0.));
#1515=DIRECTION('',(0.,0.,1.));
#1516=DIRECTION('',(0.,1.,0.));
#1517=DIRECTION('center_axis',(0.,1.,0.));
#1518=DIRECTION('ref_axis',(-1.,0.,0.));
#1519=DIRECTION('',(-1.,0.,0.));
#1520=DIRECTION('center_axis',(0.,0.,-1.));
#1521=DIRECTION('ref_axis',(-1.,0.,0.));
#1522=DIRECTION('center_axis',(0.,0.,1.));
#1523=DIRECTION('ref_axis',(1.,0.,0.));
#1524=DIRECTION('',(1.,0.,0.));
#1525=DIRECTION('',(0.,-1.,0.));
#1526=DIRECTION('',(-1.,0.,0.));
#1527=DIRECTION('',(0.,1.,0.));
#1528=DIRECTION('center_axis',(-1.,0.,0.));
#1529=DIRECTION('ref_axis',(0.,-1.,0.));
#1530=DIRECTION('',(0.,0.,-1.));
#1531=DIRECTION('',(0.,0.,-1.));
#1532=DIRECTION('',(0.,-1.,0.));
#1533=DIRECTION('center_axis',(0.,-1.,0.));
#1534=DIRECTION('ref_axis',(1.,0.,0.));
#1535=DIRECTION('',(0.,0.,-1.));
#1536=DIRECTION('',(1.,0.,0.));
#1537=DIRECTION('center_axis',(1.,0.,0.));
#1538=DIRECTION('ref_axis',(0.,1.,0.));
#1539=DIRECTION('',(0.,0.,1.));
#1540=DIRECTION('',(0.,1.,0.));
#1541=DIRECTION('center_axis',(0.,1.,0.));
#1542=DIRECTION('ref_axis',(-1.,0.,0.));
#1543=DIRECTION('',(-1.,0.,0.));
#1544=DIRECTION('center_axis',(0.,0.,-1.));
#1545=DIRECTION('ref_axis',(-1.,0.,0.));
#1546=DIRECTION('center_axis',(0.,0.,-1.));
#1547=DIRECTION('ref_axis',(-1.,0.,0.));
#1548=DIRECTION('',(-1.,0.,0.));
#1549=DIRECTION('',(0.,1.,0.));
#1550=DIRECTION('',(1.,0.,0.));
#1551=DIRECTION('',(0.,-1.,0.));
#1552=DIRECTION('center_axis',(-1.,0.,0.));
#1553=DIRECTION('ref_axis',(0.,-1.,0.));
#1554=DIRECTION('',(0.,0.,-1.));
#1555=DIRECTION('',(0.,-1.,0.));
#1556=DIRECTION('',(0.,0.,-1.));
#1557=DIRECTION('center_axis',(0.,1.,0.));
#1558=DIRECTION('ref_axis',(-1.,0.,0.));
#1559=DIRECTION('',(-1.,0.,0.));
#1560=DIRECTION('',(0.,0.,-1.));
#1561=DIRECTION('center_axis',(1.,0.,0.));
#1562=DIRECTION('ref_axis',(0.,1.,0.));
#1563=DIRECTION('',(0.,1.,0.));
#1564=DIRECTION('',(0.,0.,1.));
#1565=DIRECTION('center_axis',(0.,-1.,0.));
#1566=DIRECTION('ref_axis',(1.,0.,0.));
#1567=DIRECTION('',(1.,0.,0.));
#1568=DIRECTION('center_axis',(0.,0.,1.));
#1569=DIRECTION('ref_axis',(1.,0.,0.));
#1570=DIRECTION('center_axis',(0.,0.,-1.));
#1571=DIRECTION('ref_axis',(-1.,0.,0.));
#1572=DIRECTION('',(-1.,0.,0.));
#1573=DIRECTION('',(0.,1.,0.));
#1574=DIRECTION('',(1.,0.,0.));
#1575=DIRECTION('',(0.,-1.,0.));
#1576=DIRECTION('center_axis',(-1.,0.,0.));
#1577=DIRECTION('ref_axis',(0.,-1.,0.));
#1578=DIRECTION('',(0.,0.,-1.));
#1579=DIRECTION('',(0.,-1.,0.));
#1580=DIRECTION('',(0.,0.,-1.));
#1581=DIRECTION('center_axis',(0.,1.,0.));
#1582=DIRECTION('ref_axis',(-1.,0.,0.));
#1583=DIRECTION('',(-1.,0.,0.));
#1584=DIRECTION('',(0.,0.,-1.));
#1585=DIRECTION('center_axis',(1.,0.,0.));
#1586=DIRECTION('ref_axis',(0.,1.,0.));
#1587=DIRECTION('',(0.,1.,0.));
#1588=DIRECTION('',(0.,0.,1.));
#1589=DIRECTION('center_axis',(0.,-1.,0.));
#1590=DIRECTION('ref_axis',(1.,0.,0.));
#1591=DIRECTION('',(1.,0.,0.));
#1592=DIRECTION('center_axis',(0.,0.,1.));
#1593=DIRECTION('ref_axis',(1.,0.,0.));
#1594=CARTESIAN_POINT('',(0.,0.,0.));
#1595=CARTESIAN_POINT('Origin',(-3.15,2.25789321881345,0.));
#1596=CARTESIAN_POINT('',(-3.65,2.25789321881345,1.8));
#1597=CARTESIAN_POINT('',(-3.50355339059327,2.61144660940673,1.8));
#1598=CARTESIAN_POINT('Origin',(-3.15,2.25789321881345,1.8));
#1599=CARTESIAN_POINT('',(-3.50355339059327,2.61144660940673,0.));
#1600=CARTESIAN_POINT('',(-3.50355339059327,2.61144660940673,0.));
#1601=CARTESIAN_POINT('',(-3.65,2.25789321881345,0.));
#1602=CARTESIAN_POINT('Origin',(-3.15,2.25789321881345,0.));
#1603=CARTESIAN_POINT('',(-3.65,2.25789321881345,0.));
#1604=CARTESIAN_POINT('Origin',(5.55111512312578E-16,-5.55111512312578E-16,
0.));
#1605=CARTESIAN_POINT('',(-2.61144660940673,3.50355339059327,0.));
#1606=CARTESIAN_POINT('',(-3.65,2.465,0.));
#1607=CARTESIAN_POINT('',(-2.25789321881345,3.65,0.));
#1608=CARTESIAN_POINT('Origin',(-2.25789321881345,3.15,0.));
#1609=CARTESIAN_POINT('',(2.25789321881345,3.65,0.));
#1610=CARTESIAN_POINT('',(3.65,3.65,0.));
#1611=CARTESIAN_POINT('',(2.61144660940673,3.50355339059327,0.));
#1612=CARTESIAN_POINT('Origin',(2.25789321881345,3.15,0.));
#1613=CARTESIAN_POINT('',(3.50355339059327,2.61144660940673,0.));
#1614=CARTESIAN_POINT('',(2.465,3.65,0.));
#1615=CARTESIAN_POINT('',(3.65,2.25789321881345,0.));
#1616=CARTESIAN_POINT('Origin',(3.15,2.25789321881345,0.));
#1617=CARTESIAN_POINT('',(3.65,-2.25789321881345,0.));
#1618=CARTESIAN_POINT('',(3.65,-3.65,0.));
#1619=CARTESIAN_POINT('',(3.50355339059327,-2.61144660940673,0.));
#1620=CARTESIAN_POINT('Origin',(3.15,-2.25789321881345,0.));
#1621=CARTESIAN_POINT('',(2.61144660940673,-3.50355339059327,0.));
#1622=CARTESIAN_POINT('',(3.65,-2.465,0.));
#1623=CARTESIAN_POINT('',(2.25789321881345,-3.65,0.));
#1624=CARTESIAN_POINT('Origin',(2.25789321881345,-3.15,0.));
#1625=CARTESIAN_POINT('',(-2.25789321881346,-3.65,0.));
#1626=CARTESIAN_POINT('',(-3.65,-3.65,0.));
#1627=CARTESIAN_POINT('',(-2.61144660940673,-3.50355339059327,0.));
#1628=CARTESIAN_POINT('Origin',(-2.25789321881346,-3.15,0.));
#1629=CARTESIAN_POINT('',(-3.50355339059327,-2.61144660940673,0.));
#1630=CARTESIAN_POINT('',(-2.465,-3.65,0.));
#1631=CARTESIAN_POINT('',(-3.65,-2.25789321881345,0.));
#1632=CARTESIAN_POINT('Origin',(-3.15,-2.25789321881345,0.));
#1633=CARTESIAN_POINT('',(-3.65,3.65,0.));
#1634=CARTESIAN_POINT('Origin',(-2.465,3.65,0.));
#1635=CARTESIAN_POINT('',(-2.61144660940673,3.50355339059327,1.8));
#1636=CARTESIAN_POINT('',(-3.65,2.465,1.8));
#1637=CARTESIAN_POINT('',(-2.61144660940673,3.50355339059327,0.));
#1638=CARTESIAN_POINT('Origin',(-2.25789321881345,3.15,0.));
#1639=CARTESIAN_POINT('',(-2.25789321881345,3.65,1.8));
#1640=CARTESIAN_POINT('Origin',(-2.25789321881345,3.15,1.8));
#1641=CARTESIAN_POINT('',(-2.25789321881345,3.65,0.));
#1642=CARTESIAN_POINT('Origin',(2.25789321881345,3.15,0.));
#1643=CARTESIAN_POINT('',(2.25789321881345,3.65,1.8));
#1644=CARTESIAN_POINT('',(2.61144660940673,3.50355339059327,1.8));
#1645=CARTESIAN_POINT('Origin',(2.25789321881345,3.15,1.8));
#1646=CARTESIAN_POINT('',(2.61144660940673,3.50355339059327,0.));
#1647=CARTESIAN_POINT('',(2.25789321881345,3.65,0.));
#1648=CARTESIAN_POINT('Origin',(3.65,2.465,0.));
#1649=CARTESIAN_POINT('',(3.50355339059327,2.61144660940673,1.8));
#1650=CARTESIAN_POINT('',(2.465,3.65,1.8));
#1651=CARTESIAN_POINT('',(3.50355339059327,2.61144660940673,0.));
#1652=CARTESIAN_POINT('Origin',(3.15,2.25789321881345,0.));
#1653=CARTESIAN_POINT('',(3.65,2.25789321881345,1.8));
#1654=CARTESIAN_POINT('Origin',(3.15,2.25789321881345,1.8));
#1655=CARTESIAN_POINT('',(3.65,2.25789321881345,0.));
#1656=CARTESIAN_POINT('Origin',(3.15,-2.25789321881345,0.));
#1657=CARTESIAN_POINT('',(3.65,-2.25789321881345,1.8));
#1658=CARTESIAN_POINT('',(3.50355339059327,-2.61144660940673,1.8));
#1659=CARTESIAN_POINT('Origin',(3.15,-2.25789321881345,1.8));
#1660=CARTESIAN_POINT('',(3.50355339059327,-2.61144660940673,0.));
#1661=CARTESIAN_POINT('',(3.65,-2.25789321881345,0.));
#1662=CARTESIAN_POINT('Origin',(2.465,-3.65,0.));
#1663=CARTESIAN_POINT('',(2.61144660940673,-3.50355339059327,1.8));
#1664=CARTESIAN_POINT('',(3.65,-2.465,1.8));
#1665=CARTESIAN_POINT('',(2.61144660940673,-3.50355339059327,0.));
#1666=CARTESIAN_POINT('Origin',(2.25789321881345,-3.15,0.));
#1667=CARTESIAN_POINT('',(2.25789321881345,-3.65,1.8));
#1668=CARTESIAN_POINT('Origin',(2.25789321881345,-3.15,1.8));
#1669=CARTESIAN_POINT('',(2.25789321881345,-3.65,0.));
#1670=CARTESIAN_POINT('Origin',(-3.15,-2.25789321881345,0.));
#1671=CARTESIAN_POINT('',(-3.50355339059327,-2.61144660940673,1.8));
#1672=CARTESIAN_POINT('',(-3.65,-2.25789321881345,1.8));
#1673=CARTESIAN_POINT('Origin',(-3.15,-2.25789321881345,1.8));
#1674=CARTESIAN_POINT('',(-3.65,-2.25789321881345,0.));
#1675=CARTESIAN_POINT('',(-3.50355339059327,-2.61144660940673,0.));
#1676=CARTESIAN_POINT('Origin',(-3.65,-2.465,0.));
#1677=CARTESIAN_POINT('',(-2.61144660940673,-3.50355339059327,1.8));
#1678=CARTESIAN_POINT('',(-2.61144660940673,-3.50355339059327,0.));
#1679=CARTESIAN_POINT('',(-2.465,-3.65,1.8));
#1680=CARTESIAN_POINT('Origin',(-2.25789321881346,-3.15,0.));
#1681=CARTESIAN_POINT('',(-2.25789321881346,-3.65,1.8));
#1682=CARTESIAN_POINT('Origin',(-2.25789321881346,-3.15,1.8));
#1683=CARTESIAN_POINT('',(-2.25789321881346,-3.65,0.));
#1684=CARTESIAN_POINT('Origin',(2.465,3.65,0.));
#1685=CARTESIAN_POINT('',(3.65,3.65,1.8));
#1686=CARTESIAN_POINT('Origin',(3.65,-2.465,0.));
#1687=CARTESIAN_POINT('',(3.65,-3.65,1.8));
#1688=CARTESIAN_POINT('Origin',(-2.465,-3.65,0.));
#1689=CARTESIAN_POINT('',(-3.65,-3.65,1.8));
#1690=CARTESIAN_POINT('Origin',(-3.65,2.465,0.));
#1691=CARTESIAN_POINT('',(-3.65,3.65,1.8));
#1692=CARTESIAN_POINT('Origin',(5.55111512312578E-16,-5.55111512312578E-16,
1.8));
#1693=CARTESIAN_POINT('',(1.9,2.32682891837997E-16,1.8));
#1694=CARTESIAN_POINT('Origin',(0.,0.,1.8));
#1695=CARTESIAN_POINT('Origin',(0.,0.,1.8));
#1696=CARTESIAN_POINT('',(1.9,2.32682891837997E-16,1.85));
#1697=CARTESIAN_POINT('Origin',(0.,0.,1.85));
#1698=CARTESIAN_POINT('',(1.9,2.32682891837997E-16,1.8));
#1699=CARTESIAN_POINT('Origin',(0.,0.,2.1));
#1700=CARTESIAN_POINT('',(1.65,-2.02066721859313E-16,2.1));
#1701=CARTESIAN_POINT('Origin',(0.,0.,2.1));
#1702=CARTESIAN_POINT('Origin',(0.,0.,1.975));
#1703=CARTESIAN_POINT('',(1.775,2.17374806848655E-16,1.975));
#1704=CARTESIAN_POINT('Origin',(3.4,1.4,-0.1));
#1705=CARTESIAN_POINT('',(3.85,1.05,-0.1));
#1706=CARTESIAN_POINT('',(2.95,1.05,-0.1));
#1707=CARTESIAN_POINT('',(3.65,1.05,-0.1));
#1708=CARTESIAN_POINT('',(2.95,1.75,-0.1));
#1709=CARTESIAN_POINT('',(2.95,1.05,-0.1));
#1710=CARTESIAN_POINT('',(3.85,1.75,-0.1));
#1711=CARTESIAN_POINT('',(2.95,1.75,-0.1));
#1712=CARTESIAN_POINT('',(3.85,1.05,-0.1));
#1713=CARTESIAN_POINT('Origin',(2.95,1.75,0.));
#1714=CARTESIAN_POINT('',(2.95,1.05,1.));
#1715=CARTESIAN_POINT('',(2.95,1.05,0.));
#1716=CARTESIAN_POINT('',(2.95,1.75,1.));
#1717=CARTESIAN_POINT('',(2.95,1.05,1.));
#1718=CARTESIAN_POINT('',(2.95,1.75,0.));
#1719=CARTESIAN_POINT('Origin',(3.85,1.75,0.));
#1720=CARTESIAN_POINT('',(3.85,1.75,1.));
#1721=CARTESIAN_POINT('',(2.95,1.75,1.));
#1722=CARTESIAN_POINT('',(3.85,1.75,0.));
#1723=CARTESIAN_POINT('Origin',(3.85,1.05,0.));
#1724=CARTESIAN_POINT('',(3.85,1.05,1.));
#1725=CARTESIAN_POINT('',(3.85,1.05,1.));
#1726=CARTESIAN_POINT('',(3.85,1.05,0.));
#1727=CARTESIAN_POINT('Origin',(2.95,1.05,0.));
#1728=CARTESIAN_POINT('',(3.65,1.05,1.));
#1729=CARTESIAN_POINT('Origin',(3.4,1.4,1.));
#1730=CARTESIAN_POINT('Origin',(0.,0.,3.));
#1731=CARTESIAN_POINT('',(1.5,1.83697019872103E-16,3.));
#1732=CARTESIAN_POINT('Origin',(0.,0.,3.));
#1733=CARTESIAN_POINT('',(-1.1667261889578,0.212132034355965,3.));
#1734=CARTESIAN_POINT('',(-1.1667261889578,-0.212132034355964,3.));
#1735=CARTESIAN_POINT('Origin',(-0.954594154601839,6.93889390390723E-17,
3.));
#1736=CARTESIAN_POINT('',(-0.212132034355964,1.1667261889578,3.));
#1737=CARTESIAN_POINT('',(-0.344714555828442,1.03414366748533,3.));
#1738=CARTESIAN_POINT('',(0.212132034355965,1.1667261889578,3.));
#1739=CARTESIAN_POINT('Origin',(6.93889390390723E-17,0.954594154601839,
3.));
#1740=CARTESIAN_POINT('',(1.1667261889578,0.212132034355964,3.));
#1741=CARTESIAN_POINT('',(1.03414366748533,0.344714555828442,3.));
#1742=CARTESIAN_POINT('',(1.1667261889578,-0.212132034355965,3.));
#1743=CARTESIAN_POINT('Origin',(0.954594154601839,-6.93889390390723E-17,
3.));
#1744=CARTESIAN_POINT('',(0.212132034355964,-1.1667261889578,3.));
#1745=CARTESIAN_POINT('',(0.344714555828442,-1.03414366748533,3.));
#1746=CARTESIAN_POINT('',(-0.212132034355965,-1.1667261889578,3.));
#1747=CARTESIAN_POINT('Origin',(-6.93889390390723E-17,-0.954594154601839,
3.));
#1748=CARTESIAN_POINT('',(-1.03414366748533,-0.344714555828442,3.));
#1749=CARTESIAN_POINT('Origin',(0.,0.,2.1));
#1750=CARTESIAN_POINT('',(1.5,1.83697019872103E-16,2.1));
#1751=CARTESIAN_POINT('Origin',(0.,0.,2.1));
#1752=CARTESIAN_POINT('Origin',(0.,0.,2.1));
#1753=CARTESIAN_POINT('',(1.5,1.83697019872103E-16,2.1));
#1754=CARTESIAN_POINT('Origin',(-0.954594154601839,6.93889390390723E-17,
3.));
#1755=CARTESIAN_POINT('',(-1.1667261889578,-0.212132034355964,6.));
#1756=CARTESIAN_POINT('',(-1.1667261889578,0.212132034355964,6.));
#1757=CARTESIAN_POINT('Origin',(-0.954594154601839,6.93889390390723E-17,
6.));
#1758=CARTESIAN_POINT('',(-1.1667261889578,0.212132034355964,3.));
#1759=CARTESIAN_POINT('',(-1.1667261889578,-0.212132034355964,3.));
#1760=CARTESIAN_POINT('Origin',(0.,1.37885822331377,3.));
#1761=CARTESIAN_POINT('',(-0.212132034355964,1.1667261889578,6.));
#1762=CARTESIAN_POINT('',(-1.37885822331377,0.,6.));
#1763=CARTESIAN_POINT('',(-0.212132034355964,1.1667261889578,3.));
#1764=CARTESIAN_POINT('Origin',(0.,0.,6.));
#1765=CARTESIAN_POINT('',(-0.212132034355964,-1.1667261889578,6.));
#1766=CARTESIAN_POINT('',(0.,-1.37885822331377,6.));
#1767=CARTESIAN_POINT('',(0.212132034355964,-1.1667261889578,6.));
#1768=CARTESIAN_POINT('Origin',(-6.93889390390723E-17,-0.954594154601839,
6.));
#1769=CARTESIAN_POINT('',(1.1667261889578,-0.212132034355964,6.));
#1770=CARTESIAN_POINT('',(1.37885822331377,0.,6.));
#1771=CARTESIAN_POINT('',(1.1667261889578,0.212132034355964,6.));
#1772=CARTESIAN_POINT('Origin',(0.954594154601839,-6.93889390390723E-17,
6.));
#1773=CARTESIAN_POINT('',(0.212132034355964,1.1667261889578,6.));
#1774=CARTESIAN_POINT('',(0.,1.37885822331377,6.));
#1775=CARTESIAN_POINT('Origin',(6.93889390390723E-17,0.954594154601839,
6.));
#1776=CARTESIAN_POINT('Origin',(6.93889390390723E-17,0.954594154601839,
3.));
#1777=CARTESIAN_POINT('',(0.212132034355964,1.1667261889578,3.));
#1778=CARTESIAN_POINT('Origin',(1.37885822331377,0.,3.));
#1779=CARTESIAN_POINT('',(1.1667261889578,0.212132034355964,3.));
#1780=CARTESIAN_POINT('Origin',(0.954594154601839,-6.93889390390723E-17,
3.));
#1781=CARTESIAN_POINT('',(1.1667261889578,-0.212132034355964,3.));
#1782=CARTESIAN_POINT('Origin',(0.,-1.37885822331377,3.));
#1783=CARTESIAN_POINT('',(0.212132034355964,-1.1667261889578,3.));
#1784=CARTESIAN_POINT('Origin',(-6.93889390390723E-17,-0.954594154601839,
3.));
#1785=CARTESIAN_POINT('',(-0.212132034355964,-1.1667261889578,3.));
#1786=CARTESIAN_POINT('Origin',(-1.37885822331377,0.,3.));
#1787=CARTESIAN_POINT('Origin',(-3.4,1.4,-0.1));
#1788=CARTESIAN_POINT('',(-3.85,1.05,-0.1));
#1789=CARTESIAN_POINT('',(-2.95,1.05,-0.1));
#1790=CARTESIAN_POINT('',(-3.65,1.05,-0.1));
#1791=CARTESIAN_POINT('',(-3.85,1.75,-0.1));
#1792=CARTESIAN_POINT('',(-3.85,1.05,-0.1));
#1793=CARTESIAN_POINT('',(-2.95,1.75,-0.1));
#1794=CARTESIAN_POINT('',(-2.95,1.75,-0.1));
#1795=CARTESIAN_POINT('',(-2.95,1.05,-0.1));
#1796=CARTESIAN_POINT('Origin',(-2.95,1.75,0.));
#1797=CARTESIAN_POINT('',(-2.95,1.05,1.));
#1798=CARTESIAN_POINT('',(-2.95,1.05,0.));
#1799=CARTESIAN_POINT('',(-2.95,1.75,1.));
#1800=CARTESIAN_POINT('',(-2.95,1.75,0.));
#1801=CARTESIAN_POINT('',(-2.95,1.05,1.));
#1802=CARTESIAN_POINT('Origin',(-3.85,1.75,0.));
#1803=CARTESIAN_POINT('',(-3.85,1.75,1.));
#1804=CARTESIAN_POINT('',(-3.85,1.75,0.));
#1805=CARTESIAN_POINT('',(-2.95,1.75,1.));
#1806=CARTESIAN_POINT('Origin',(-3.85,1.05,0.));
#1807=CARTESIAN_POINT('',(-3.85,1.05,1.));
#1808=CARTESIAN_POINT('',(-3.85,1.05,0.));
#1809=CARTESIAN_POINT('',(-3.85,1.05,1.));
#1810=CARTESIAN_POINT('Origin',(-2.95,1.05,0.));
#1811=CARTESIAN_POINT('',(-3.65,1.05,1.));
#1812=CARTESIAN_POINT('Origin',(-3.4,1.4,1.));
#1813=CARTESIAN_POINT('Origin',(-3.4,-1.4,-0.1));
#1814=CARTESIAN_POINT('',(-3.85,-1.75,-0.1));
#1815=CARTESIAN_POINT('',(-2.95,-1.75,-0.1));
#1816=CARTESIAN_POINT('',(-3.65,-1.75,-0.1));
#1817=CARTESIAN_POINT('',(-3.85,-1.05,-0.1));
#1818=CARTESIAN_POINT('',(-3.85,-1.75,-0.1));
#1819=CARTESIAN_POINT('',(-2.95,-1.05,-0.1));
#1820=CARTESIAN_POINT('',(-2.95,-1.05,-0.1));
#1821=CARTESIAN_POINT('',(-2.95,-1.75,-0.1));
#1822=CARTESIAN_POINT('Origin',(-2.95,-1.05,0.));
#1823=CARTESIAN_POINT('',(-2.95,-1.75,1.));
#1824=CARTESIAN_POINT('',(-2.95,-1.75,0.));
#1825=CARTESIAN_POINT('',(-2.95,-1.05,1.));
#1826=CARTESIAN_POINT('',(-2.95,-1.05,0.));
#1827=CARTESIAN_POINT('',(-2.95,-1.75,1.));
#1828=CARTESIAN_POINT('Origin',(-3.85,-1.05,0.));
#1829=CARTESIAN_POINT('',(-3.85,-1.05,1.));
#1830=CARTESIAN_POINT('',(-3.85,-1.05,0.));
#1831=CARTESIAN_POINT('',(-2.95,-1.05,1.));
#1832=CARTESIAN_POINT('Origin',(-3.85,-1.75,0.));
#1833=CARTESIAN_POINT('',(-3.85,-1.75,1.));
#1834=CARTESIAN_POINT('',(-3.85,-1.75,0.));
#1835=CARTESIAN_POINT('',(-3.85,-1.75,1.));
#1836=CARTESIAN_POINT('Origin',(-2.95,-1.75,0.));
#1837=CARTESIAN_POINT('',(-3.65,-1.75,1.));
#1838=CARTESIAN_POINT('Origin',(-3.4,-1.4,1.));
#1839=CARTESIAN_POINT('Origin',(-3.4,-3.46944695195361E-16,-0.1));
#1840=CARTESIAN_POINT('',(-3.85,-0.35,-0.1));
#1841=CARTESIAN_POINT('',(-2.95,-0.35,-0.1));
#1842=CARTESIAN_POINT('',(-3.65,-0.35,-0.1));
#1843=CARTESIAN_POINT('',(-3.85,0.35,-0.1));
#1844=CARTESIAN_POINT('',(-3.85,-0.35,-0.1));
#1845=CARTESIAN_POINT('',(-2.95,0.35,-0.1));
#1846=CARTESIAN_POINT('',(-2.95,0.35,-0.1));
#1847=CARTESIAN_POINT('',(-2.95,-0.35,-0.1));
#1848=CARTESIAN_POINT('Origin',(-2.95,0.35,0.));
#1849=CARTESIAN_POINT('',(-2.95,-0.35,1.));
#1850=CARTESIAN_POINT('',(-2.95,-0.35,0.));
#1851=CARTESIAN_POINT('',(-2.95,0.35,1.));
#1852=CARTESIAN_POINT('',(-2.95,0.35,0.));
#1853=CARTESIAN_POINT('',(-2.95,-0.35,1.));
#1854=CARTESIAN_POINT('Origin',(-3.85,0.35,0.));
#1855=CARTESIAN_POINT('',(-3.85,0.35,1.));
#1856=CARTESIAN_POINT('',(-3.85,0.35,0.));
#1857=CARTESIAN_POINT('',(-2.95,0.35,1.));
#1858=CARTESIAN_POINT('Origin',(-3.85,-0.35,0.));
#1859=CARTESIAN_POINT('',(-3.85,-0.35,1.));
#1860=CARTESIAN_POINT('',(-3.85,-0.35,0.));
#1861=CARTESIAN_POINT('',(-3.85,-0.35,1.));
#1862=CARTESIAN_POINT('Origin',(-2.95,-0.35,0.));
#1863=CARTESIAN_POINT('',(-3.65,-0.35,1.));
#1864=CARTESIAN_POINT('Origin',(-3.4,-3.46944695195361E-16,1.));
#1865=CARTESIAN_POINT('Origin',(3.4,-3.46944695195361E-16,-0.1));
#1866=CARTESIAN_POINT('',(3.85,-0.35,-0.1));
#1867=CARTESIAN_POINT('',(2.95,-0.35,-0.1));
#1868=CARTESIAN_POINT('',(3.65,-0.35,-0.1));
#1869=CARTESIAN_POINT('',(2.95,0.35,-0.1));
#1870=CARTESIAN_POINT('',(2.95,-0.35,-0.1));
#1871=CARTESIAN_POINT('',(3.85,0.35,-0.1));
#1872=CARTESIAN_POINT('',(2.95,0.35,-0.1));
#1873=CARTESIAN_POINT('',(3.85,-0.35,-0.1));
#1874=CARTESIAN_POINT('Origin',(2.95,0.35,0.));
#1875=CARTESIAN_POINT('',(2.95,-0.35,1.));
#1876=CARTESIAN_POINT('',(2.95,-0.35,0.));
#1877=CARTESIAN_POINT('',(2.95,0.35,1.));
#1878=CARTESIAN_POINT('',(2.95,-0.35,1.));
#1879=CARTESIAN_POINT('',(2.95,0.35,0.));
#1880=CARTESIAN_POINT('Origin',(3.85,0.35,0.));
#1881=CARTESIAN_POINT('',(3.85,0.35,1.));
#1882=CARTESIAN_POINT('',(2.95,0.35,1.));
#1883=CARTESIAN_POINT('',(3.85,0.35,0.));
#1884=CARTESIAN_POINT('Origin',(3.85,-0.35,0.));
#1885=CARTESIAN_POINT('',(3.85,-0.35,1.));
#1886=CARTESIAN_POINT('',(3.85,-0.35,1.));
#1887=CARTESIAN_POINT('',(3.85,-0.35,0.));
#1888=CARTESIAN_POINT('Origin',(2.95,-0.35,0.));
#1889=CARTESIAN_POINT('',(3.65,-0.35,1.));
#1890=CARTESIAN_POINT('Origin',(3.4,-3.46944695195361E-16,1.));
#1891=CARTESIAN_POINT('Origin',(3.4,-1.4,-0.1));
#1892=CARTESIAN_POINT('',(3.85,-1.75,-0.1));
#1893=CARTESIAN_POINT('',(2.95,-1.75,-0.1));
#1894=CARTESIAN_POINT('',(3.65,-1.75,-0.1));
#1895=CARTESIAN_POINT('',(2.95,-1.05,-0.1));
#1896=CARTESIAN_POINT('',(2.95,-1.75,-0.1));
#1897=CARTESIAN_POINT('',(3.85,-1.05,-0.1));
#1898=CARTESIAN_POINT('',(2.95,-1.05,-0.1));
#1899=CARTESIAN_POINT('',(3.85,-1.75,-0.1));
#1900=CARTESIAN_POINT('Origin',(2.95,-1.05,0.));
#1901=CARTESIAN_POINT('',(2.95,-1.75,1.));
#1902=CARTESIAN_POINT('',(2.95,-1.75,0.));
#1903=CARTESIAN_POINT('',(2.95,-1.05,1.));
#1904=CARTESIAN_POINT('',(2.95,-1.75,1.));
#1905=CARTESIAN_POINT('',(2.95,-1.05,0.));
#1906=CARTESIAN_POINT('Origin',(3.85,-1.05,0.));
#1907=CARTESIAN_POINT('',(3.85,-1.05,1.));
#1908=CARTESIAN_POINT('',(2.95,-1.05,1.));
#1909=CARTESIAN_POINT('',(3.85,-1.05,0.));
#1910=CARTESIAN_POINT('Origin',(3.85,-1.75,0.));
#1911=CARTESIAN_POINT('',(3.85,-1.75,1.));
#1912=CARTESIAN_POINT('',(3.85,-1.75,1.));
#1913=CARTESIAN_POINT('',(3.85,-1.75,0.));
#1914=CARTESIAN_POINT('Origin',(2.95,-1.75,0.));
#1915=CARTESIAN_POINT('',(3.65,-1.75,1.));
#1916=CARTESIAN_POINT('Origin',(3.4,-1.4,1.));
#1917=UNCERTAINTY_MEASURE_WITH_UNIT(LENGTH_MEASURE(0.01),#1921,
'DISTANCE_ACCURACY_VALUE',
'Maximum model space distance between geometric entities at asserted c
onnectivities');
#1918=UNCERTAINTY_MEASURE_WITH_UNIT(LENGTH_MEASURE(0.01),#1921,
'DISTANCE_ACCURACY_VALUE',
'Maximum model space distance between geometric entities at asserted c
onnectivities');
#1919=(
GEOMETRIC_REPRESENTATION_CONTEXT(3)
GLOBAL_UNCERTAINTY_ASSIGNED_CONTEXT((#1917))
GLOBAL_UNIT_ASSIGNED_CONTEXT((#1921,#1923,#1924))
REPRESENTATION_CONTEXT('','3D')
);
#1920=(
GEOMETRIC_REPRESENTATION_CONTEXT(3)
GLOBAL_UNCERTAINTY_ASSIGNED_CONTEXT((#1918))
GLOBAL_UNIT_ASSIGNED_CONTEXT((#1921,#1923,#1924))
REPRESENTATION_CONTEXT('','3D')
);
#1921=(
LENGTH_UNIT()
NAMED_UNIT(*)
SI_UNIT(.MILLI.,.METRE.)
);
#1922=(
LENGTH_UNIT()
NAMED_UNIT(*)
SI_UNIT($,.METRE.)
);
#1923=(
NAMED_UNIT(*)
PLANE_ANGLE_UNIT()
SI_UNIT($,.RADIAN.)
);
#1924=(
NAMED_UNIT(*)
SI_UNIT($,.STERADIAN.)
SOLID_ANGLE_UNIT()
);
#1925=SHAPE_DEFINITION_REPRESENTATION(#1926,#1927);
#1926=PRODUCT_DEFINITION_SHAPE('',$,#1929);
#1927=SHAPE_REPRESENTATION('',(#1174),#1919);
#1928=PRODUCT_DEFINITION_CONTEXT('part definition',#1933,'design');
#1929=PRODUCT_DEFINITION('KAN0741-0601M1','KAN0741-0601M1',#1930,#1928);
#1930=PRODUCT_DEFINITION_FORMATION('',$,#1935);
#1931=PRODUCT_RELATED_PRODUCT_CATEGORY('KAN0741-0601M1',
'KAN0741-0601M1',(#1935));
#1932=APPLICATION_PROTOCOL_DEFINITION('international standard',
'automotive_design',2009,#1933);
#1933=APPLICATION_CONTEXT(
'Core Data for Automotive Mechanical Design Process');
#1934=PRODUCT_CONTEXT('part definition',#1933,'mechanical');
#1935=PRODUCT('KAN0741-0601M1','KAN0741-0601M1',$,(#1934));
#1936=PRESENTATION_STYLE_ASSIGNMENT((#1940));
#1937=PRESENTATION_STYLE_ASSIGNMENT((#1941));
#1938=PRESENTATION_STYLE_ASSIGNMENT((#1942));
#1939=PRESENTATION_STYLE_ASSIGNMENT((#1943));
#1940=SURFACE_STYLE_USAGE(.BOTH.,#1944);
#1941=SURFACE_STYLE_USAGE(.BOTH.,#1945);
#1942=SURFACE_STYLE_USAGE(.BOTH.,#1946);
#1943=SURFACE_STYLE_USAGE(.BOTH.,#1947);
#1944=SURFACE_SIDE_STYLE('',(#1948));
#1945=SURFACE_SIDE_STYLE('',(#1949));
#1946=SURFACE_SIDE_STYLE('',(#1950));
#1947=SURFACE_SIDE_STYLE('',(#1951));
#1948=SURFACE_STYLE_FILL_AREA(#1952);
#1949=SURFACE_STYLE_FILL_AREA(#1953);
#1950=SURFACE_STYLE_FILL_AREA(#1954);
#1951=SURFACE_STYLE_FILL_AREA(#1955);
#1952=FILL_AREA_STYLE('Nylon 6-6 (White)',(#1956));
#1953=FILL_AREA_STYLE('Aluminum - Satin (1)',(#1957));
#1954=FILL_AREA_STYLE('Plastic - Matte (Black)',(#1958));
#1955=FILL_AREA_STYLE('Aluminum - Satin',(#1959));
#1956=FILL_AREA_STYLE_COLOUR('Nylon 6-6 (White)',#1960);
#1957=FILL_AREA_STYLE_COLOUR('Aluminum - Satin (1)',#1961);
#1958=FILL_AREA_STYLE_COLOUR('Plastic - Matte (Black)',#1962);
#1959=FILL_AREA_STYLE_COLOUR('Aluminum - Satin',#1963);
#1960=COLOUR_RGB('Nylon 6-6 (White)',0.972549019607843,0.968627450980392,
0.929411764705882);
#1961=COLOUR_RGB('Aluminum - Satin (1)',0.819607843137255,0.819607843137255,
0.823529411764706);
#1962=COLOUR_RGB('Plastic - Matte (Black)',0.403921568627451,0.403921568627451,
0.403921568627451);
#1963=COLOUR_RGB('Aluminum - Satin',0.96078431372549,0.96078431372549,0.964705882352941);
ENDSEC;
END-ISO-10303-21;
