ISO-10303-21;
HEADER;
FILE_DESCRIPTION((''),'2;1');
FILE_NAME('QAXX3C-R3','2022-04-15T',('eng654'),(''),
'PRO/ENGINEER BY PARAMETRIC TECHNOLOGY CORPORATION, 2014000',
'PRO/ENGINEER BY PARAMETRIC TECHNOLOGY CORPORATION, 2014000','');
FILE_SCHEMA(('CONFIG_CONTROL_DESIGN'));
ENDSEC;
DATA;
#103=DIRECTION('',(0.E0,0.E0,-1.E0));
#104=VECTOR('',#103,9.782544935072E0);
#105=CARTESIAN_POINT('',(-9.25E0,-5.E-1,4.891272467536E0));
#106=LINE('',#105,#104);
#107=DIRECTION('',(1.E0,0.E0,0.E0));
#108=VECTOR('',#107,1.85E1);
#109=CARTESIAN_POINT('',(-9.25E0,-5.E-1,-4.891272467536E0));
#110=LINE('',#109,#108);
#111=DIRECTION('',(-1.E0,0.E0,0.E0));
#112=VECTOR('',#111,5.E-1);
#113=CARTESIAN_POINT('',(-7.37E0,-5.E-1,1.55E0));
#114=LINE('',#113,#112);
#115=DIRECTION('',(0.E0,0.E0,1.E0));
#116=VECTOR('',#115,3.E-1);
#117=CARTESIAN_POINT('',(-7.87E0,-5.E-1,1.55E0));
#118=LINE('',#117,#116);
#119=DIRECTION('',(1.E0,0.E0,0.E0));
#120=VECTOR('',#119,5.E-1);
#121=CARTESIAN_POINT('',(-7.87E0,-5.E-1,1.85E0));
#122=LINE('',#121,#120);
#123=DIRECTION('',(0.E0,0.E0,-1.E0));
#124=VECTOR('',#123,3.E-1);
#125=CARTESIAN_POINT('',(-7.37E0,-5.E-1,1.85E0));
#126=LINE('',#125,#124);
#127=DIRECTION('',(-1.E0,0.E0,0.E0));
#128=VECTOR('',#127,5.E-1);
#129=CARTESIAN_POINT('',(-4.83E0,-5.E-1,1.55E0));
#130=LINE('',#129,#128);
#131=DIRECTION('',(0.E0,0.E0,1.E0));
#132=VECTOR('',#131,3.E-1);
#133=CARTESIAN_POINT('',(-5.33E0,-5.E-1,1.55E0));
#134=LINE('',#133,#132);
#135=DIRECTION('',(1.E0,0.E0,0.E0));
#136=VECTOR('',#135,5.E-1);
#137=CARTESIAN_POINT('',(-5.33E0,-5.E-1,1.85E0));
#138=LINE('',#137,#136);
#139=DIRECTION('',(0.E0,0.E0,-1.E0));
#140=VECTOR('',#139,3.E-1);
#141=CARTESIAN_POINT('',(-4.83E0,-5.E-1,1.85E0));
#142=LINE('',#141,#140);
#143=DIRECTION('',(-1.E0,0.E0,0.E0));
#144=VECTOR('',#143,5.E-1);
#145=CARTESIAN_POINT('',(2.79E0,-5.E-1,1.55E0));
#146=LINE('',#145,#144);
#147=DIRECTION('',(0.E0,0.E0,1.E0));
#148=VECTOR('',#147,3.E-1);
#149=CARTESIAN_POINT('',(2.29E0,-5.E-1,1.55E0));
#150=LINE('',#149,#148);
#151=DIRECTION('',(1.E0,0.E0,0.E0));
#152=VECTOR('',#151,5.E-1);
#153=CARTESIAN_POINT('',(2.29E0,-5.E-1,1.85E0));
#154=LINE('',#153,#152);
#155=DIRECTION('',(0.E0,0.E0,-1.E0));
#156=VECTOR('',#155,3.E-1);
#157=CARTESIAN_POINT('',(2.79E0,-5.E-1,1.85E0));
#158=LINE('',#157,#156);
#159=DIRECTION('',(-1.E0,0.E0,0.E0));
#160=VECTOR('',#159,5.E-1);
#161=CARTESIAN_POINT('',(5.33E0,-5.E-1,1.55E0));
#162=LINE('',#161,#160);
#163=DIRECTION('',(0.E0,0.E0,1.E0));
#164=VECTOR('',#163,3.E-1);
#165=CARTESIAN_POINT('',(4.83E0,-5.E-1,1.55E0));
#166=LINE('',#165,#164);
#167=DIRECTION('',(1.E0,0.E0,0.E0));
#168=VECTOR('',#167,5.E-1);
#169=CARTESIAN_POINT('',(4.83E0,-5.E-1,1.85E0));
#170=LINE('',#169,#168);
#171=DIRECTION('',(0.E0,0.E0,-1.E0));
#172=VECTOR('',#171,3.E-1);
#173=CARTESIAN_POINT('',(5.33E0,-5.E-1,1.85E0));
#174=LINE('',#173,#172);
#175=DIRECTION('',(-1.E0,0.E0,0.E0));
#176=VECTOR('',#175,5.E-1);
#177=CARTESIAN_POINT('',(7.87E0,-5.E-1,1.55E0));
#178=LINE('',#177,#176);
#179=DIRECTION('',(0.E0,0.E0,1.E0));
#180=VECTOR('',#179,3.E-1);
#181=CARTESIAN_POINT('',(7.37E0,-5.E-1,1.55E0));
#182=LINE('',#181,#180);
#183=DIRECTION('',(1.E0,0.E0,0.E0));
#184=VECTOR('',#183,5.E-1);
#185=CARTESIAN_POINT('',(7.37E0,-5.E-1,1.85E0));
#186=LINE('',#185,#184);
#187=DIRECTION('',(0.E0,0.E0,-1.E0));
#188=VECTOR('',#187,3.E-1);
#189=CARTESIAN_POINT('',(7.87E0,-5.E-1,1.85E0));
#190=LINE('',#189,#188);
#191=DIRECTION('',(1.E0,0.E0,0.E0));
#192=VECTOR('',#191,1.85E1);
#193=CARTESIAN_POINT('',(-9.25E0,-5.E-1,4.891272467536E0));
#194=LINE('',#193,#192);
#195=DIRECTION('',(1.E0,0.E0,-1.616484723854E-13));
#196=VECTOR('',#195,5.000000000001E-1);
#197=CARTESIAN_POINT('',(-9.75E0,0.E0,4.9E0));
#198=LINE('',#197,#196);
#199=DIRECTION('',(0.E0,-9.998476951564E-1,-1.745240643725E-2));
#200=VECTOR('',#199,5.000761640220E-1);
#201=CARTESIAN_POINT('',(9.25E0,0.E0,4.9E0));
#202=LINE('',#201,#200);
#203=DIRECTION('',(0.E0,0.E0,-1.E0));
#204=VECTOR('',#203,9.782544935072E0);
#205=CARTESIAN_POINT('',(9.25E0,-5.E-1,4.891272467536E0));
#206=LINE('',#205,#204);
#207=DIRECTION('',(0.E0,9.998476951564E-1,-1.745240643722E-2));
#208=VECTOR('',#207,5.000761640220E-1);
#209=CARTESIAN_POINT('',(9.25E0,-5.E-1,-4.891272467536E0));
#210=LINE('',#209,#208);
#211=DIRECTION('',(0.E0,0.E0,-1.E0));
#212=VECTOR('',#211,9.8E0);
#213=CARTESIAN_POINT('',(9.25E0,0.E0,4.9E0));
#214=LINE('',#213,#212);
#215=DIRECTION('',(1.E0,0.E0,-1.598721155460E-13));
#216=VECTOR('',#215,5.000000000001E-1);
#217=CARTESIAN_POINT('',(9.25E0,0.E0,-4.9E0));
#218=LINE('',#217,#216);
#219=DIRECTION('',(-1.E0,0.E0,0.E0));
#220=VECTOR('',#219,5.E-1);
#221=CARTESIAN_POINT('',(9.75E0,0.E0,4.9E0));
#222=LINE('',#221,#220);
#223=DIRECTION('',(-1.E0,0.E0,0.E0));
#224=VECTOR('',#223,5.E-1);
#225=CARTESIAN_POINT('',(-9.25E0,0.E0,-4.9E0));
#226=LINE('',#225,#224);
#227=CARTESIAN_POINT('',(-7.689358719048E0,-1.646052739549E0,
-4.871268042556E0));
#228=DIRECTION('',(0.E0,-1.745240643701E-2,-9.998476951564E-1));
#229=DIRECTION('',(1.E0,-6.719069745031E-13,1.243449787580E-14));
#230=AXIS2_PLACEMENT_3D('',#227,#228,#229);
#232=CARTESIAN_POINT('',(-7.689358719048E0,-1.646052739549E0,
-4.871268042556E0));
#233=DIRECTION('',(0.E0,-1.745240643701E-2,-9.998476951564E-1));
#234=DIRECTION('',(-1.E0,-6.648015471455E-13,1.243449787580E-14));
#235=AXIS2_PLACEMENT_3D('',#232,#233,#234);
#237=DIRECTION('',(0.E0,0.E0,-1.E0));
#238=VECTOR('',#237,9.8E0);
#239=CARTESIAN_POINT('',(-9.25E0,0.E0,4.9E0));
#240=LINE('',#239,#238);
#241=DIRECTION('',(0.E0,-9.998476951564E-1,1.745240643718E-2));
#242=VECTOR('',#241,5.000761640220E-1);
#243=CARTESIAN_POINT('',(-9.25E0,0.E0,-4.9E0));
#244=LINE('',#243,#242);
#245=DIRECTION('',(0.E0,9.998476951564E-1,1.745240643721E-2));
#246=VECTOR('',#245,5.000761640220E-1);
#247=CARTESIAN_POINT('',(-9.25E0,-5.E-1,4.891272467536E0));
#248=LINE('',#247,#246);
#249=DIRECTION('',(-1.051313231482E-14,0.E0,1.E0));
#250=VECTOR('',#249,9.8E0);
#251=CARTESIAN_POINT('',(-9.75E0,0.E0,-4.9E0));
#252=LINE('',#251,#250);
#253=DIRECTION('',(1.744974916074E-2,-9.996954598819E-1,-1.744974916073E-2));
#254=VECTOR('',#253,1.250380791114E1);
#255=CARTESIAN_POINT('',(-9.75E0,0.E0,4.9E0));
#256=LINE('',#255,#254);
#257=DIRECTION('',(1.081337168011E-14,0.E0,-1.E0));
#258=VECTOR('',#257,9.363623376793E0);
#259=CARTESIAN_POINT('',(-9.531811688397E0,-1.25E1,4.681811688397E0));
#260=LINE('',#259,#258);
#261=DIRECTION('',(-1.744974916074E-2,9.996954598819E-1,-1.744974916073E-2));
#262=VECTOR('',#261,1.250380791114E1);
#263=CARTESIAN_POINT('',(-9.531811688397E0,-1.25E1,-4.681811688397E0));
#264=LINE('',#263,#262);
#265=DIRECTION('',(1.E0,0.E0,0.E0));
#266=VECTOR('',#265,1.906362337679E1);
#267=CARTESIAN_POINT('',(-9.531811688397E0,-1.25E1,4.681811688397E0));
#268=LINE('',#267,#266);
#269=DIRECTION('',(1.119278823029E-14,0.E0,-1.E0));
#270=VECTOR('',#269,9.363623376793E0);
#271=CARTESIAN_POINT('',(9.531811688397E0,-1.25E1,4.681811688397E0));
#272=LINE('',#271,#270);
#273=DIRECTION('',(-1.E0,0.E0,0.E0));
#274=VECTOR('',#273,1.906362337679E1);
#275=CARTESIAN_POINT('',(9.531811688397E0,-1.25E1,-4.681811688397E0));
#276=LINE('',#275,#274);
#277=DIRECTION('',(1.051313231482E-14,0.E0,-1.E0));
#278=VECTOR('',#277,9.8E0);
#279=CARTESIAN_POINT('',(9.75E0,0.E0,4.9E0));
#280=LINE('',#279,#278);
#281=DIRECTION('',(-1.744974916073E-2,-9.996954598819E-1,1.744974916073E-2));
#282=VECTOR('',#281,1.250380791114E1);
#283=CARTESIAN_POINT('',(9.75E0,0.E0,-4.9E0));
#284=LINE('',#283,#282);
#285=DIRECTION('',(1.744974916073E-2,9.996954598819E-1,1.744974916074E-2));
#286=VECTOR('',#285,1.250380791114E1);
#287=CARTESIAN_POINT('',(9.531811688397E0,-1.25E1,4.681811688397E0));
#288=LINE('',#287,#286);
#289=DIRECTION('',(-1.776356839400E-13,1.745240645761E-2,9.998476951560E-1));
#290=VECTOR('',#289,1.E-2);
#291=CARTESIAN_POINT('',(-8.189358719048E0,-1.646052739549E0,
-4.871268042556E0));
#292=LINE('',#291,#290);
#293=DIRECTION('',(1.776356839400E-13,-1.745240645776E-2,-9.998476951560E-1));
#294=VECTOR('',#293,1.E-2);
#295=CARTESIAN_POINT('',(-7.189358719048E0,-1.645878215484E0,
-4.861269565604E0));
#296=LINE('',#295,#294);
#297=CARTESIAN_POINT('',(-7.689358719048E0,-1.645878215484E0,
-4.861269565604E0));
#298=DIRECTION('',(0.E0,1.745240643701E-2,9.998476951564E-1));
#299=DIRECTION('',(-1.E0,5.728750807066E-13,-1.065814103640E-14));
#300=AXIS2_PLACEMENT_3D('',#297,#298,#299);
#302=CARTESIAN_POINT('',(-7.689358719048E0,-1.645878215484E0,
-4.861269565604E0));
#303=DIRECTION('',(0.E0,1.745240643701E-2,9.998476951564E-1));
#304=DIRECTION('',(1.E0,5.719869022869E-13,-1.065814103640E-14));
#305=AXIS2_PLACEMENT_3D('',#302,#303,#304);
#307=DIRECTION('',(0.E0,1.E0,0.E0));
#308=VECTOR('',#307,4.6E0);
#309=CARTESIAN_POINT('',(-7.37E0,-5.E-1,1.55E0));
#310=LINE('',#309,#308);
#311=DIRECTION('',(0.E0,1.E0,0.E0));
#312=VECTOR('',#311,4.6E0);
#313=CARTESIAN_POINT('',(-7.37E0,-5.E-1,1.85E0));
#314=LINE('',#313,#312);
#315=DIRECTION('',(0.E0,1.E0,0.E0));
#316=VECTOR('',#315,4.6E0);
#317=CARTESIAN_POINT('',(-7.87E0,-5.E-1,1.85E0));
#318=LINE('',#317,#316);
#319=DIRECTION('',(0.E0,1.E0,0.E0));
#320=VECTOR('',#319,4.6E0);
#321=CARTESIAN_POINT('',(-7.87E0,-5.E-1,1.55E0));
#322=LINE('',#321,#320);
#323=DIRECTION('',(-1.E0,0.E0,0.E0));
#324=VECTOR('',#323,5.E-1);
#325=CARTESIAN_POINT('',(-7.37E0,4.1E0,1.55E0));
#326=LINE('',#325,#324);
#327=DIRECTION('',(0.E0,0.E0,-1.E0));
#328=VECTOR('',#327,3.E-1);
#329=CARTESIAN_POINT('',(-7.37E0,4.1E0,1.85E0));
#330=LINE('',#329,#328);
#331=DIRECTION('',(1.E0,0.E0,0.E0));
#332=VECTOR('',#331,5.E-1);
#333=CARTESIAN_POINT('',(-7.87E0,4.1E0,1.85E0));
#334=LINE('',#333,#332);
#335=DIRECTION('',(0.E0,0.E0,1.E0));
#336=VECTOR('',#335,3.E-1);
#337=CARTESIAN_POINT('',(-7.87E0,4.1E0,1.55E0));
#338=LINE('',#337,#336);
#339=DIRECTION('',(-1.E0,0.E0,0.E0));
#340=VECTOR('',#339,5.E-1);
#341=CARTESIAN_POINT('',(-4.83E0,4.1E0,1.55E0));
#342=LINE('',#341,#340);
#343=DIRECTION('',(0.E0,0.E0,-1.E0));
#344=VECTOR('',#343,3.E-1);
#345=CARTESIAN_POINT('',(-4.83E0,4.1E0,1.85E0));
#346=LINE('',#345,#344);
#347=DIRECTION('',(1.E0,0.E0,0.E0));
#348=VECTOR('',#347,5.E-1);
#349=CARTESIAN_POINT('',(-5.33E0,4.1E0,1.85E0));
#350=LINE('',#349,#348);
#351=DIRECTION('',(0.E0,0.E0,1.E0));
#352=VECTOR('',#351,3.E-1);
#353=CARTESIAN_POINT('',(-5.33E0,4.1E0,1.55E0));
#354=LINE('',#353,#352);
#355=DIRECTION('',(-1.E0,0.E0,0.E0));
#356=VECTOR('',#355,5.E-1);
#357=CARTESIAN_POINT('',(2.79E0,4.1E0,1.55E0));
#358=LINE('',#357,#356);
#359=DIRECTION('',(0.E0,0.E0,-1.E0));
#360=VECTOR('',#359,3.E-1);
#361=CARTESIAN_POINT('',(2.79E0,4.1E0,1.85E0));
#362=LINE('',#361,#360);
#363=DIRECTION('',(1.E0,0.E0,0.E0));
#364=VECTOR('',#363,5.E-1);
#365=CARTESIAN_POINT('',(2.29E0,4.1E0,1.85E0));
#366=LINE('',#365,#364);
#367=DIRECTION('',(0.E0,0.E0,1.E0));
#368=VECTOR('',#367,3.E-1);
#369=CARTESIAN_POINT('',(2.29E0,4.1E0,1.55E0));
#370=LINE('',#369,#368);
#371=DIRECTION('',(-1.E0,0.E0,0.E0));
#372=VECTOR('',#371,5.E-1);
#373=CARTESIAN_POINT('',(5.33E0,4.1E0,1.55E0));
#374=LINE('',#373,#372);
#375=DIRECTION('',(0.E0,0.E0,-1.E0));
#376=VECTOR('',#375,3.E-1);
#377=CARTESIAN_POINT('',(5.33E0,4.1E0,1.85E0));
#378=LINE('',#377,#376);
#379=DIRECTION('',(1.E0,0.E0,0.E0));
#380=VECTOR('',#379,5.E-1);
#381=CARTESIAN_POINT('',(4.83E0,4.1E0,1.85E0));
#382=LINE('',#381,#380);
#383=DIRECTION('',(0.E0,0.E0,1.E0));
#384=VECTOR('',#383,3.E-1);
#385=CARTESIAN_POINT('',(4.83E0,4.1E0,1.55E0));
#386=LINE('',#385,#384);
#387=DIRECTION('',(-1.E0,0.E0,0.E0));
#388=VECTOR('',#387,5.E-1);
#389=CARTESIAN_POINT('',(7.87E0,4.1E0,1.55E0));
#390=LINE('',#389,#388);
#391=DIRECTION('',(0.E0,0.E0,-1.E0));
#392=VECTOR('',#391,3.E-1);
#393=CARTESIAN_POINT('',(7.87E0,4.1E0,1.85E0));
#394=LINE('',#393,#392);
#395=DIRECTION('',(1.E0,0.E0,0.E0));
#396=VECTOR('',#395,5.E-1);
#397=CARTESIAN_POINT('',(7.37E0,4.1E0,1.85E0));
#398=LINE('',#397,#396);
#399=DIRECTION('',(0.E0,0.E0,1.E0));
#400=VECTOR('',#399,3.E-1);
#401=CARTESIAN_POINT('',(7.37E0,4.1E0,1.55E0));
#402=LINE('',#401,#400);
#403=DIRECTION('',(0.E0,1.E0,0.E0));
#404=VECTOR('',#403,4.6E0);
#405=CARTESIAN_POINT('',(-4.83E0,-5.E-1,1.55E0));
#406=LINE('',#405,#404);
#407=DIRECTION('',(0.E0,1.E0,0.E0));
#408=VECTOR('',#407,4.6E0);
#409=CARTESIAN_POINT('',(-4.83E0,-5.E-1,1.85E0));
#410=LINE('',#409,#408);
#411=DIRECTION('',(0.E0,1.E0,0.E0));
#412=VECTOR('',#411,4.6E0);
#413=CARTESIAN_POINT('',(-5.33E0,-5.E-1,1.85E0));
#414=LINE('',#413,#412);
#415=DIRECTION('',(0.E0,1.E0,0.E0));
#416=VECTOR('',#415,4.6E0);
#417=CARTESIAN_POINT('',(-5.33E0,-5.E-1,1.55E0));
#418=LINE('',#417,#416);
#419=DIRECTION('',(0.E0,1.E0,0.E0));
#420=VECTOR('',#419,4.6E0);
#421=CARTESIAN_POINT('',(2.79E0,-5.E-1,1.55E0));
#422=LINE('',#421,#420);
#423=DIRECTION('',(0.E0,1.E0,0.E0));
#424=VECTOR('',#423,4.6E0);
#425=CARTESIAN_POINT('',(2.79E0,-5.E-1,1.85E0));
#426=LINE('',#425,#424);
#427=DIRECTION('',(0.E0,1.E0,0.E0));
#428=VECTOR('',#427,4.6E0);
#429=CARTESIAN_POINT('',(2.29E0,-5.E-1,1.85E0));
#430=LINE('',#429,#428);
#431=DIRECTION('',(0.E0,1.E0,0.E0));
#432=VECTOR('',#431,4.6E0);
#433=CARTESIAN_POINT('',(2.29E0,-5.E-1,1.55E0));
#434=LINE('',#433,#432);
#435=DIRECTION('',(0.E0,1.E0,0.E0));
#436=VECTOR('',#435,4.6E0);
#437=CARTESIAN_POINT('',(5.33E0,-5.E-1,1.55E0));
#438=LINE('',#437,#436);
#439=DIRECTION('',(0.E0,1.E0,0.E0));
#440=VECTOR('',#439,4.6E0);
#441=CARTESIAN_POINT('',(5.33E0,-5.E-1,1.85E0));
#442=LINE('',#441,#440);
#443=DIRECTION('',(0.E0,1.E0,0.E0));
#444=VECTOR('',#443,4.6E0);
#445=CARTESIAN_POINT('',(4.83E0,-5.E-1,1.85E0));
#446=LINE('',#445,#444);
#447=DIRECTION('',(0.E0,1.E0,0.E0));
#448=VECTOR('',#447,4.6E0);
#449=CARTESIAN_POINT('',(4.83E0,-5.E-1,1.55E0));
#450=LINE('',#449,#448);
#451=DIRECTION('',(0.E0,1.E0,0.E0));
#452=VECTOR('',#451,4.6E0);
#453=CARTESIAN_POINT('',(7.87E0,-5.E-1,1.55E0));
#454=LINE('',#453,#452);
#455=DIRECTION('',(0.E0,1.E0,0.E0));
#456=VECTOR('',#455,4.6E0);
#457=CARTESIAN_POINT('',(7.87E0,-5.E-1,1.85E0));
#458=LINE('',#457,#456);
#459=DIRECTION('',(0.E0,1.E0,0.E0));
#460=VECTOR('',#459,4.6E0);
#461=CARTESIAN_POINT('',(7.37E0,-5.E-1,1.85E0));
#462=LINE('',#461,#460);
#463=DIRECTION('',(0.E0,1.E0,0.E0));
#464=VECTOR('',#463,4.6E0);
#465=CARTESIAN_POINT('',(7.37E0,-5.E-1,1.55E0));
#466=LINE('',#465,#464);
#467=CARTESIAN_POINT('',(-9.25E0,-5.E-1,4.891272467536E0));
#468=CARTESIAN_POINT('',(9.25E0,-5.E-1,4.891272467536E0));
#469=VERTEX_POINT('',#467);
#470=VERTEX_POINT('',#468);
#471=CARTESIAN_POINT('',(-9.25E0,-5.E-1,-4.891272467536E0));
#472=VERTEX_POINT('',#471);
#473=CARTESIAN_POINT('',(9.25E0,-5.E-1,-4.891272467536E0));
#474=VERTEX_POINT('',#473);
#475=CARTESIAN_POINT('',(9.25E0,0.E0,4.9E0));
#476=VERTEX_POINT('',#475);
#477=CARTESIAN_POINT('',(9.75E0,0.E0,4.9E0));
#478=VERTEX_POINT('',#477);
#479=CARTESIAN_POINT('',(9.531811688397E0,-1.25E1,4.681811688397E0));
#480=VERTEX_POINT('',#479);
#481=CARTESIAN_POINT('',(-9.531811688397E0,-1.25E1,4.681811688397E0));
#482=VERTEX_POINT('',#481);
#483=CARTESIAN_POINT('',(-9.75E0,0.E0,4.9E0));
#484=VERTEX_POINT('',#483);
#485=CARTESIAN_POINT('',(-9.25E0,0.E0,4.9E0));
#486=VERTEX_POINT('',#485);
#487=CARTESIAN_POINT('',(9.25E0,0.E0,-4.9E0));
#488=VERTEX_POINT('',#487);
#489=CARTESIAN_POINT('',(9.75E0,0.E0,-4.9E0));
#490=VERTEX_POINT('',#489);
#491=CARTESIAN_POINT('',(-9.25E0,0.E0,-4.9E0));
#492=VERTEX_POINT('',#491);
#493=CARTESIAN_POINT('',(-9.75E0,0.E0,-4.9E0));
#494=VERTEX_POINT('',#493);
#495=CARTESIAN_POINT('',(-9.531811688397E0,-1.25E1,-4.681811688397E0));
#496=VERTEX_POINT('',#495);
#497=CARTESIAN_POINT('',(9.531811688397E0,-1.25E1,-4.681811688397E0));
#498=VERTEX_POINT('',#497);
#499=CARTESIAN_POINT('',(-7.189358719048E0,-1.646052739549E0,
-4.871268042556E0));
#500=CARTESIAN_POINT('',(-8.189358719048E0,-1.646052739549E0,
-4.871268042556E0));
#501=VERTEX_POINT('',#499);
#502=VERTEX_POINT('',#500);
#503=CARTESIAN_POINT('',(-7.189358719048E0,-1.645878215484E0,
-4.861269565604E0));
#504=VERTEX_POINT('',#503);
#505=CARTESIAN_POINT('',(-8.189358719048E0,-1.645878215484E0,
-4.861269565604E0));
#506=VERTEX_POINT('',#505);
#507=CARTESIAN_POINT('',(-7.37E0,4.1E0,1.55E0));
#508=CARTESIAN_POINT('',(-7.87E0,4.1E0,1.55E0));
#509=VERTEX_POINT('',#507);
#510=VERTEX_POINT('',#508);
#511=CARTESIAN_POINT('',(-7.87E0,4.1E0,1.85E0));
#512=VERTEX_POINT('',#511);
#513=CARTESIAN_POINT('',(-7.37E0,4.1E0,1.85E0));
#514=VERTEX_POINT('',#513);
#515=CARTESIAN_POINT('',(-4.83E0,4.1E0,1.55E0));
#516=CARTESIAN_POINT('',(-5.33E0,4.1E0,1.55E0));
#517=VERTEX_POINT('',#515);
#518=VERTEX_POINT('',#516);
#519=CARTESIAN_POINT('',(-5.33E0,4.1E0,1.85E0));
#520=VERTEX_POINT('',#519);
#521=CARTESIAN_POINT('',(-4.83E0,4.1E0,1.85E0));
#522=VERTEX_POINT('',#521);
#523=CARTESIAN_POINT('',(2.79E0,4.1E0,1.55E0));
#524=CARTESIAN_POINT('',(2.29E0,4.1E0,1.55E0));
#525=VERTEX_POINT('',#523);
#526=VERTEX_POINT('',#524);
#527=CARTESIAN_POINT('',(2.29E0,4.1E0,1.85E0));
#528=VERTEX_POINT('',#527);
#529=CARTESIAN_POINT('',(2.79E0,4.1E0,1.85E0));
#530=VERTEX_POINT('',#529);
#531=CARTESIAN_POINT('',(5.33E0,4.1E0,1.55E0));
#532=CARTESIAN_POINT('',(4.83E0,4.1E0,1.55E0));
#533=VERTEX_POINT('',#531);
#534=VERTEX_POINT('',#532);
#535=CARTESIAN_POINT('',(4.83E0,4.1E0,1.85E0));
#536=VERTEX_POINT('',#535);
#537=CARTESIAN_POINT('',(5.33E0,4.1E0,1.85E0));
#538=VERTEX_POINT('',#537);
#539=CARTESIAN_POINT('',(7.87E0,4.1E0,1.55E0));
#540=CARTESIAN_POINT('',(7.37E0,4.1E0,1.55E0));
#541=VERTEX_POINT('',#539);
#542=VERTEX_POINT('',#540);
#543=CARTESIAN_POINT('',(7.37E0,4.1E0,1.85E0));
#544=VERTEX_POINT('',#543);
#545=CARTESIAN_POINT('',(7.87E0,4.1E0,1.85E0));
#546=VERTEX_POINT('',#545);
#547=CARTESIAN_POINT('',(-7.37E0,-5.E-1,1.55E0));
#548=CARTESIAN_POINT('',(-7.87E0,-5.E-1,1.55E0));
#549=VERTEX_POINT('',#547);
#550=VERTEX_POINT('',#548);
#551=CARTESIAN_POINT('',(-7.87E0,-5.E-1,1.85E0));
#552=VERTEX_POINT('',#551);
#553=CARTESIAN_POINT('',(-7.37E0,-5.E-1,1.85E0));
#554=VERTEX_POINT('',#553);
#555=CARTESIAN_POINT('',(-4.83E0,-5.E-1,1.55E0));
#556=CARTESIAN_POINT('',(-5.33E0,-5.E-1,1.55E0));
#557=VERTEX_POINT('',#555);
#558=VERTEX_POINT('',#556);
#559=CARTESIAN_POINT('',(-5.33E0,-5.E-1,1.85E0));
#560=VERTEX_POINT('',#559);
#561=CARTESIAN_POINT('',(-4.83E0,-5.E-1,1.85E0));
#562=VERTEX_POINT('',#561);
#563=CARTESIAN_POINT('',(2.79E0,-5.E-1,1.55E0));
#564=CARTESIAN_POINT('',(2.29E0,-5.E-1,1.55E0));
#565=VERTEX_POINT('',#563);
#566=VERTEX_POINT('',#564);
#567=CARTESIAN_POINT('',(2.29E0,-5.E-1,1.85E0));
#568=VERTEX_POINT('',#567);
#569=CARTESIAN_POINT('',(2.79E0,-5.E-1,1.85E0));
#570=VERTEX_POINT('',#569);
#571=CARTESIAN_POINT('',(5.33E0,-5.E-1,1.55E0));
#572=CARTESIAN_POINT('',(4.83E0,-5.E-1,1.55E0));
#573=VERTEX_POINT('',#571);
#574=VERTEX_POINT('',#572);
#575=CARTESIAN_POINT('',(4.83E0,-5.E-1,1.85E0));
#576=VERTEX_POINT('',#575);
#577=CARTESIAN_POINT('',(5.33E0,-5.E-1,1.85E0));
#578=VERTEX_POINT('',#577);
#579=CARTESIAN_POINT('',(7.87E0,-5.E-1,1.55E0));
#580=CARTESIAN_POINT('',(7.37E0,-5.E-1,1.55E0));
#581=VERTEX_POINT('',#579);
#582=VERTEX_POINT('',#580);
#583=CARTESIAN_POINT('',(7.37E0,-5.E-1,1.85E0));
#584=VERTEX_POINT('',#583);
#585=CARTESIAN_POINT('',(7.87E0,-5.E-1,1.85E0));
#586=VERTEX_POINT('',#585);
#587=CARTESIAN_POINT('',(0.E0,-5.E-1,0.E0));
#588=DIRECTION('',(0.E0,1.E0,0.E0));
#589=DIRECTION('',(1.E0,0.E0,0.E0));
#590=AXIS2_PLACEMENT_3D('',#587,#588,#589);
#591=PLANE('',#590);
#593=ORIENTED_EDGE('',*,*,#592,.F.);
#595=ORIENTED_EDGE('',*,*,#594,.T.);
#597=ORIENTED_EDGE('',*,*,#596,.T.);
#599=ORIENTED_EDGE('',*,*,#598,.F.);
#600=EDGE_LOOP('',(#593,#595,#597,#599));
#601=FACE_OUTER_BOUND('',#600,.F.);
#603=ORIENTED_EDGE('',*,*,#602,.T.);
#605=ORIENTED_EDGE('',*,*,#604,.T.);
#607=ORIENTED_EDGE('',*,*,#606,.T.);
#609=ORIENTED_EDGE('',*,*,#608,.T.);
#610=EDGE_LOOP('',(#603,#605,#607,#609));
#611=FACE_BOUND('',#610,.F.);
#613=ORIENTED_EDGE('',*,*,#612,.T.);
#615=ORIENTED_EDGE('',*,*,#614,.T.);
#617=ORIENTED_EDGE('',*,*,#616,.T.);
#619=ORIENTED_EDGE('',*,*,#618,.T.);
#620=EDGE_LOOP('',(#613,#615,#617,#619));
#621=FACE_BOUND('',#620,.F.);
#623=ORIENTED_EDGE('',*,*,#622,.T.);
#625=ORIENTED_EDGE('',*,*,#624,.T.);
#627=ORIENTED_EDGE('',*,*,#626,.T.);
#629=ORIENTED_EDGE('',*,*,#628,.T.);
#630=EDGE_LOOP('',(#623,#625,#627,#629));
#631=FACE_BOUND('',#630,.F.);
#633=ORIENTED_EDGE('',*,*,#632,.T.);
#635=ORIENTED_EDGE('',*,*,#634,.T.);
#637=ORIENTED_EDGE('',*,*,#636,.T.);
#639=ORIENTED_EDGE('',*,*,#638,.T.);
#640=EDGE_LOOP('',(#633,#635,#637,#639));
#641=FACE_BOUND('',#640,.F.);
#643=ORIENTED_EDGE('',*,*,#642,.T.);
#645=ORIENTED_EDGE('',*,*,#644,.T.);
#647=ORIENTED_EDGE('',*,*,#646,.T.);
#649=ORIENTED_EDGE('',*,*,#648,.T.);
#650=EDGE_LOOP('',(#643,#645,#647,#649));
#651=FACE_BOUND('',#650,.F.);
#652=ADVANCED_FACE('',(#601,#611,#621,#631,#641,#651),#591,.T.);
#653=FILL_AREA_STYLE_COLOUR('',#36);
#654=FILL_AREA_STYLE('',(#653));
#655=SURFACE_STYLE_FILL_AREA(#654);
#656=SURFACE_SIDE_STYLE('',(#655));
#657=SURFACE_STYLE_USAGE(.BOTH.,#656);
#658=PRESENTATION_STYLE_ASSIGNMENT((#657));
#659=STYLED_ITEM('',(#658),#652);
#660=CARTESIAN_POINT('',(0.E0,-6.25E0,4.790905844198E0));
#661=DIRECTION('',(0.E0,-1.745240643737E-2,9.998476951564E-1));
#662=DIRECTION('',(1.E0,0.E0,0.E0));
#663=AXIS2_PLACEMENT_3D('',#660,#661,#662);
#664=PLANE('',#663);
#665=ORIENTED_EDGE('',*,*,#592,.T.);
#667=ORIENTED_EDGE('',*,*,#666,.F.);
#669=ORIENTED_EDGE('',*,*,#668,.F.);
#671=ORIENTED_EDGE('',*,*,#670,.F.);
#673=ORIENTED_EDGE('',*,*,#672,.F.);
#675=ORIENTED_EDGE('',*,*,#674,.F.);
#677=ORIENTED_EDGE('',*,*,#676,.T.);
#679=ORIENTED_EDGE('',*,*,#678,.F.);
#680=EDGE_LOOP('',(#665,#667,#669,#671,#673,#675,#677,#679));
#681=FACE_OUTER_BOUND('',#680,.F.);
#682=ADVANCED_FACE('',(#681),#664,.T.);
#683=FILL_AREA_STYLE_COLOUR('',#36);
#684=FILL_AREA_STYLE('',(#683));
#685=SURFACE_STYLE_FILL_AREA(#684);
#686=SURFACE_SIDE_STYLE('',(#685));
#687=SURFACE_STYLE_USAGE(.BOTH.,#686);
#688=PRESENTATION_STYLE_ASSIGNMENT((#687));
#689=STYLED_ITEM('',(#688),#682);
#690=CARTESIAN_POINT('',(9.25E0,-2.5E-1,0.E0));
#691=DIRECTION('',(1.E0,0.E0,0.E0));
#692=DIRECTION('',(0.E0,0.E0,-1.E0));
#693=AXIS2_PLACEMENT_3D('',#690,#691,#692);
#694=PLANE('',#693);
#696=ORIENTED_EDGE('',*,*,#695,.F.);
#697=ORIENTED_EDGE('',*,*,#666,.T.);
#698=ORIENTED_EDGE('',*,*,#598,.T.);
#700=ORIENTED_EDGE('',*,*,#699,.T.);
#701=EDGE_LOOP('',(#696,#697,#698,#700));
#702=FACE_OUTER_BOUND('',#701,.F.);
#703=ADVANCED_FACE('',(#702),#694,.F.);
#704=FILL_AREA_STYLE_COLOUR('',#36);
#705=FILL_AREA_STYLE('',(#704));
#706=SURFACE_STYLE_FILL_AREA(#705);
#707=SURFACE_SIDE_STYLE('',(#706));
#708=SURFACE_STYLE_USAGE(.BOTH.,#707);
#709=PRESENTATION_STYLE_ASSIGNMENT((#708));
#710=STYLED_ITEM('',(#709),#703);
#711=CARTESIAN_POINT('',(9.5E0,0.E0,0.E0));
#712=DIRECTION('',(0.E0,1.E0,0.E0));
#713=DIRECTION('',(1.E0,0.E0,0.E0));
#714=AXIS2_PLACEMENT_3D('',#711,#712,#713);
#715=PLANE('',#714);
#716=ORIENTED_EDGE('',*,*,#695,.T.);
#718=ORIENTED_EDGE('',*,*,#717,.T.);
#720=ORIENTED_EDGE('',*,*,#719,.F.);
#721=ORIENTED_EDGE('',*,*,#668,.T.);
#722=EDGE_LOOP('',(#716,#718,#720,#721));
#723=FACE_OUTER_BOUND('',#722,.F.);
#724=ADVANCED_FACE('',(#723),#715,.T.);
#725=FILL_AREA_STYLE_COLOUR('',#36);
#726=FILL_AREA_STYLE('',(#725));
#727=SURFACE_STYLE_FILL_AREA(#726);
#728=SURFACE_SIDE_STYLE('',(#727));
#729=SURFACE_STYLE_USAGE(.BOTH.,#728);
#730=PRESENTATION_STYLE_ASSIGNMENT((#729));
#731=STYLED_ITEM('',(#730),#724);
#732=CARTESIAN_POINT('',(0.E0,-6.25E0,-4.790905844198E0));
#733=DIRECTION('',(0.E0,1.745240643737E-2,9.998476951564E-1));
#734=DIRECTION('',(-1.E0,0.E0,0.E0));
#735=AXIS2_PLACEMENT_3D('',#732,#733,#734);
#736=PLANE('',#735);
#737=ORIENTED_EDGE('',*,*,#596,.F.);
#739=ORIENTED_EDGE('',*,*,#738,.F.);
#741=ORIENTED_EDGE('',*,*,#740,.T.);
#743=ORIENTED_EDGE('',*,*,#742,.F.);
#745=ORIENTED_EDGE('',*,*,#744,.F.);
#747=ORIENTED_EDGE('',*,*,#746,.F.);
#748=ORIENTED_EDGE('',*,*,#717,.F.);
#749=ORIENTED_EDGE('',*,*,#699,.F.);
#750=EDGE_LOOP('',(#737,#739,#741,#743,#745,#747,#748,#749));
#751=FACE_OUTER_BOUND('',#750,.F.);
#753=ORIENTED_EDGE('',*,*,#752,.T.);
#755=ORIENTED_EDGE('',*,*,#754,.T.);
#756=EDGE_LOOP('',(#753,#755));
#757=FACE_BOUND('',#756,.F.);
#758=ADVANCED_FACE('',(#751,#757),#736,.F.);
#759=FILL_AREA_STYLE_COLOUR('',#36);
#760=FILL_AREA_STYLE('',(#759));
#761=SURFACE_STYLE_FILL_AREA(#760);
#762=SURFACE_SIDE_STYLE('',(#761));
#763=SURFACE_STYLE_USAGE(.BOTH.,#762);
#764=PRESENTATION_STYLE_ASSIGNMENT((#763));
#765=STYLED_ITEM('',(#764),#758);
#766=CARTESIAN_POINT('',(-9.25E0,-2.5E-1,0.E0));
#767=DIRECTION('',(1.E0,0.E0,0.E0));
#768=DIRECTION('',(0.E0,0.E0,1.E0));
#769=AXIS2_PLACEMENT_3D('',#766,#767,#768);
#770=PLANE('',#769);
#772=ORIENTED_EDGE('',*,*,#771,.T.);
#773=ORIENTED_EDGE('',*,*,#738,.T.);
#774=ORIENTED_EDGE('',*,*,#594,.F.);
#775=ORIENTED_EDGE('',*,*,#678,.T.);
#776=EDGE_LOOP('',(#772,#773,#774,#775));
#777=FACE_OUTER_BOUND('',#776,.F.);
#778=ADVANCED_FACE('',(#777),#770,.T.);
#779=FILL_AREA_STYLE_COLOUR('',#36);
#780=FILL_AREA_STYLE('',(#779));
#781=SURFACE_STYLE_FILL_AREA(#780);
#782=SURFACE_SIDE_STYLE('',(#781));
#783=SURFACE_STYLE_USAGE(.BOTH.,#782);
#784=PRESENTATION_STYLE_ASSIGNMENT((#783));
#785=STYLED_ITEM('',(#784),#778);
#786=CARTESIAN_POINT('',(-9.5E0,0.E0,0.E0));
#787=DIRECTION('',(0.E0,1.E0,0.E0));
#788=DIRECTION('',(1.E0,0.E0,0.E0));
#789=AXIS2_PLACEMENT_3D('',#786,#787,#788);
#790=PLANE('',#789);
#791=ORIENTED_EDGE('',*,*,#771,.F.);
#792=ORIENTED_EDGE('',*,*,#676,.F.);
#794=ORIENTED_EDGE('',*,*,#793,.F.);
#795=ORIENTED_EDGE('',*,*,#740,.F.);
#796=EDGE_LOOP('',(#791,#792,#794,#795));
#797=FACE_OUTER_BOUND('',#796,.F.);
#798=ADVANCED_FACE('',(#797),#790,.T.);
#799=FILL_AREA_STYLE_COLOUR('',#36);
#800=FILL_AREA_STYLE('',(#799));
#801=SURFACE_STYLE_FILL_AREA(#800);
#802=SURFACE_SIDE_STYLE('',(#801));
#803=SURFACE_STYLE_USAGE(.BOTH.,#802);
#804=PRESENTATION_STYLE_ASSIGNMENT((#803));
#805=STYLED_ITEM('',(#804),#798);
#806=CARTESIAN_POINT('',(-9.640905844198E0,-6.25E0,0.E0));
#807=DIRECTION('',(9.998476951564E-1,1.745240643737E-2,0.E0));
#808=DIRECTION('',(0.E0,0.E0,1.E0));
#809=AXIS2_PLACEMENT_3D('',#806,#807,#808);
#810=PLANE('',#809);
#811=ORIENTED_EDGE('',*,*,#793,.T.);
#812=ORIENTED_EDGE('',*,*,#674,.T.);
#814=ORIENTED_EDGE('',*,*,#813,.T.);
#815=ORIENTED_EDGE('',*,*,#742,.T.);
#816=EDGE_LOOP('',(#811,#812,#814,#815));
#817=FACE_OUTER_BOUND('',#816,.F.);
#818=ADVANCED_FACE('',(#817),#810,.F.);
#819=FILL_AREA_STYLE_COLOUR('',#36);
#820=FILL_AREA_STYLE('',(#819));
#821=SURFACE_STYLE_FILL_AREA(#820);
#822=SURFACE_SIDE_STYLE('',(#821));
#823=SURFACE_STYLE_USAGE(.BOTH.,#822);
#824=PRESENTATION_STYLE_ASSIGNMENT((#823));
#825=STYLED_ITEM('',(#824),#818);
#826=CARTESIAN_POINT('',(0.E0,-1.25E1,0.E0));
#827=DIRECTION('',(0.E0,1.E0,0.E0));
#828=DIRECTION('',(1.E0,0.E0,0.E0));
#829=AXIS2_PLACEMENT_3D('',#826,#827,#828);
#830=PLANE('',#829);
#831=ORIENTED_EDGE('',*,*,#813,.F.);
#832=ORIENTED_EDGE('',*,*,#672,.T.);
#834=ORIENTED_EDGE('',*,*,#833,.T.);
#835=ORIENTED_EDGE('',*,*,#744,.T.);
#836=EDGE_LOOP('',(#831,#832,#834,#835));
#837=FACE_OUTER_BOUND('',#836,.F.);
#838=ADVANCED_FACE('',(#837),#830,.F.);
#839=FILL_AREA_STYLE_COLOUR('',#36);
#840=FILL_AREA_STYLE('',(#839));
#841=SURFACE_STYLE_FILL_AREA(#840);
#842=SURFACE_SIDE_STYLE('',(#841));
#843=SURFACE_STYLE_USAGE(.BOTH.,#842);
#844=PRESENTATION_STYLE_ASSIGNMENT((#843));
#845=STYLED_ITEM('',(#844),#838);
#846=CARTESIAN_POINT('',(9.640905844198E0,-6.25E0,0.E0));
#847=DIRECTION('',(9.998476951564E-1,-1.745240643737E-2,0.E0));
#848=DIRECTION('',(0.E0,0.E0,-1.E0));
#849=AXIS2_PLACEMENT_3D('',#846,#847,#848);
#850=PLANE('',#849);
#851=ORIENTED_EDGE('',*,*,#719,.T.);
#852=ORIENTED_EDGE('',*,*,#746,.T.);
#853=ORIENTED_EDGE('',*,*,#833,.F.);
#854=ORIENTED_EDGE('',*,*,#670,.T.);
#855=EDGE_LOOP('',(#851,#852,#853,#854));
#856=FACE_OUTER_BOUND('',#855,.F.);
#857=ADVANCED_FACE('',(#856),#850,.T.);
#858=FILL_AREA_STYLE_COLOUR('',#36);
#859=FILL_AREA_STYLE('',(#858));
#860=SURFACE_STYLE_FILL_AREA(#859);
#861=SURFACE_SIDE_STYLE('',(#860));
#862=SURFACE_STYLE_USAGE(.BOTH.,#861);
#863=PRESENTATION_STYLE_ASSIGNMENT((#862));
#864=STYLED_ITEM('',(#863),#857);
#865=CARTESIAN_POINT('',(-7.689358719048E0,-1.645874725003E0,
-4.861069596065E0));
#866=DIRECTION('',(0.E0,-1.745240643701E-2,-9.998476951564E-1));
#867=DIRECTION('',(1.E0,0.E0,0.E0));
#868=AXIS2_PLACEMENT_3D('',#865,#866,#867);
#869=CYLINDRICAL_SURFACE('',#868,5.E-1);
#870=ORIENTED_EDGE('',*,*,#752,.F.);
#872=ORIENTED_EDGE('',*,*,#871,.F.);
#874=ORIENTED_EDGE('',*,*,#873,.F.);
#876=ORIENTED_EDGE('',*,*,#875,.F.);
#877=EDGE_LOOP('',(#870,#872,#874,#876));
#878=FACE_OUTER_BOUND('',#877,.F.);
#879=ADVANCED_FACE('',(#878),#869,.F.);
#880=FILL_AREA_STYLE_COLOUR('',#36);
#881=FILL_AREA_STYLE('',(#880));
#882=SURFACE_STYLE_FILL_AREA(#881);
#883=SURFACE_SIDE_STYLE('',(#882));
#884=SURFACE_STYLE_USAGE(.BOTH.,#883);
#885=PRESENTATION_STYLE_ASSIGNMENT((#884));
#886=STYLED_ITEM('',(#885),#879);
#887=CARTESIAN_POINT('',(-7.689358719048E0,-1.645874725003E0,
-4.861069596065E0));
#888=DIRECTION('',(0.E0,-1.745240643701E-2,-9.998476951564E-1));
#889=DIRECTION('',(1.E0,0.E0,0.E0));
#890=AXIS2_PLACEMENT_3D('',#887,#888,#889);
#891=CYLINDRICAL_SURFACE('',#890,5.E-1);
#892=ORIENTED_EDGE('',*,*,#754,.F.);
#893=ORIENTED_EDGE('',*,*,#875,.T.);
#895=ORIENTED_EDGE('',*,*,#894,.F.);
#896=ORIENTED_EDGE('',*,*,#871,.T.);
#897=EDGE_LOOP('',(#892,#893,#895,#896));
#898=FACE_OUTER_BOUND('',#897,.F.);
#899=ADVANCED_FACE('',(#898),#891,.F.);
#900=FILL_AREA_STYLE_COLOUR('',#36);
#901=FILL_AREA_STYLE('',(#900));
#902=SURFACE_STYLE_FILL_AREA(#901);
#903=SURFACE_SIDE_STYLE('',(#902));
#904=SURFACE_STYLE_USAGE(.BOTH.,#903);
#905=PRESENTATION_STYLE_ASSIGNMENT((#904));
#906=STYLED_ITEM('',(#905),#899);
#907=CARTESIAN_POINT('',(-7.689358719048E0,-1.645878215484E0,
-4.861269565605E0));
#908=DIRECTION('',(0.E0,1.745240643823E-2,9.998476951564E-1));
#909=DIRECTION('',(1.E0,0.E0,0.E0));
#910=AXIS2_PLACEMENT_3D('',#907,#908,#909);
#911=PLANE('',#910);
#912=ORIENTED_EDGE('',*,*,#873,.T.);
#913=ORIENTED_EDGE('',*,*,#894,.T.);
#914=EDGE_LOOP('',(#912,#913));
#915=FACE_OUTER_BOUND('',#914,.F.);
#916=ADVANCED_FACE('',(#915),#911,.F.);
#917=FILL_AREA_STYLE_COLOUR('',#79);
#918=FILL_AREA_STYLE('',(#917));
#919=SURFACE_STYLE_FILL_AREA(#918);
#920=SURFACE_SIDE_STYLE('',(#919));
#921=SURFACE_STYLE_USAGE(.BOTH.,#920);
#922=PRESENTATION_STYLE_ASSIGNMENT((#921));
#923=STYLED_ITEM('',(#922),#916);
#924=CARTESIAN_POINT('',(-7.37E0,-4.1E0,1.55E0));
#925=DIRECTION('',(0.E0,0.E0,-1.E0));
#926=DIRECTION('',(-1.E0,0.E0,0.E0));
#927=AXIS2_PLACEMENT_3D('',#924,#925,#926);
#928=PLANE('',#927);
#929=ORIENTED_EDGE('',*,*,#602,.F.);
#931=ORIENTED_EDGE('',*,*,#930,.T.);
#933=ORIENTED_EDGE('',*,*,#932,.T.);
#935=ORIENTED_EDGE('',*,*,#934,.F.);
#936=EDGE_LOOP('',(#929,#931,#933,#935));
#937=FACE_OUTER_BOUND('',#936,.F.);
#938=ADVANCED_FACE('',(#937),#928,.T.);
#939=FILL_AREA_STYLE_COLOUR('',#101);
#940=FILL_AREA_STYLE('',(#939));
#941=SURFACE_STYLE_FILL_AREA(#940);
#942=SURFACE_SIDE_STYLE('',(#941));
#943=SURFACE_STYLE_USAGE(.POSITIVE.,#942);
#944=PRESENTATION_STYLE_ASSIGNMENT((#943));
#945=STYLED_ITEM('',(#944),#938);
#946=CARTESIAN_POINT('',(-7.37E0,-4.1E0,1.85E0));
#947=DIRECTION('',(1.E0,0.E0,0.E0));
#948=DIRECTION('',(0.E0,0.E0,-1.E0));
#949=AXIS2_PLACEMENT_3D('',#946,#947,#948);
#950=PLANE('',#949);
#951=ORIENTED_EDGE('',*,*,#608,.F.);
#953=ORIENTED_EDGE('',*,*,#952,.T.);
#955=ORIENTED_EDGE('',*,*,#954,.T.);
#956=ORIENTED_EDGE('',*,*,#930,.F.);
#957=EDGE_LOOP('',(#951,#953,#955,#956));
#958=FACE_OUTER_BOUND('',#957,.F.);
#959=ADVANCED_FACE('',(#958),#950,.T.);
#960=FILL_AREA_STYLE_COLOUR('',#101);
#961=FILL_AREA_STYLE('',(#960));
#962=SURFACE_STYLE_FILL_AREA(#961);
#963=SURFACE_SIDE_STYLE('',(#962));
#964=SURFACE_STYLE_USAGE(.POSITIVE.,#963);
#965=PRESENTATION_STYLE_ASSIGNMENT((#964));
#966=STYLED_ITEM('',(#965),#959);
#967=CARTESIAN_POINT('',(-7.87E0,-4.1E0,1.85E0));
#968=DIRECTION('',(0.E0,0.E0,1.E0));
#969=DIRECTION('',(1.E0,0.E0,0.E0));
#970=AXIS2_PLACEMENT_3D('',#967,#968,#969);
#971=PLANE('',#970);
#972=ORIENTED_EDGE('',*,*,#606,.F.);
#974=ORIENTED_EDGE('',*,*,#973,.T.);
#976=ORIENTED_EDGE('',*,*,#975,.T.);
#977=ORIENTED_EDGE('',*,*,#952,.F.);
#978=EDGE_LOOP('',(#972,#974,#976,#977));
#979=FACE_OUTER_BOUND('',#978,.F.);
#980=ADVANCED_FACE('',(#979),#971,.T.);
#981=FILL_AREA_STYLE_COLOUR('',#101);
#982=FILL_AREA_STYLE('',(#981));
#983=SURFACE_STYLE_FILL_AREA(#982);
#984=SURFACE_SIDE_STYLE('',(#983));
#985=SURFACE_STYLE_USAGE(.POSITIVE.,#984);
#986=PRESENTATION_STYLE_ASSIGNMENT((#985));
#987=STYLED_ITEM('',(#986),#980);
#988=CARTESIAN_POINT('',(-7.87E0,-4.1E0,1.55E0));
#989=DIRECTION('',(-1.E0,0.E0,0.E0));
#990=DIRECTION('',(0.E0,0.E0,1.E0));
#991=AXIS2_PLACEMENT_3D('',#988,#989,#990);
#992=PLANE('',#991);
#993=ORIENTED_EDGE('',*,*,#604,.F.);
#994=ORIENTED_EDGE('',*,*,#934,.T.);
#996=ORIENTED_EDGE('',*,*,#995,.T.);
#997=ORIENTED_EDGE('',*,*,#973,.F.);
#998=EDGE_LOOP('',(#993,#994,#996,#997));
#999=FACE_OUTER_BOUND('',#998,.F.);
#1000=ADVANCED_FACE('',(#999),#992,.T.);
#1001=FILL_AREA_STYLE_COLOUR('',#101);
#1002=FILL_AREA_STYLE('',(#1001));
#1003=SURFACE_STYLE_FILL_AREA(#1002);
#1004=SURFACE_SIDE_STYLE('',(#1003));
#1005=SURFACE_STYLE_USAGE(.POSITIVE.,#1004);
#1006=PRESENTATION_STYLE_ASSIGNMENT((#1005));
#1007=STYLED_ITEM('',(#1006),#1000);
#1008=CARTESIAN_POINT('',(0.E0,4.1E0,0.E0));
#1009=DIRECTION('',(0.E0,1.E0,0.E0));
#1010=DIRECTION('',(-1.E0,0.E0,0.E0));
#1011=AXIS2_PLACEMENT_3D('',#1008,#1009,#1010);
#1012=PLANE('',#1011);
#1013=ORIENTED_EDGE('',*,*,#932,.F.);
#1014=ORIENTED_EDGE('',*,*,#954,.F.);
#1015=ORIENTED_EDGE('',*,*,#975,.F.);
#1016=ORIENTED_EDGE('',*,*,#995,.F.);
#1017=EDGE_LOOP('',(#1013,#1014,#1015,#1016));
#1018=FACE_OUTER_BOUND('',#1017,.F.);
#1019=ADVANCED_FACE('',(#1018),#1012,.T.);
#1020=FILL_AREA_STYLE_COLOUR('',#101);
#1021=FILL_AREA_STYLE('',(#1020));
#1022=SURFACE_STYLE_FILL_AREA(#1021);
#1023=SURFACE_SIDE_STYLE('',(#1022));
#1024=SURFACE_STYLE_USAGE(.POSITIVE.,#1023);
#1025=PRESENTATION_STYLE_ASSIGNMENT((#1024));
#1026=STYLED_ITEM('',(#1025),#1019);
#1027=CARTESIAN_POINT('',(0.E0,4.1E0,0.E0));
#1028=DIRECTION('',(0.E0,1.E0,0.E0));
#1029=DIRECTION('',(-1.E0,0.E0,0.E0));
#1030=AXIS2_PLACEMENT_3D('',#1027,#1028,#1029);
#1031=PLANE('',#1030);
#1033=ORIENTED_EDGE('',*,*,#1032,.F.);
#1035=ORIENTED_EDGE('',*,*,#1034,.F.);
#1037=ORIENTED_EDGE('',*,*,#1036,.F.);
#1039=ORIENTED_EDGE('',*,*,#1038,.F.);
#1040=EDGE_LOOP('',(#1033,#1035,#1037,#1039));
#1041=FACE_OUTER_BOUND('',#1040,.F.);
#1042=ADVANCED_FACE('',(#1041),#1031,.T.);
#1043=FILL_AREA_STYLE_COLOUR('',#101);
#1044=FILL_AREA_STYLE('',(#1043));
#1045=SURFACE_STYLE_FILL_AREA(#1044);
#1046=SURFACE_SIDE_STYLE('',(#1045));
#1047=SURFACE_STYLE_USAGE(.POSITIVE.,#1046);
#1048=PRESENTATION_STYLE_ASSIGNMENT((#1047));
#1049=STYLED_ITEM('',(#1048),#1042);
#1050=CARTESIAN_POINT('',(0.E0,4.1E0,0.E0));
#1051=DIRECTION('',(0.E0,1.E0,0.E0));
#1052=DIRECTION('',(-1.E0,0.E0,0.E0));
#1053=AXIS2_PLACEMENT_3D('',#1050,#1051,#1052);
#1054=PLANE('',#1053);
#1056=ORIENTED_EDGE('',*,*,#1055,.F.);
#1058=ORIENTED_EDGE('',*,*,#1057,.F.);
#1060=ORIENTED_EDGE('',*,*,#1059,.F.);
#1062=ORIENTED_EDGE('',*,*,#1061,.F.);
#1063=EDGE_LOOP('',(#1056,#1058,#1060,#1062));
#1064=FACE_OUTER_BOUND('',#1063,.F.);
#1065=ADVANCED_FACE('',(#1064),#1054,.T.);
#1066=FILL_AREA_STYLE_COLOUR('',#101);
#1067=FILL_AREA_STYLE('',(#1066));
#1068=SURFACE_STYLE_FILL_AREA(#1067);
#1069=SURFACE_SIDE_STYLE('',(#1068));
#1070=SURFACE_STYLE_USAGE(.POSITIVE.,#1069);
#1071=PRESENTATION_STYLE_ASSIGNMENT((#1070));
#1072=STYLED_ITEM('',(#1071),#1065);
#1073=CARTESIAN_POINT('',(0.E0,4.1E0,0.E0));
#1074=DIRECTION('',(0.E0,1.E0,0.E0));
#1075=DIRECTION('',(-1.E0,0.E0,0.E0));
#1076=AXIS2_PLACEMENT_3D('',#1073,#1074,#1075);
#1077=PLANE('',#1076);
#1079=ORIENTED_EDGE('',*,*,#1078,.F.);
#1081=ORIENTED_EDGE('',*,*,#1080,.F.);
#1083=ORIENTED_EDGE('',*,*,#1082,.F.);
#1085=ORIENTED_EDGE('',*,*,#1084,.F.);
#1086=EDGE_LOOP('',(#1079,#1081,#1083,#1085));
#1087=FACE_OUTER_BOUND('',#1086,.F.);
#1088=ADVANCED_FACE('',(#1087),#1077,.T.);
#1089=FILL_AREA_STYLE_COLOUR('',#101);
#1090=FILL_AREA_STYLE('',(#1089));
#1091=SURFACE_STYLE_FILL_AREA(#1090);
#1092=SURFACE_SIDE_STYLE('',(#1091));
#1093=SURFACE_STYLE_USAGE(.POSITIVE.,#1092);
#1094=PRESENTATION_STYLE_ASSIGNMENT((#1093));
#1095=STYLED_ITEM('',(#1094),#1088);
#1096=CARTESIAN_POINT('',(0.E0,4.1E0,0.E0));
#1097=DIRECTION('',(0.E0,1.E0,0.E0));
#1098=DIRECTION('',(-1.E0,0.E0,0.E0));
#1099=AXIS2_PLACEMENT_3D('',#1096,#1097,#1098);
#1100=PLANE('',#1099);
#1102=ORIENTED_EDGE('',*,*,#1101,.F.);
#1104=ORIENTED_EDGE('',*,*,#1103,.F.);
#1106=ORIENTED_EDGE('',*,*,#1105,.F.);
#1108=ORIENTED_EDGE('',*,*,#1107,.F.);
#1109=EDGE_LOOP('',(#1102,#1104,#1106,#1108));
#1110=FACE_OUTER_BOUND('',#1109,.F.);
#1111=ADVANCED_FACE('',(#1110),#1100,.T.);
#1112=FILL_AREA_STYLE_COLOUR('',#101);
#1113=FILL_AREA_STYLE('',(#1112));
#1114=SURFACE_STYLE_FILL_AREA(#1113);
#1115=SURFACE_SIDE_STYLE('',(#1114));
#1116=SURFACE_STYLE_USAGE(.POSITIVE.,#1115);
#1117=PRESENTATION_STYLE_ASSIGNMENT((#1116));
#1118=STYLED_ITEM('',(#1117),#1111);
#1119=CARTESIAN_POINT('',(-4.83E0,-4.1E0,1.55E0));
#1120=DIRECTION('',(0.E0,0.E0,-1.E0));
#1121=DIRECTION('',(-1.E0,0.E0,0.E0));
#1122=AXIS2_PLACEMENT_3D('',#1119,#1120,#1121);
#1123=PLANE('',#1122);
#1124=ORIENTED_EDGE('',*,*,#612,.F.);
#1126=ORIENTED_EDGE('',*,*,#1125,.T.);
#1127=ORIENTED_EDGE('',*,*,#1032,.T.);
#1129=ORIENTED_EDGE('',*,*,#1128,.F.);
#1130=EDGE_LOOP('',(#1124,#1126,#1127,#1129));
#1131=FACE_OUTER_BOUND('',#1130,.F.);
#1132=ADVANCED_FACE('',(#1131),#1123,.T.);
#1133=FILL_AREA_STYLE_COLOUR('',#101);
#1134=FILL_AREA_STYLE('',(#1133));
#1135=SURFACE_STYLE_FILL_AREA(#1134);
#1136=SURFACE_SIDE_STYLE('',(#1135));
#1137=SURFACE_STYLE_USAGE(.POSITIVE.,#1136);
#1138=PRESENTATION_STYLE_ASSIGNMENT((#1137));
#1139=STYLED_ITEM('',(#1138),#1132);
#1140=CARTESIAN_POINT('',(-4.83E0,-4.1E0,1.85E0));
#1141=DIRECTION('',(1.E0,0.E0,0.E0));
#1142=DIRECTION('',(0.E0,0.E0,-1.E0));
#1143=AXIS2_PLACEMENT_3D('',#1140,#1141,#1142);
#1144=PLANE('',#1143);
#1145=ORIENTED_EDGE('',*,*,#618,.F.);
#1147=ORIENTED_EDGE('',*,*,#1146,.T.);
#1148=ORIENTED_EDGE('',*,*,#1034,.T.);
#1149=ORIENTED_EDGE('',*,*,#1125,.F.);
#1150=EDGE_LOOP('',(#1145,#1147,#1148,#1149));
#1151=FACE_OUTER_BOUND('',#1150,.F.);
#1152=ADVANCED_FACE('',(#1151),#1144,.T.);
#1153=FILL_AREA_STYLE_COLOUR('',#101);
#1154=FILL_AREA_STYLE('',(#1153));
#1155=SURFACE_STYLE_FILL_AREA(#1154);
#1156=SURFACE_SIDE_STYLE('',(#1155));
#1157=SURFACE_STYLE_USAGE(.POSITIVE.,#1156);
#1158=PRESENTATION_STYLE_ASSIGNMENT((#1157));
#1159=STYLED_ITEM('',(#1158),#1152);
#1160=CARTESIAN_POINT('',(-5.33E0,-4.1E0,1.85E0));
#1161=DIRECTION('',(0.E0,0.E0,1.E0));
#1162=DIRECTION('',(1.E0,0.E0,0.E0));
#1163=AXIS2_PLACEMENT_3D('',#1160,#1161,#1162);
#1164=PLANE('',#1163);
#1165=ORIENTED_EDGE('',*,*,#616,.F.);
#1167=ORIENTED_EDGE('',*,*,#1166,.T.);
#1168=ORIENTED_EDGE('',*,*,#1036,.T.);
#1169=ORIENTED_EDGE('',*,*,#1146,.F.);
#1170=EDGE_LOOP('',(#1165,#1167,#1168,#1169));
#1171=FACE_OUTER_BOUND('',#1170,.F.);
#1172=ADVANCED_FACE('',(#1171),#1164,.T.);
#1173=FILL_AREA_STYLE_COLOUR('',#101);
#1174=FILL_AREA_STYLE('',(#1173));
#1175=SURFACE_STYLE_FILL_AREA(#1174);
#1176=SURFACE_SIDE_STYLE('',(#1175));
#1177=SURFACE_STYLE_USAGE(.POSITIVE.,#1176);
#1178=PRESENTATION_STYLE_ASSIGNMENT((#1177));
#1179=STYLED_ITEM('',(#1178),#1172);
#1180=CARTESIAN_POINT('',(-5.33E0,-4.1E0,1.55E0));
#1181=DIRECTION('',(-1.E0,0.E0,0.E0));
#1182=DIRECTION('',(0.E0,0.E0,1.E0));
#1183=AXIS2_PLACEMENT_3D('',#1180,#1181,#1182);
#1184=PLANE('',#1183);
#1185=ORIENTED_EDGE('',*,*,#614,.F.);
#1186=ORIENTED_EDGE('',*,*,#1128,.T.);
#1187=ORIENTED_EDGE('',*,*,#1038,.T.);
#1188=ORIENTED_EDGE('',*,*,#1166,.F.);
#1189=EDGE_LOOP('',(#1185,#1186,#1187,#1188));
#1190=FACE_OUTER_BOUND('',#1189,.F.);
#1191=ADVANCED_FACE('',(#1190),#1184,.T.);
#1192=FILL_AREA_STYLE_COLOUR('',#101);
#1193=FILL_AREA_STYLE('',(#1192));
#1194=SURFACE_STYLE_FILL_AREA(#1193);
#1195=SURFACE_SIDE_STYLE('',(#1194));
#1196=SURFACE_STYLE_USAGE(.POSITIVE.,#1195);
#1197=PRESENTATION_STYLE_ASSIGNMENT((#1196));
#1198=STYLED_ITEM('',(#1197),#1191);
#1199=CARTESIAN_POINT('',(2.79E0,-4.1E0,1.55E0));
#1200=DIRECTION('',(0.E0,0.E0,-1.E0));
#1201=DIRECTION('',(-1.E0,0.E0,0.E0));
#1202=AXIS2_PLACEMENT_3D('',#1199,#1200,#1201);
#1203=PLANE('',#1202);
#1204=ORIENTED_EDGE('',*,*,#622,.F.);
#1206=ORIENTED_EDGE('',*,*,#1205,.T.);
#1207=ORIENTED_EDGE('',*,*,#1055,.T.);
#1209=ORIENTED_EDGE('',*,*,#1208,.F.);
#1210=EDGE_LOOP('',(#1204,#1206,#1207,#1209));
#1211=FACE_OUTER_BOUND('',#1210,.F.);
#1212=ADVANCED_FACE('',(#1211),#1203,.T.);
#1213=FILL_AREA_STYLE_COLOUR('',#101);
#1214=FILL_AREA_STYLE('',(#1213));
#1215=SURFACE_STYLE_FILL_AREA(#1214);
#1216=SURFACE_SIDE_STYLE('',(#1215));
#1217=SURFACE_STYLE_USAGE(.POSITIVE.,#1216);
#1218=PRESENTATION_STYLE_ASSIGNMENT((#1217));
#1219=STYLED_ITEM('',(#1218),#1212);
#1220=CARTESIAN_POINT('',(2.79E0,-4.1E0,1.85E0));
#1221=DIRECTION('',(1.E0,0.E0,0.E0));
#1222=DIRECTION('',(0.E0,0.E0,-1.E0));
#1223=AXIS2_PLACEMENT_3D('',#1220,#1221,#1222);
#1224=PLANE('',#1223);
#1225=ORIENTED_EDGE('',*,*,#628,.F.);
#1227=ORIENTED_EDGE('',*,*,#1226,.T.);
#1228=ORIENTED_EDGE('',*,*,#1057,.T.);
#1229=ORIENTED_EDGE('',*,*,#1205,.F.);
#1230=EDGE_LOOP('',(#1225,#1227,#1228,#1229));
#1231=FACE_OUTER_BOUND('',#1230,.F.);
#1232=ADVANCED_FACE('',(#1231),#1224,.T.);
#1233=FILL_AREA_STYLE_COLOUR('',#101);
#1234=FILL_AREA_STYLE('',(#1233));
#1235=SURFACE_STYLE_FILL_AREA(#1234);
#1236=SURFACE_SIDE_STYLE('',(#1235));
#1237=SURFACE_STYLE_USAGE(.POSITIVE.,#1236);
#1238=PRESENTATION_STYLE_ASSIGNMENT((#1237));
#1239=STYLED_ITEM('',(#1238),#1232);
#1240=CARTESIAN_POINT('',(2.29E0,-4.1E0,1.85E0));
#1241=DIRECTION('',(0.E0,0.E0,1.E0));
#1242=DIRECTION('',(1.E0,0.E0,0.E0));
#1243=AXIS2_PLACEMENT_3D('',#1240,#1241,#1242);
#1244=PLANE('',#1243);
#1245=ORIENTED_EDGE('',*,*,#626,.F.);
#1247=ORIENTED_EDGE('',*,*,#1246,.T.);
#1248=ORIENTED_EDGE('',*,*,#1059,.T.);
#1249=ORIENTED_EDGE('',*,*,#1226,.F.);
#1250=EDGE_LOOP('',(#1245,#1247,#1248,#1249));
#1251=FACE_OUTER_BOUND('',#1250,.F.);
#1252=ADVANCED_FACE('',(#1251),#1244,.T.);
#1253=FILL_AREA_STYLE_COLOUR('',#101);
#1254=FILL_AREA_STYLE('',(#1253));
#1255=SURFACE_STYLE_FILL_AREA(#1254);
#1256=SURFACE_SIDE_STYLE('',(#1255));
#1257=SURFACE_STYLE_USAGE(.POSITIVE.,#1256);
#1258=PRESENTATION_STYLE_ASSIGNMENT((#1257));
#1259=STYLED_ITEM('',(#1258),#1252);
#1260=CARTESIAN_POINT('',(2.29E0,-4.1E0,1.55E0));
#1261=DIRECTION('',(-1.E0,0.E0,0.E0));
#1262=DIRECTION('',(0.E0,0.E0,1.E0));
#1263=AXIS2_PLACEMENT_3D('',#1260,#1261,#1262);
#1264=PLANE('',#1263);
#1265=ORIENTED_EDGE('',*,*,#624,.F.);
#1266=ORIENTED_EDGE('',*,*,#1208,.T.);
#1267=ORIENTED_EDGE('',*,*,#1061,.T.);
#1268=ORIENTED_EDGE('',*,*,#1246,.F.);
#1269=EDGE_LOOP('',(#1265,#1266,#1267,#1268));
#1270=FACE_OUTER_BOUND('',#1269,.F.);
#1271=ADVANCED_FACE('',(#1270),#1264,.T.);
#1272=FILL_AREA_STYLE_COLOUR('',#101);
#1273=FILL_AREA_STYLE('',(#1272));
#1274=SURFACE_STYLE_FILL_AREA(#1273);
#1275=SURFACE_SIDE_STYLE('',(#1274));
#1276=SURFACE_STYLE_USAGE(.POSITIVE.,#1275);
#1277=PRESENTATION_STYLE_ASSIGNMENT((#1276));
#1278=STYLED_ITEM('',(#1277),#1271);
#1279=CARTESIAN_POINT('',(5.33E0,-4.1E0,1.55E0));
#1280=DIRECTION('',(0.E0,0.E0,-1.E0));
#1281=DIRECTION('',(-1.E0,0.E0,0.E0));
#1282=AXIS2_PLACEMENT_3D('',#1279,#1280,#1281);
#1283=PLANE('',#1282);
#1284=ORIENTED_EDGE('',*,*,#632,.F.);
#1286=ORIENTED_EDGE('',*,*,#1285,.T.);
#1287=ORIENTED_EDGE('',*,*,#1078,.T.);
#1289=ORIENTED_EDGE('',*,*,#1288,.F.);
#1290=EDGE_LOOP('',(#1284,#1286,#1287,#1289));
#1291=FACE_OUTER_BOUND('',#1290,.F.);
#1292=ADVANCED_FACE('',(#1291),#1283,.T.);
#1293=FILL_AREA_STYLE_COLOUR('',#101);
#1294=FILL_AREA_STYLE('',(#1293));
#1295=SURFACE_STYLE_FILL_AREA(#1294);
#1296=SURFACE_SIDE_STYLE('',(#1295));
#1297=SURFACE_STYLE_USAGE(.POSITIVE.,#1296);
#1298=PRESENTATION_STYLE_ASSIGNMENT((#1297));
#1299=STYLED_ITEM('',(#1298),#1292);
#1300=CARTESIAN_POINT('',(5.33E0,-4.1E0,1.85E0));
#1301=DIRECTION('',(1.E0,0.E0,0.E0));
#1302=DIRECTION('',(0.E0,0.E0,-1.E0));
#1303=AXIS2_PLACEMENT_3D('',#1300,#1301,#1302);
#1304=PLANE('',#1303);
#1305=ORIENTED_EDGE('',*,*,#638,.F.);
#1307=ORIENTED_EDGE('',*,*,#1306,.T.);
#1308=ORIENTED_EDGE('',*,*,#1080,.T.);
#1309=ORIENTED_EDGE('',*,*,#1285,.F.);
#1310=EDGE_LOOP('',(#1305,#1307,#1308,#1309));
#1311=FACE_OUTER_BOUND('',#1310,.F.);
#1312=ADVANCED_FACE('',(#1311),#1304,.T.);
#1313=FILL_AREA_STYLE_COLOUR('',#101);
#1314=FILL_AREA_STYLE('',(#1313));
#1315=SURFACE_STYLE_FILL_AREA(#1314);
#1316=SURFACE_SIDE_STYLE('',(#1315));
#1317=SURFACE_STYLE_USAGE(.POSITIVE.,#1316);
#1318=PRESENTATION_STYLE_ASSIGNMENT((#1317));
#1319=STYLED_ITEM('',(#1318),#1312);
#1320=CARTESIAN_POINT('',(4.83E0,-4.1E0,1.85E0));
#1321=DIRECTION('',(0.E0,0.E0,1.E0));
#1322=DIRECTION('',(1.E0,0.E0,0.E0));
#1323=AXIS2_PLACEMENT_3D('',#1320,#1321,#1322);
#1324=PLANE('',#1323);
#1325=ORIENTED_EDGE('',*,*,#636,.F.);
#1327=ORIENTED_EDGE('',*,*,#1326,.T.);
#1328=ORIENTED_EDGE('',*,*,#1082,.T.);
#1329=ORIENTED_EDGE('',*,*,#1306,.F.);
#1330=EDGE_LOOP('',(#1325,#1327,#1328,#1329));
#1331=FACE_OUTER_BOUND('',#1330,.F.);
#1332=ADVANCED_FACE('',(#1331),#1324,.T.);
#1333=FILL_AREA_STYLE_COLOUR('',#101);
#1334=FILL_AREA_STYLE('',(#1333));
#1335=SURFACE_STYLE_FILL_AREA(#1334);
#1336=SURFACE_SIDE_STYLE('',(#1335));
#1337=SURFACE_STYLE_USAGE(.POSITIVE.,#1336);
#1338=PRESENTATION_STYLE_ASSIGNMENT((#1337));
#1339=STYLED_ITEM('',(#1338),#1332);
#1340=CARTESIAN_POINT('',(4.83E0,-4.1E0,1.55E0));
#1341=DIRECTION('',(-1.E0,0.E0,0.E0));
#1342=DIRECTION('',(0.E0,0.E0,1.E0));
#1343=AXIS2_PLACEMENT_3D('',#1340,#1341,#1342);
#1344=PLANE('',#1343);
#1345=ORIENTED_EDGE('',*,*,#634,.F.);
#1346=ORIENTED_EDGE('',*,*,#1288,.T.);
#1347=ORIENTED_EDGE('',*,*,#1084,.T.);
#1348=ORIENTED_EDGE('',*,*,#1326,.F.);
#1349=EDGE_LOOP('',(#1345,#1346,#1347,#1348));
#1350=FACE_OUTER_BOUND('',#1349,.F.);
#1351=ADVANCED_FACE('',(#1350),#1344,.T.);
#1352=FILL_AREA_STYLE_COLOUR('',#101);
#1353=FILL_AREA_STYLE('',(#1352));
#1354=SURFACE_STYLE_FILL_AREA(#1353);
#1355=SURFACE_SIDE_STYLE('',(#1354));
#1356=SURFACE_STYLE_USAGE(.POSITIVE.,#1355);
#1357=PRESENTATION_STYLE_ASSIGNMENT((#1356));
#1358=STYLED_ITEM('',(#1357),#1351);
#1359=CARTESIAN_POINT('',(7.87E0,-4.1E0,1.55E0));
#1360=DIRECTION('',(0.E0,0.E0,-1.E0));
#1361=DIRECTION('',(-1.E0,0.E0,0.E0));
#1362=AXIS2_PLACEMENT_3D('',#1359,#1360,#1361);
#1363=PLANE('',#1362);
#1364=ORIENTED_EDGE('',*,*,#642,.F.);
#1366=ORIENTED_EDGE('',*,*,#1365,.T.);
#1367=ORIENTED_EDGE('',*,*,#1101,.T.);
#1369=ORIENTED_EDGE('',*,*,#1368,.F.);
#1370=EDGE_LOOP('',(#1364,#1366,#1367,#1369));
#1371=FACE_OUTER_BOUND('',#1370,.F.);
#1372=ADVANCED_FACE('',(#1371),#1363,.T.);
#1373=FILL_AREA_STYLE_COLOUR('',#101);
#1374=FILL_AREA_STYLE('',(#1373));
#1375=SURFACE_STYLE_FILL_AREA(#1374);
#1376=SURFACE_SIDE_STYLE('',(#1375));
#1377=SURFACE_STYLE_USAGE(.POSITIVE.,#1376);
#1378=PRESENTATION_STYLE_ASSIGNMENT((#1377));
#1379=STYLED_ITEM('',(#1378),#1372);
#1380=CARTESIAN_POINT('',(7.87E0,-4.1E0,1.85E0));
#1381=DIRECTION('',(1.E0,0.E0,0.E0));
#1382=DIRECTION('',(0.E0,0.E0,-1.E0));
#1383=AXIS2_PLACEMENT_3D('',#1380,#1381,#1382);
#1384=PLANE('',#1383);
#1385=ORIENTED_EDGE('',*,*,#648,.F.);
#1387=ORIENTED_EDGE('',*,*,#1386,.T.);
#1388=ORIENTED_EDGE('',*,*,#1103,.T.);
#1389=ORIENTED_EDGE('',*,*,#1365,.F.);
#1390=EDGE_LOOP('',(#1385,#1387,#1388,#1389));
#1391=FACE_OUTER_BOUND('',#1390,.F.);
#1392=ADVANCED_FACE('',(#1391),#1384,.T.);
#1393=FILL_AREA_STYLE_COLOUR('',#101);
#1394=FILL_AREA_STYLE('',(#1393));
#1395=SURFACE_STYLE_FILL_AREA(#1394);
#1396=SURFACE_SIDE_STYLE('',(#1395));
#1397=SURFACE_STYLE_USAGE(.POSITIVE.,#1396);
#1398=PRESENTATION_STYLE_ASSIGNMENT((#1397));
#1399=STYLED_ITEM('',(#1398),#1392);
#1400=CARTESIAN_POINT('',(7.37E0,-4.1E0,1.85E0));
#1401=DIRECTION('',(0.E0,0.E0,1.E0));
#1402=DIRECTION('',(1.E0,0.E0,0.E0));
#1403=AXIS2_PLACEMENT_3D('',#1400,#1401,#1402);
#1404=PLANE('',#1403);
#1405=ORIENTED_EDGE('',*,*,#646,.F.);
#1407=ORIENTED_EDGE('',*,*,#1406,.T.);
#1408=ORIENTED_EDGE('',*,*,#1105,.T.);
#1409=ORIENTED_EDGE('',*,*,#1386,.F.);
#1410=EDGE_LOOP('',(#1405,#1407,#1408,#1409));
#1411=FACE_OUTER_BOUND('',#1410,.F.);
#1412=ADVANCED_FACE('',(#1411),#1404,.T.);
#1413=FILL_AREA_STYLE_COLOUR('',#101);
#1414=FILL_AREA_STYLE('',(#1413));
#1415=SURFACE_STYLE_FILL_AREA(#1414);
#1416=SURFACE_SIDE_STYLE('',(#1415));
#1417=SURFACE_STYLE_USAGE(.POSITIVE.,#1416);
#1418=PRESENTATION_STYLE_ASSIGNMENT((#1417));
#1419=STYLED_ITEM('',(#1418),#1412);
#1420=CARTESIAN_POINT('',(7.37E0,-4.1E0,1.55E0));
#1421=DIRECTION('',(-1.E0,0.E0,0.E0));
#1422=DIRECTION('',(0.E0,0.E0,1.E0));
#1423=AXIS2_PLACEMENT_3D('',#1420,#1421,#1422);
#1424=PLANE('',#1423);
#1425=ORIENTED_EDGE('',*,*,#644,.F.);
#1426=ORIENTED_EDGE('',*,*,#1368,.T.);
#1427=ORIENTED_EDGE('',*,*,#1107,.T.);
#1428=ORIENTED_EDGE('',*,*,#1406,.F.);
#1429=EDGE_LOOP('',(#1425,#1426,#1427,#1428));
#1430=FACE_OUTER_BOUND('',#1429,.F.);
#1431=ADVANCED_FACE('',(#1430),#1424,.T.);
#1432=FILL_AREA_STYLE_COLOUR('',#101);
#1433=FILL_AREA_STYLE('',(#1432));
#1434=SURFACE_STYLE_FILL_AREA(#1433);
#1435=SURFACE_SIDE_STYLE('',(#1434));
#1436=SURFACE_STYLE_USAGE(.POSITIVE.,#1435);
#1437=PRESENTATION_STYLE_ASSIGNMENT((#1436));
#1438=STYLED_ITEM('',(#1437),#1431);
#1439=CLOSED_SHELL('',(#652,#682,#703,#724,#758,#778,#798,#818,#838,#857,#879,
#899,#916,#938,#959,#980,#1000,#1019,#1042,#1065,#1088,#1111,#1132,#1152,#1172,
#1191,#1212,#1232,#1252,#1271,#1292,#1312,#1332,#1351,#1372,#1392,#1412,#1431));
#1440=MANIFOLD_SOLID_BREP('',#1439);
#1441=PRESENTATION_LAYER_ASSIGNMENT('___SHELL','',(#1440));
#1442=PRESENTATION_LAYER_ASSIGNMENT('COLOR37','',(#1440));
#1443=PRESENTATION_LAYER_ASSIGNMENT('___SHELL_3','',(#1440));
#1444=PRESENTATION_LAYER_ASSIGNMENT('PIN_1_1_6','',(#1440));
#1445=PRESENTATION_LAYER_ASSIGNMENT('INTFCLR_73_5','',(#1440));
#1446=PRESENTATION_LAYER_ASSIGNMENT('___SHELL_6','',(#1440));
#1447=PRESENTATION_LAYER_ASSIGNMENT('PIN_1_1_4','',(#1440));
#1448=PRESENTATION_LAYER_ASSIGNMENT('INTFCLR_73','',(#1440));
#1449=PRESENTATION_LAYER_ASSIGNMENT('___SHELL_1','',(#1440));
#1450=PRESENTATION_LAYER_ASSIGNMENT('PIN_1_1_1','',(#1440));
#1451=PRESENTATION_LAYER_ASSIGNMENT('INTFCLR_73_4','',(#1440));
#1452=PRESENTATION_LAYER_ASSIGNMENT('___SHELL_4','',(#1440));
#1453=PRESENTATION_LAYER_ASSIGNMENT('PIN_1_1','',(#1440));
#1454=PRESENTATION_LAYER_ASSIGNMENT('COLOR47','',(#1440));
#1455=PRESENTATION_LAYER_ASSIGNMENT('___SHELL_2','',(#1440));
#1456=PRESENTATION_LAYER_ASSIGNMENT('11000063_1_1','',(#1440));
#1457=PRESENTATION_LAYER_ASSIGNMENT('MSBR-8_1','',(#1440));
#1458=PRESENTATION_LAYER_ASSIGNMENT('MSBR-6_1','',(#1440));
#1459=PRESENTATION_LAYER_ASSIGNMENT('MSBR-3_1','',(#1440));
#1460=PRESENTATION_LAYER_ASSIGNMENT('MSBR-2_1','',(#1440));
#1461=PRESENTATION_LAYER_ASSIGNMENT('MSBR-1_1','',(#1440));
#1463=DIMENSIONAL_EXPONENTS(0.E0,0.E0,0.E0,0.E0,0.E0,0.E0,0.E0);
#1465=PLANE_ANGLE_MEASURE_WITH_UNIT(PLANE_ANGLE_MEASURE(1.745329251994E-2),
#1464);
#1466=(CONVERSION_BASED_UNIT('DEGREE',#1465)NAMED_UNIT(*)PLANE_ANGLE_UNIT());
#1468=UNCERTAINTY_MEASURE_WITH_UNIT(LENGTH_MEASURE(2.741878650129E-3),#1462,
'closure',
'Maximum model space distance between geometric entities at asserted connectivities');
#1469=(GEOMETRIC_REPRESENTATION_CONTEXT(3)GLOBAL_UNCERTAINTY_ASSIGNED_CONTEXT((
#1468))GLOBAL_UNIT_ASSIGNED_CONTEXT((#1462,#1466,#1467))REPRESENTATION_CONTEXT(
'ID1','3'));
#1471=MECHANICAL_DESIGN_GEOMETRIC_PRESENTATION_REPRESENTATION('',(#659,#689,
#710,#731,#765,#785,#805,#825,#845,#864,#886,#906,#923,#945,#966,#987,#1007,
#1026,#1049,#1072,#1095,#1118,#1139,#1159,#1179,#1198,#1219,#1239,#1259,#1278,
#1299,#1319,#1339,#1358,#1379,#1399,#1419,#1438),#1469);
#1472=APPLICATION_CONTEXT(
'CONFIGURATION CONTROLLED 3D DESIGNS OF MECHANICAL PARTS AND ASSEMBLIES');
#1473=APPLICATION_PROTOCOL_DEFINITION('international standard',
'config_control_design',1994,#1472);
#1474=DESIGN_CONTEXT('',#1472,'design');
#1475=MECHANICAL_CONTEXT('',#1472,'mechanical');
#1476=PRODUCT('QAXX3C-R3','QAXX3C-R3','NOT SPECIFIED',(#1475));
#1477=PRODUCT_DEFINITION_FORMATION_WITH_SPECIFIED_SOURCE('1','LAST_VERSION',
#1476,.MADE.);
#1481=PRODUCT_CATEGORY('part','');
#1482=PRODUCT_RELATED_PRODUCT_CATEGORY('detail','',(#1476));
#1483=PRODUCT_CATEGORY_RELATIONSHIP('','',#1481,#1482);
#1484=SECURITY_CLASSIFICATION_LEVEL('unclassified');
#1485=SECURITY_CLASSIFICATION('','',#1484);
#1486=CC_DESIGN_SECURITY_CLASSIFICATION(#1485,(#1477));
#1487=APPROVAL_STATUS('approved');
#1488=APPROVAL(#1487,'');
#1489=CC_DESIGN_APPROVAL(#1488,(#1485,#1477,#1478));
#1490=CALENDAR_DATE(122,15,4);
#1491=COORDINATED_UNIVERSAL_TIME_OFFSET(8,0,.AHEAD.);
#1492=LOCAL_TIME(11,20,2.2E1,#1491);
#1493=DATE_AND_TIME(#1490,#1492);
#1494=APPROVAL_DATE_TIME(#1493,#1488);
#1495=DATE_TIME_ROLE('creation_date');
#1496=CC_DESIGN_DATE_AND_TIME_ASSIGNMENT(#1493,#1495,(#1478));
#1497=DATE_TIME_ROLE('classification_date');
#1498=CC_DESIGN_DATE_AND_TIME_ASSIGNMENT(#1493,#1497,(#1485));
#1499=PERSON('UNSPECIFIED','UNSPECIFIED',$,$,$,$);
#1500=ORGANIZATION('UNSPECIFIED','UNSPECIFIED','UNSPECIFIED');
#1501=PERSON_AND_ORGANIZATION(#1499,#1500);
#1502=APPROVAL_ROLE('approver');
#1503=APPROVAL_PERSON_ORGANIZATION(#1501,#1488,#1502);
#1504=PERSON_AND_ORGANIZATION_ROLE('creator');
#1505=CC_DESIGN_PERSON_AND_ORGANIZATION_ASSIGNMENT(#1501,#1504,(#1477,#1478));
#1506=PERSON_AND_ORGANIZATION_ROLE('design_supplier');
#1507=CC_DESIGN_PERSON_AND_ORGANIZATION_ASSIGNMENT(#1501,#1506,(#1477));
#1508=PERSON_AND_ORGANIZATION_ROLE('classification_officer');
#1509=CC_DESIGN_PERSON_AND_ORGANIZATION_ASSIGNMENT(#1501,#1508,(#1485));
#1510=PERSON_AND_ORGANIZATION_ROLE('design_owner');
#1511=CC_DESIGN_PERSON_AND_ORGANIZATION_ASSIGNMENT(#1501,#1510,(#1476));
#1=DRAUGHTING_PRE_DEFINED_COLOUR('black');
#2=COLOUR_RGB('',0.E0,0.E0,2.E-1);
#3=COLOUR_RGB('',0.E0,2.509803921569E-1,5.019607843137E-1);
#4=COLOUR_RGB('',0.E0,5.019607843137E-1,0.E0);
#5=COLOUR_RGB('',0.E0,6.588235294118E-1,1.E0);
#6=DRAUGHTING_PRE_DEFINED_COLOUR('green');
#7=DRAUGHTING_PRE_DEFINED_COLOUR('cyan');
#8=COLOUR_RGB('',1.1E-2,1.2E-2,1.E0);
#9=COLOUR_RGB('',6.666666666667E-2,8.E-1,1.E0);
#10=COLOUR_RGB('',7.843137254902E-2,1.411764705882E-1,1.803921568627E-1);
#11=COLOUR_RGB('',9.019607843137E-2,2.235294117647E-1,4.196078431373E-1);
#12=COLOUR_RGB('',1.019607843137E-1,5.490196078431E-1,1.E0);
#13=COLOUR_RGB('',1.137254901961E-1,1.E0,9.254901960784E-1);
#14=COLOUR_RGB('',1.215686274510E-1,3.803921568627E-1,8.509803921569E-1);
#15=COLOUR_RGB('',1.215686274510E-1,8.117647058824E-1,4.705882352941E-2);
#16=COLOUR_RGB('',1.215686274510E-1,9.294117647059E-1,4.784313725490E-1);
#17=COLOUR_RGB('',1.372549019608E-1,8.313725490196E-1,6.509803921569E-1);
#18=COLOUR_RGB('',1.411764705882E-1,4.705882352941E-1,1.960784313725E-1);
#19=COLOUR_RGB('',1.568627450980E-1,3.137254901961E-1,1.764705882353E-1);
#20=COLOUR_RGB('',1.686274509804E-1,7.215686274510E-1,9.607843137255E-1);
#21=COLOUR_RGB('',1.803921568627E-1,1.803921568627E-1,1.803921568627E-1);
#22=COLOUR_RGB('',1.882352941176E-1,1.E0,2.745098039216E-2);
#23=COLOUR_RGB('',1.960784313725E-1,1.E0,5.960784313725E-1);
#24=COLOUR_RGB('',2.E-1,2.E-1,6.E-1);
#25=COLOUR_RGB('',2.078431372549E-1,2.588235294118E-1,1.E0);
#26=COLOUR_RGB('',2.117647058824E-1,6.705882352941E-1,8.784313725490E-1);
#27=COLOUR_RGB('',2.117647058824E-1,7.607843137255E-1,7.411764705882E-1);
#28=COLOUR_RGB('',2.313725490196E-1,8.235294117647E-1,9.411764705882E-1);
#29=COLOUR_RGB('',2.509803921569E-1,2.509803921569E-1,2.509803921569E-1);
#30=COLOUR_RGB('',2.588235294118E-1,6.901960784314E-1,1.E0);
#31=COLOUR_RGB('',2.666666666667E-1,3.490196078431E-1,1.E0);
#32=COLOUR_RGB('',3.137254901961E-1,1.E0,2.666666666667E-1);
#33=COLOUR_RGB('',3.529411764706E-1,3.529411764706E-1,0.E0);
#34=COLOUR_RGB('',3.843137254902E-1,6.196078431373E-1,6.039215686275E-1);
#35=COLOUR_RGB('',3.92E-1,1.2E-2,1.2E-2);
#36=COLOUR_RGB('',3.921568691730E-1,3.921568691730E-1,3.921568691730E-1);
#37=COLOUR_RGB('',4.E-1,4.509803921569E-1,1.E0);
#38=COLOUR_RGB('',4.1E-1,0.E0,2.2E-1);
#39=COLOUR_RGB('',4.431372549020E-1,6.352941176471E-1,1.E0);
#40=COLOUR_RGB('',4.470588235294E-1,2.352941176471E-1,2.196078431373E-1);
#41=COLOUR_RGB('',4.509803921569E-1,4.509803921569E-1,4.509803921569E-1);
#42=COLOUR_RGB('',4.745098039216E-1,9.254901960784E-1,1.E0);
#43=COLOUR_RGB('',4.823529411765E-1,8.078431372549E-1,1.E0);
#44=COLOUR_RGB('',4.941176470588E-1,1.E0,8.862745098039E-1);
#45=COLOUR_RGB('',5.019607843137E-1,0.E0,5.019607843137E-1);
#46=COLOUR_RGB('',5.019607843137E-1,1.E0,5.019607843137E-1);
#47=COLOUR_RGB('',5.137254901961E-1,0.E0,0.E0);
#48=COLOUR_RGB('',5.764705882353E-1,6.470588235294E-1,1.E0);
#49=COLOUR_RGB('',5.882352941176E-1,9.137254901961E-1,1.E0);
#50=COLOUR_RGB('',5.921568627451E-1,2.156862745098E-1,8.313725490196E-1);
#51=COLOUR_RGB('',6.117647058824E-1,5.647058823529E-1,3.647058823529E-1);
#52=COLOUR_RGB('',6.392156862745E-1,4.E-1,2.078431372549E-1);
#53=COLOUR_RGB('',6.431372549020E-1,3.803921568627E-1,1.E0);
#54=COLOUR_RGB('',6.470588235294E-1,5.176470588235E-1,0.E0);
#55=COLOUR_RGB('',6.470588235294E-1,6.196078431373E-1,5.882352941176E-1);
#56=COLOUR_RGB('',6.509803921569E-1,1.E0,8.705882352941E-1);
#57=COLOUR_RGB('',6.627450980392E-1,9.411764705882E-1,5.843137254902E-1);
#58=COLOUR_RGB('',6.862745098039E-1,6.627450980392E-1,1.E0);
#59=COLOUR_RGB('',6.952E-1,7.426E-1,7.9E-1);
#60=COLOUR_RGB('',6.980392156863E-1,4.392156862745E-1,3.803921568627E-1);
#61=COLOUR_RGB('',7.058823529412E-1,9.333333333333E-1,1.E0);
#62=COLOUR_RGB('',7.333333333333E-1,3.529411764706E-1,8.313725490196E-1);
#63=COLOUR_RGB('',7.568627450980E-1,7.882352941176E-1,1.098039215686E-1);
#64=COLOUR_RGB('',7.607843137255E-1,5.176470588235E-1,6.274509803922E-1);
#65=COLOUR_RGB('',7.686274509804E-1,5.647058823529E-1,2.156862745098E-1);
#66=COLOUR_RGB('',7.803921568627E-1,1.E0,7.843137254902E-3);
#67=COLOUR_RGB('',7.84314E-1,7.84314E-1,7.84314E-1);
#68=COLOUR_RGB('',7.882352941176E-1,5.372549019608E-1,1.E0);
#69=COLOUR_RGB('',7.882352941176E-1,7.686274509804E-1,3.921568627451E-1);
#70=COLOUR_RGB('',7.882352941176E-1,9.411764705882E-1,3.019607843137E-1);
#71=COLOUR_RGB('',7.960784313725E-1,8.235294117647E-1,9.372549019608E-1);
#72=COLOUR_RGB('',7.960784313725E-1,1.E0,7.411764705882E-1);
#73=COLOUR_RGB('',8.E-1,5.294117647059E-1,8.588235294118E-1);
#74=COLOUR_RGB('',8.235294117647E-1,1.E0,1.137254901961E-1);
#75=COLOUR_RGB('',8.392156862745E-1,4.470588235294E-1,3.882352941176E-1);
#76=COLOUR_RGB('',8.470588235294E-1,8.470588235294E-1,8.470588235294E-1);
#77=COLOUR_RGB('',8.784E-1,9.49E-1,1.E0);
#78=COLOUR_RGB('',8.980392156863E-1,6.274509803922E-1,1.E0);
#79=COLOUR_RGB('',8.980389833450E-1,9.176470041280E-1,9.294120073320E-1);
#80=COLOUR_RGB('',9.098039215686E-1,4.431372549020E-1,3.137254901961E-2);
#81=COLOUR_RGB('',9.490196078431E-1,7.568627450980E-1,1.764705882353E-1);
#82=COLOUR_RGB('',9.490196078431E-1,9.411764705882E-1,7.882352941176E-1);
#83=COLOUR_RGB('',9.6E-1,9.6E-1,9.6E-1);
#84=COLOUR_RGB('',9.8E-1,6.27E-1,0.E0);
#85=COLOUR_RGB('',9.882352941176E-1,7.686274509804E-1,8.E-1);
#86=DRAUGHTING_PRE_DEFINED_COLOUR('red');
#87=COLOUR_RGB('',1.E0,0.E0,2.E-1);
#88=DRAUGHTING_PRE_DEFINED_COLOUR('magenta');
#89=COLOUR_RGB('',1.E0,1.921568627451E-1,2.745098039216E-1);
#90=COLOUR_RGB('',1.E0,2.862745098039E-1,9.490196078431E-1);
#91=COLOUR_RGB('',1.E0,4.588235294118E-1,1.411764705882E-1);
#92=COLOUR_RGB('',1.E0,5.019607843137E-1,0.E0);
#93=COLOUR_RGB('',1.E0,5.450980392157E-1,7.372549019608E-1);
#94=COLOUR_RGB('',1.E0,6.862745098039E-1,6.078431372549E-1);
#95=COLOUR_RGB('',1.E0,7.450980392157E-1,2.745098039216E-2);
#96=COLOUR_RGB('',1.E0,8.078431372549E-1,4.588235294118E-1);
#97=COLOUR_RGB('',1.E0,8.705882352941E-1,2.745098039216E-2);
#98=COLOUR_RGB('',1.E0,9.882352941176E-1,2.352941176471E-1);
#99=DRAUGHTING_PRE_DEFINED_COLOUR('yellow');
#100=COLOUR_RGB('',1.E0,1.E0,9.49E-1);
#101=COLOUR_RGB('',1.E0,1.E0,9.49E-1);
#102=DRAUGHTING_PRE_DEFINED_COLOUR('white');
#231=CIRCLE('',#230,5.E-1);
#236=CIRCLE('',#235,5.E-1);
#301=CIRCLE('',#300,5.E-1);
#306=CIRCLE('',#305,5.E-1);
#592=EDGE_CURVE('',#469,#470,#194,.T.);
#594=EDGE_CURVE('',#469,#472,#106,.T.);
#596=EDGE_CURVE('',#472,#474,#110,.T.);
#598=EDGE_CURVE('',#470,#474,#206,.T.);
#602=EDGE_CURVE('',#549,#550,#114,.T.);
#604=EDGE_CURVE('',#550,#552,#118,.T.);
#606=EDGE_CURVE('',#552,#554,#122,.T.);
#608=EDGE_CURVE('',#554,#549,#126,.T.);
#612=EDGE_CURVE('',#557,#558,#130,.T.);
#614=EDGE_CURVE('',#558,#560,#134,.T.);
#616=EDGE_CURVE('',#560,#562,#138,.T.);
#618=EDGE_CURVE('',#562,#557,#142,.T.);
#622=EDGE_CURVE('',#565,#566,#146,.T.);
#624=EDGE_CURVE('',#566,#568,#150,.T.);
#626=EDGE_CURVE('',#568,#570,#154,.T.);
#628=EDGE_CURVE('',#570,#565,#158,.T.);
#632=EDGE_CURVE('',#573,#574,#162,.T.);
#634=EDGE_CURVE('',#574,#576,#166,.T.);
#636=EDGE_CURVE('',#576,#578,#170,.T.);
#638=EDGE_CURVE('',#578,#573,#174,.T.);
#642=EDGE_CURVE('',#581,#582,#178,.T.);
#644=EDGE_CURVE('',#582,#584,#182,.T.);
#646=EDGE_CURVE('',#584,#586,#186,.T.);
#648=EDGE_CURVE('',#586,#581,#190,.T.);
#666=EDGE_CURVE('',#476,#470,#202,.T.);
#668=EDGE_CURVE('',#478,#476,#222,.T.);
#670=EDGE_CURVE('',#480,#478,#288,.T.);
#672=EDGE_CURVE('',#482,#480,#268,.T.);
#674=EDGE_CURVE('',#484,#482,#256,.T.);
#676=EDGE_CURVE('',#484,#486,#198,.T.);
#678=EDGE_CURVE('',#469,#486,#248,.T.);
#695=EDGE_CURVE('',#476,#488,#214,.T.);
#699=EDGE_CURVE('',#474,#488,#210,.T.);
#717=EDGE_CURVE('',#488,#490,#218,.T.);
#719=EDGE_CURVE('',#478,#490,#280,.T.);
#738=EDGE_CURVE('',#492,#472,#244,.T.);
#740=EDGE_CURVE('',#492,#494,#226,.T.);
#742=EDGE_CURVE('',#496,#494,#264,.T.);
#744=EDGE_CURVE('',#498,#496,#276,.T.);
#746=EDGE_CURVE('',#490,#498,#284,.T.);
#752=EDGE_CURVE('',#501,#502,#231,.T.);
#754=EDGE_CURVE('',#502,#501,#236,.T.);
#771=EDGE_CURVE('',#486,#492,#240,.T.);
#793=EDGE_CURVE('',#494,#484,#252,.T.);
#813=EDGE_CURVE('',#482,#496,#260,.T.);
#833=EDGE_CURVE('',#480,#498,#272,.T.);
#871=EDGE_CURVE('',#504,#501,#296,.T.);
#873=EDGE_CURVE('',#506,#504,#301,.T.);
#875=EDGE_CURVE('',#502,#506,#292,.T.);
#894=EDGE_CURVE('',#504,#506,#306,.T.);
#930=EDGE_CURVE('',#549,#509,#310,.T.);
#932=EDGE_CURVE('',#509,#510,#326,.T.);
#934=EDGE_CURVE('',#550,#510,#322,.T.);
#952=EDGE_CURVE('',#554,#514,#314,.T.);
#954=EDGE_CURVE('',#514,#509,#330,.T.);
#973=EDGE_CURVE('',#552,#512,#318,.T.);
#975=EDGE_CURVE('',#512,#514,#334,.T.);
#995=EDGE_CURVE('',#510,#512,#338,.T.);
#1032=EDGE_CURVE('',#517,#518,#342,.T.);
#1034=EDGE_CURVE('',#522,#517,#346,.T.);
#1036=EDGE_CURVE('',#520,#522,#350,.T.);
#1038=EDGE_CURVE('',#518,#520,#354,.T.);
#1055=EDGE_CURVE('',#525,#526,#358,.T.);
#1057=EDGE_CURVE('',#530,#525,#362,.T.);
#1059=EDGE_CURVE('',#528,#530,#366,.T.);
#1061=EDGE_CURVE('',#526,#528,#370,.T.);
#1078=EDGE_CURVE('',#533,#534,#374,.T.);
#1080=EDGE_CURVE('',#538,#533,#378,.T.);
#1082=EDGE_CURVE('',#536,#538,#382,.T.);
#1084=EDGE_CURVE('',#534,#536,#386,.T.);
#1101=EDGE_CURVE('',#541,#542,#390,.T.);
#1103=EDGE_CURVE('',#546,#541,#394,.T.);
#1105=EDGE_CURVE('',#544,#546,#398,.T.);
#1107=EDGE_CURVE('',#542,#544,#402,.T.);
#1125=EDGE_CURVE('',#557,#517,#406,.T.);
#1128=EDGE_CURVE('',#558,#518,#418,.T.);
#1146=EDGE_CURVE('',#562,#522,#410,.T.);
#1166=EDGE_CURVE('',#560,#520,#414,.T.);
#1205=EDGE_CURVE('',#565,#525,#422,.T.);
#1208=EDGE_CURVE('',#566,#526,#434,.T.);
#1226=EDGE_CURVE('',#570,#530,#426,.T.);
#1246=EDGE_CURVE('',#568,#528,#430,.T.);
#1285=EDGE_CURVE('',#573,#533,#438,.T.);
#1288=EDGE_CURVE('',#574,#534,#450,.T.);
#1306=EDGE_CURVE('',#578,#538,#442,.T.);
#1326=EDGE_CURVE('',#576,#536,#446,.T.);
#1365=EDGE_CURVE('',#581,#541,#454,.T.);
#1368=EDGE_CURVE('',#582,#542,#466,.T.);
#1386=EDGE_CURVE('',#586,#546,#458,.T.);
#1406=EDGE_CURVE('',#584,#544,#462,.T.);
#1462=(LENGTH_UNIT()NAMED_UNIT(*)SI_UNIT(.MILLI.,.METRE.));
#1464=(NAMED_UNIT(*)PLANE_ANGLE_UNIT()SI_UNIT($,.RADIAN.));
#1467=(NAMED_UNIT(*)SI_UNIT($,.STERADIAN.)SOLID_ANGLE_UNIT());
#1470=ADVANCED_BREP_SHAPE_REPRESENTATION('',(#1440),#1469);
#1478=PRODUCT_DEFINITION('design','',#1477,#1474);
#1479=PRODUCT_DEFINITION_SHAPE('','SHAPE FOR QAXX3C-R3.',#1478);
#1480=SHAPE_DEFINITION_REPRESENTATION(#1479,#1470);
ENDSEC;
END-ISO-10303-21;
