ISO-10303-21;
HEADER;
/* Generated by software containing ST-Developer
 * from STEP Tools, Inc. (www.steptools.com) 
 */

FILE_DESCRIPTION(
/* description */ (
'model of Mounting_Wuerth_WA-SMSI-M2_H2.5mm_9774025243',
'CAx-IF Rec.Pracs.---Representation and Presentation of Product Manufa
cturing Information (PMI)---4.0---2014-10-13'),
/* implementation_level */ '2;1');

FILE_NAME(
/* name */ 'Mounting_Wuerth_WA-SMSI-M2_H2_Hex.step',
/* time_stamp */ '2024-11-23T11:59:15-08:00',
/* author */ (''),
/* organization */ (''),
/* preprocessor_version */ 'ST-DEVELOPER v20',
/* originating_system */ 'Autodesk Translation Framework v13.20.0.188',

/* authorisation */ '');

FILE_SCHEMA (('AP242_MANAGED_MODEL_BASED_3D_ENGINEERING_MIM_LF { 1 0 10303 442 1 1 4 }'));
ENDSEC;

DATA;
#10=MECHANICAL_DESIGN_GEOMETRIC_PRESENTATION_REPRESENTATION('',(#13),#543);
#11=SHAPE_REPRESENTATION_RELATIONSHIP('SRR','None',#550,#12);
#12=ADVANCED_BREP_SHAPE_REPRESENTATION('',(#14),#542);
#13=STYLED_ITEM('',(#560),#14);
#14=MANIFOLD_SOLID_BREP('Body1',#311);
#15=FACE_BOUND('',#47,.T.);
#16=FACE_BOUND('',#59,.T.);
#17=FACE_BOUND('',#63,.T.);
#18=PLANE('',#328);
#19=PLANE('',#329);
#20=PLANE('',#338);
#21=PLANE('',#341);
#22=PLANE('',#344);
#23=PLANE('',#347);
#24=PLANE('',#350);
#25=PLANE('',#351);
#26=PLANE('',#357);
#27=FACE_OUTER_BOUND('',#44,.T.);
#28=FACE_OUTER_BOUND('',#45,.T.);
#29=FACE_OUTER_BOUND('',#46,.T.);
#30=FACE_OUTER_BOUND('',#48,.T.);
#31=FACE_OUTER_BOUND('',#49,.T.);
#32=FACE_OUTER_BOUND('',#50,.T.);
#33=FACE_OUTER_BOUND('',#51,.T.);
#34=FACE_OUTER_BOUND('',#52,.T.);
#35=FACE_OUTER_BOUND('',#53,.T.);
#36=FACE_OUTER_BOUND('',#54,.T.);
#37=FACE_OUTER_BOUND('',#55,.T.);
#38=FACE_OUTER_BOUND('',#56,.T.);
#39=FACE_OUTER_BOUND('',#57,.T.);
#40=FACE_OUTER_BOUND('',#58,.T.);
#41=FACE_OUTER_BOUND('',#60,.T.);
#42=FACE_OUTER_BOUND('',#61,.T.);
#43=FACE_OUTER_BOUND('',#62,.T.);
#44=EDGE_LOOP('',(#202,#203,#204,#205));
#45=EDGE_LOOP('',(#206,#207,#208,#209));
#46=EDGE_LOOP('',(#210,#211,#212,#213,#214,#215,#216,#217,#218,#219,#220,
#221));
#47=EDGE_LOOP('',(#222));
#48=EDGE_LOOP('',(#223,#224,#225,#226));
#49=EDGE_LOOP('',(#227,#228,#229,#230));
#50=EDGE_LOOP('',(#231,#232,#233,#234));
#51=EDGE_LOOP('',(#235,#236,#237,#238));
#52=EDGE_LOOP('',(#239,#240,#241,#242));
#53=EDGE_LOOP('',(#243,#244,#245,#246));
#54=EDGE_LOOP('',(#247,#248,#249,#250));
#55=EDGE_LOOP('',(#251,#252,#253,#254));
#56=EDGE_LOOP('',(#255,#256,#257,#258));
#57=EDGE_LOOP('',(#259,#260,#261,#262));
#58=EDGE_LOOP('',(#263,#264,#265,#266,#267,#268,#269,#270,#271,#272,#273,
#274));
#59=EDGE_LOOP('',(#275));
#60=EDGE_LOOP('',(#276,#277,#278,#279));
#61=EDGE_LOOP('',(#280,#281,#282,#283));
#62=EDGE_LOOP('',(#284));
#63=EDGE_LOOP('',(#285));
#64=LINE('',#458,#90);
#65=LINE('',#461,#91);
#66=LINE('',#464,#92);
#67=LINE('',#466,#93);
#68=LINE('',#467,#94);
#69=LINE('',#470,#95);
#70=LINE('',#474,#96);
#71=LINE('',#478,#97);
#72=LINE('',#482,#98);
#73=LINE('',#486,#99);
#74=LINE('',#492,#100);
#75=LINE('',#496,#101);
#76=LINE('',#497,#102);
#77=LINE('',#500,#103);
#78=LINE('',#504,#104);
#79=LINE('',#505,#105);
#80=LINE('',#508,#106);
#81=LINE('',#512,#107);
#82=LINE('',#513,#108);
#83=LINE('',#518,#109);
#84=LINE('',#519,#110);
#85=LINE('',#521,#111);
#86=LINE('',#524,#112);
#87=LINE('',#527,#113);
#88=LINE('',#533,#114);
#89=LINE('',#538,#115);
#90=VECTOR('',#364,10.);
#91=VECTOR('',#367,10.);
#92=VECTOR('',#370,10.);
#93=VECTOR('',#371,10.);
#94=VECTOR('',#372,10.);
#95=VECTOR('',#375,10.);
#96=VECTOR('',#378,10.);
#97=VECTOR('',#381,10.);
#98=VECTOR('',#384,10.);
#99=VECTOR('',#387,10.);
#100=VECTOR('',#394,10.);
#101=VECTOR('',#399,10.);
#102=VECTOR('',#400,10.);
#103=VECTOR('',#403,10.);
#104=VECTOR('',#408,10.);
#105=VECTOR('',#409,10.);
#106=VECTOR('',#412,10.);
#107=VECTOR('',#417,10.);
#108=VECTOR('',#418,10.);
#109=VECTOR('',#423,10.);
#110=VECTOR('',#424,10.);
#111=VECTOR('',#427,10.);
#112=VECTOR('',#430,10.);
#113=VECTOR('',#435,10.);
#114=VECTOR('',#442,1.4);
#115=VECTOR('',#449,0.785);
#116=CIRCLE('',#326,0.0879984184188148);
#117=CIRCLE('',#327,0.0879984184188148);
#118=CIRCLE('',#330,0.0879984184188148);
#119=CIRCLE('',#331,0.0879984184188148);
#120=CIRCLE('',#332,0.0879984184188148);
#121=CIRCLE('',#333,0.0879984184188148);
#122=CIRCLE('',#334,0.0879984184188148);
#123=CIRCLE('',#335,1.4);
#124=CIRCLE('',#337,0.0879984184188148);
#125=CIRCLE('',#340,0.0879984184188148);
#126=CIRCLE('',#343,0.0879984184188148);
#127=CIRCLE('',#346,0.0879984184188148);
#128=CIRCLE('',#349,0.0879984184188148);
#129=CIRCLE('',#352,0.785);
#130=CIRCLE('',#354,1.4);
#131=CIRCLE('',#356,0.785);
#132=VERTEX_POINT('',#454);
#133=VERTEX_POINT('',#455);
#134=VERTEX_POINT('',#457);
#135=VERTEX_POINT('',#459);
#136=VERTEX_POINT('',#463);
#137=VERTEX_POINT('',#465);
#138=VERTEX_POINT('',#469);
#139=VERTEX_POINT('',#471);
#140=VERTEX_POINT('',#473);
#141=VERTEX_POINT('',#475);
#142=VERTEX_POINT('',#477);
#143=VERTEX_POINT('',#479);
#144=VERTEX_POINT('',#481);
#145=VERTEX_POINT('',#483);
#146=VERTEX_POINT('',#485);
#147=VERTEX_POINT('',#488);
#148=VERTEX_POINT('',#491);
#149=VERTEX_POINT('',#495);
#150=VERTEX_POINT('',#499);
#151=VERTEX_POINT('',#503);
#152=VERTEX_POINT('',#507);
#153=VERTEX_POINT('',#511);
#154=VERTEX_POINT('',#515);
#155=VERTEX_POINT('',#516);
#156=VERTEX_POINT('',#523);
#157=VERTEX_POINT('',#529);
#158=VERTEX_POINT('',#532);
#159=VERTEX_POINT('',#536);
#160=EDGE_CURVE('',#132,#133,#116,.T.);
#161=EDGE_CURVE('',#133,#134,#64,.T.);
#162=EDGE_CURVE('',#134,#135,#117,.T.);
#163=EDGE_CURVE('',#135,#132,#65,.T.);
#164=EDGE_CURVE('',#136,#133,#66,.T.);
#165=EDGE_CURVE('',#137,#136,#67,.T.);
#166=EDGE_CURVE('',#134,#137,#68,.T.);
#167=EDGE_CURVE('',#132,#138,#69,.T.);
#168=EDGE_CURVE('',#139,#138,#118,.T.);
#169=EDGE_CURVE('',#139,#140,#70,.T.);
#170=EDGE_CURVE('',#141,#140,#119,.T.);
#171=EDGE_CURVE('',#141,#142,#71,.T.);
#172=EDGE_CURVE('',#143,#142,#120,.T.);
#173=EDGE_CURVE('',#143,#144,#72,.T.);
#174=EDGE_CURVE('',#145,#144,#121,.T.);
#175=EDGE_CURVE('',#145,#146,#73,.T.);
#176=EDGE_CURVE('',#136,#146,#122,.T.);
#177=EDGE_CURVE('',#147,#147,#123,.T.);
#178=EDGE_CURVE('',#146,#148,#74,.T.);
#179=EDGE_CURVE('',#148,#137,#124,.T.);
#180=EDGE_CURVE('',#149,#145,#75,.T.);
#181=EDGE_CURVE('',#148,#149,#76,.T.);
#182=EDGE_CURVE('',#144,#150,#77,.T.);
#183=EDGE_CURVE('',#150,#149,#125,.T.);
#184=EDGE_CURVE('',#151,#143,#78,.T.);
#185=EDGE_CURVE('',#150,#151,#79,.T.);
#186=EDGE_CURVE('',#142,#152,#80,.T.);
#187=EDGE_CURVE('',#152,#151,#126,.T.);
#188=EDGE_CURVE('',#153,#141,#81,.T.);
#189=EDGE_CURVE('',#152,#153,#82,.T.);
#190=EDGE_CURVE('',#154,#155,#127,.T.);
#191=EDGE_CURVE('',#155,#139,#83,.T.);
#192=EDGE_CURVE('',#138,#154,#84,.T.);
#193=EDGE_CURVE('',#154,#135,#85,.T.);
#194=EDGE_CURVE('',#140,#156,#86,.T.);
#195=EDGE_CURVE('',#156,#153,#128,.T.);
#196=EDGE_CURVE('',#156,#155,#87,.T.);
#197=EDGE_CURVE('',#157,#157,#129,.T.);
#198=EDGE_CURVE('',#147,#158,#88,.T.);
#199=EDGE_CURVE('',#158,#158,#130,.T.);
#200=EDGE_CURVE('',#159,#159,#131,.T.);
#201=EDGE_CURVE('',#159,#157,#89,.T.);
#202=ORIENTED_EDGE('',*,*,#160,.T.);
#203=ORIENTED_EDGE('',*,*,#161,.T.);
#204=ORIENTED_EDGE('',*,*,#162,.T.);
#205=ORIENTED_EDGE('',*,*,#163,.T.);
#206=ORIENTED_EDGE('',*,*,#161,.F.);
#207=ORIENTED_EDGE('',*,*,#164,.F.);
#208=ORIENTED_EDGE('',*,*,#165,.F.);
#209=ORIENTED_EDGE('',*,*,#166,.F.);
#210=ORIENTED_EDGE('',*,*,#160,.F.);
#211=ORIENTED_EDGE('',*,*,#167,.T.);
#212=ORIENTED_EDGE('',*,*,#168,.F.);
#213=ORIENTED_EDGE('',*,*,#169,.T.);
#214=ORIENTED_EDGE('',*,*,#170,.F.);
#215=ORIENTED_EDGE('',*,*,#171,.T.);
#216=ORIENTED_EDGE('',*,*,#172,.F.);
#217=ORIENTED_EDGE('',*,*,#173,.T.);
#218=ORIENTED_EDGE('',*,*,#174,.F.);
#219=ORIENTED_EDGE('',*,*,#175,.T.);
#220=ORIENTED_EDGE('',*,*,#176,.F.);
#221=ORIENTED_EDGE('',*,*,#164,.T.);
#222=ORIENTED_EDGE('',*,*,#177,.F.);
#223=ORIENTED_EDGE('',*,*,#176,.T.);
#224=ORIENTED_EDGE('',*,*,#178,.T.);
#225=ORIENTED_EDGE('',*,*,#179,.T.);
#226=ORIENTED_EDGE('',*,*,#165,.T.);
#227=ORIENTED_EDGE('',*,*,#178,.F.);
#228=ORIENTED_EDGE('',*,*,#175,.F.);
#229=ORIENTED_EDGE('',*,*,#180,.F.);
#230=ORIENTED_EDGE('',*,*,#181,.F.);
#231=ORIENTED_EDGE('',*,*,#174,.T.);
#232=ORIENTED_EDGE('',*,*,#182,.T.);
#233=ORIENTED_EDGE('',*,*,#183,.T.);
#234=ORIENTED_EDGE('',*,*,#180,.T.);
#235=ORIENTED_EDGE('',*,*,#182,.F.);
#236=ORIENTED_EDGE('',*,*,#173,.F.);
#237=ORIENTED_EDGE('',*,*,#184,.F.);
#238=ORIENTED_EDGE('',*,*,#185,.F.);
#239=ORIENTED_EDGE('',*,*,#172,.T.);
#240=ORIENTED_EDGE('',*,*,#186,.T.);
#241=ORIENTED_EDGE('',*,*,#187,.T.);
#242=ORIENTED_EDGE('',*,*,#184,.T.);
#243=ORIENTED_EDGE('',*,*,#186,.F.);
#244=ORIENTED_EDGE('',*,*,#171,.F.);
#245=ORIENTED_EDGE('',*,*,#188,.F.);
#246=ORIENTED_EDGE('',*,*,#189,.F.);
#247=ORIENTED_EDGE('',*,*,#190,.T.);
#248=ORIENTED_EDGE('',*,*,#191,.T.);
#249=ORIENTED_EDGE('',*,*,#168,.T.);
#250=ORIENTED_EDGE('',*,*,#192,.T.);
#251=ORIENTED_EDGE('',*,*,#163,.F.);
#252=ORIENTED_EDGE('',*,*,#193,.F.);
#253=ORIENTED_EDGE('',*,*,#192,.F.);
#254=ORIENTED_EDGE('',*,*,#167,.F.);
#255=ORIENTED_EDGE('',*,*,#170,.T.);
#256=ORIENTED_EDGE('',*,*,#194,.T.);
#257=ORIENTED_EDGE('',*,*,#195,.T.);
#258=ORIENTED_EDGE('',*,*,#188,.T.);
#259=ORIENTED_EDGE('',*,*,#191,.F.);
#260=ORIENTED_EDGE('',*,*,#196,.F.);
#261=ORIENTED_EDGE('',*,*,#194,.F.);
#262=ORIENTED_EDGE('',*,*,#169,.F.);
#263=ORIENTED_EDGE('',*,*,#162,.F.);
#264=ORIENTED_EDGE('',*,*,#166,.T.);
#265=ORIENTED_EDGE('',*,*,#179,.F.);
#266=ORIENTED_EDGE('',*,*,#181,.T.);
#267=ORIENTED_EDGE('',*,*,#183,.F.);
#268=ORIENTED_EDGE('',*,*,#185,.T.);
#269=ORIENTED_EDGE('',*,*,#187,.F.);
#270=ORIENTED_EDGE('',*,*,#189,.T.);
#271=ORIENTED_EDGE('',*,*,#195,.F.);
#272=ORIENTED_EDGE('',*,*,#196,.T.);
#273=ORIENTED_EDGE('',*,*,#190,.F.);
#274=ORIENTED_EDGE('',*,*,#193,.T.);
#275=ORIENTED_EDGE('',*,*,#197,.F.);
#276=ORIENTED_EDGE('',*,*,#177,.T.);
#277=ORIENTED_EDGE('',*,*,#198,.T.);
#278=ORIENTED_EDGE('',*,*,#199,.F.);
#279=ORIENTED_EDGE('',*,*,#198,.F.);
#280=ORIENTED_EDGE('',*,*,#200,.F.);
#281=ORIENTED_EDGE('',*,*,#201,.T.);
#282=ORIENTED_EDGE('',*,*,#197,.T.);
#283=ORIENTED_EDGE('',*,*,#201,.F.);
#284=ORIENTED_EDGE('',*,*,#199,.T.);
#285=ORIENTED_EDGE('',*,*,#200,.T.);
#286=CYLINDRICAL_SURFACE('',#325,0.0879984184188148);
#287=CYLINDRICAL_SURFACE('',#336,0.0879984184188148);
#288=CYLINDRICAL_SURFACE('',#339,0.0879984184188148);
#289=CYLINDRICAL_SURFACE('',#342,0.0879984184188148);
#290=CYLINDRICAL_SURFACE('',#345,0.0879984184188148);
#291=CYLINDRICAL_SURFACE('',#348,0.0879984184188148);
#292=CYLINDRICAL_SURFACE('',#353,1.4);
#293=CYLINDRICAL_SURFACE('',#355,0.785);
#294=ADVANCED_FACE('',(#27),#286,.T.);
#295=ADVANCED_FACE('',(#28),#18,.F.);
#296=ADVANCED_FACE('',(#29,#15),#19,.F.);
#297=ADVANCED_FACE('',(#30),#287,.T.);
#298=ADVANCED_FACE('',(#31),#20,.F.);
#299=ADVANCED_FACE('',(#32),#288,.T.);
#300=ADVANCED_FACE('',(#33),#21,.F.);
#301=ADVANCED_FACE('',(#34),#289,.T.);
#302=ADVANCED_FACE('',(#35),#22,.F.);
#303=ADVANCED_FACE('',(#36),#290,.T.);
#304=ADVANCED_FACE('',(#37),#23,.F.);
#305=ADVANCED_FACE('',(#38),#291,.T.);
#306=ADVANCED_FACE('',(#39),#24,.F.);
#307=ADVANCED_FACE('',(#40,#16),#25,.T.);
#308=ADVANCED_FACE('',(#41),#292,.T.);
#309=ADVANCED_FACE('',(#42),#293,.F.);
#310=ADVANCED_FACE('',(#43,#17),#26,.T.);
#311=CLOSED_SHELL('',(#294,#295,#296,#297,#298,#299,#300,#301,#302,#303,
#304,#305,#306,#307,#308,#309,#310));
#312=DERIVED_UNIT_ELEMENT(#314,1.);
#313=DERIVED_UNIT_ELEMENT(#545,-3.);
#314=(
MASS_UNIT()
NAMED_UNIT(*)
SI_UNIT(.KILO.,.GRAM.)
);
#315=DERIVED_UNIT((#312,#313));
#316=MEASURE_REPRESENTATION_ITEM('density measure',
POSITIVE_RATIO_MEASURE(7850.),#315);
#317=PROPERTY_DEFINITION_REPRESENTATION(#322,#319);
#318=PROPERTY_DEFINITION_REPRESENTATION(#323,#320);
#319=REPRESENTATION('material name',(#321),#542);
#320=REPRESENTATION('density',(#316),#542);
#321=DESCRIPTIVE_REPRESENTATION_ITEM('Steel','Steel');
#322=PROPERTY_DEFINITION('material property','material name',#552);
#323=PROPERTY_DEFINITION('material property','density of part',#552);
#324=AXIS2_PLACEMENT_3D('',#452,#358,#359);
#325=AXIS2_PLACEMENT_3D('',#453,#360,#361);
#326=AXIS2_PLACEMENT_3D('',#456,#362,#363);
#327=AXIS2_PLACEMENT_3D('',#460,#365,#366);
#328=AXIS2_PLACEMENT_3D('',#462,#368,#369);
#329=AXIS2_PLACEMENT_3D('',#468,#373,#374);
#330=AXIS2_PLACEMENT_3D('',#472,#376,#377);
#331=AXIS2_PLACEMENT_3D('',#476,#379,#380);
#332=AXIS2_PLACEMENT_3D('',#480,#382,#383);
#333=AXIS2_PLACEMENT_3D('',#484,#385,#386);
#334=AXIS2_PLACEMENT_3D('',#487,#388,#389);
#335=AXIS2_PLACEMENT_3D('',#489,#390,#391);
#336=AXIS2_PLACEMENT_3D('',#490,#392,#393);
#337=AXIS2_PLACEMENT_3D('',#493,#395,#396);
#338=AXIS2_PLACEMENT_3D('',#494,#397,#398);
#339=AXIS2_PLACEMENT_3D('',#498,#401,#402);
#340=AXIS2_PLACEMENT_3D('',#501,#404,#405);
#341=AXIS2_PLACEMENT_3D('',#502,#406,#407);
#342=AXIS2_PLACEMENT_3D('',#506,#410,#411);
#343=AXIS2_PLACEMENT_3D('',#509,#413,#414);
#344=AXIS2_PLACEMENT_3D('',#510,#415,#416);
#345=AXIS2_PLACEMENT_3D('',#514,#419,#420);
#346=AXIS2_PLACEMENT_3D('',#517,#421,#422);
#347=AXIS2_PLACEMENT_3D('',#520,#425,#426);
#348=AXIS2_PLACEMENT_3D('',#522,#428,#429);
#349=AXIS2_PLACEMENT_3D('',#525,#431,#432);
#350=AXIS2_PLACEMENT_3D('',#526,#433,#434);
#351=AXIS2_PLACEMENT_3D('',#528,#436,#437);
#352=AXIS2_PLACEMENT_3D('',#530,#438,#439);
#353=AXIS2_PLACEMENT_3D('',#531,#440,#441);
#354=AXIS2_PLACEMENT_3D('',#534,#443,#444);
#355=AXIS2_PLACEMENT_3D('',#535,#445,#446);
#356=AXIS2_PLACEMENT_3D('',#537,#447,#448);
#357=AXIS2_PLACEMENT_3D('',#539,#450,#451);
#358=DIRECTION('axis',(0.,0.,1.));
#359=DIRECTION('refdir',(1.,0.,0.));
#360=DIRECTION('center_axis',(0.,0.,-1.));
#361=DIRECTION('ref_axis',(0.00282884299523627,0.999995998815649,0.));
#362=DIRECTION('center_axis',(0.,0.,1.));
#363=DIRECTION('ref_axis',(0.00282884299523627,0.999995998815649,0.));
#364=DIRECTION('',(0.,0.,1.));
#365=DIRECTION('center_axis',(0.,0.,-1.));
#366=DIRECTION('ref_axis',(0.00282884299523627,0.999995998815649,0.));
#367=DIRECTION('',(0.,0.,-1.));
#368=DIRECTION('center_axis',(0.497548149510633,-0.867436360154763,0.));
#369=DIRECTION('ref_axis',(-0.867436360154763,-0.497548149510633,0.));
#370=DIRECTION('',(0.867436360154763,0.497548149510633,0.));
#371=DIRECTION('',(0.,0.,-1.));
#372=DIRECTION('',(-0.867436360154763,-0.497548149510633,0.));
#373=DIRECTION('center_axis',(0.,0.,1.));
#374=DIRECTION('ref_axis',(1.,0.,0.));
#375=DIRECTION('',(0.864607517159528,-0.502447849305016,0.));
#376=DIRECTION('center_axis',(0.,0.,1.));
#377=DIRECTION('ref_axis',(0.867436360154763,0.497548149510635,0.));
#378=DIRECTION('',(-0.00282884299523575,-0.999995998815649,0.));
#379=DIRECTION('center_axis',(0.,0.,1.));
#380=DIRECTION('ref_axis',(0.864607517159528,-0.502447849305016,0.));
#381=DIRECTION('',(-0.867436360154764,-0.497548149510633,0.));
#382=DIRECTION('center_axis',(0.,0.,1.));
#383=DIRECTION('ref_axis',(-0.00282884299523536,-0.999995998815649,0.));
#384=DIRECTION('',(-0.864607517159528,0.502447849305016,0.));
#385=DIRECTION('center_axis',(0.,0.,1.));
#386=DIRECTION('ref_axis',(-0.867436360154764,-0.497548149510632,0.));
#387=DIRECTION('',(0.00282884299523523,0.999995998815649,0.));
#388=DIRECTION('center_axis',(0.,0.,1.));
#389=DIRECTION('ref_axis',(-0.864607517159528,0.502447849305016,0.));
#390=DIRECTION('center_axis',(0.,0.,-1.));
#391=DIRECTION('ref_axis',(1.,0.,0.));
#392=DIRECTION('center_axis',(0.,0.,-1.));
#393=DIRECTION('ref_axis',(-0.864607517159528,0.502447849305016,0.));
#394=DIRECTION('',(0.,0.,1.));
#395=DIRECTION('center_axis',(0.,0.,-1.));
#396=DIRECTION('ref_axis',(-0.864607517159528,0.502447849305016,0.));
#397=DIRECTION('center_axis',(0.999995998815649,-0.00282884299523523,0.));
#398=DIRECTION('ref_axis',(-0.00282884299523523,-0.999995998815649,0.));
#399=DIRECTION('',(0.,0.,-1.));
#400=DIRECTION('',(-0.00282884299523523,-0.999995998815649,0.));
#401=DIRECTION('center_axis',(0.,0.,-1.));
#402=DIRECTION('ref_axis',(-0.867436360154764,-0.497548149510632,0.));
#403=DIRECTION('',(0.,0.,1.));
#404=DIRECTION('center_axis',(0.,0.,-1.));
#405=DIRECTION('ref_axis',(-0.867436360154764,-0.497548149510632,0.));
#406=DIRECTION('center_axis',(0.502447849305016,0.864607517159528,0.));
#407=DIRECTION('ref_axis',(0.864607517159528,-0.502447849305016,0.));
#408=DIRECTION('',(0.,0.,-1.));
#409=DIRECTION('',(0.864607517159528,-0.502447849305016,0.));
#410=DIRECTION('center_axis',(0.,0.,-1.));
#411=DIRECTION('ref_axis',(-0.00282884299523536,-0.999995998815649,0.));
#412=DIRECTION('',(0.,0.,1.));
#413=DIRECTION('center_axis',(0.,0.,-1.));
#414=DIRECTION('ref_axis',(-0.00282884299523536,-0.999995998815649,0.));
#415=DIRECTION('center_axis',(-0.497548149510633,0.867436360154764,0.));
#416=DIRECTION('ref_axis',(0.867436360154764,0.497548149510633,0.));
#417=DIRECTION('',(0.,0.,-1.));
#418=DIRECTION('',(0.867436360154764,0.497548149510633,0.));
#419=DIRECTION('center_axis',(0.,0.,1.));
#420=DIRECTION('ref_axis',(0.867436360154763,0.497548149510635,0.));
#421=DIRECTION('center_axis',(0.,0.,-1.));
#422=DIRECTION('ref_axis',(0.867436360154763,0.497548149510635,0.));
#423=DIRECTION('',(0.,0.,-1.));
#424=DIRECTION('',(0.,0.,1.));
#425=DIRECTION('center_axis',(-0.502447849305016,-0.864607517159528,0.));
#426=DIRECTION('ref_axis',(-0.864607517159528,0.502447849305016,0.));
#427=DIRECTION('',(-0.864607517159528,0.502447849305016,0.));
#428=DIRECTION('center_axis',(0.,0.,-1.));
#429=DIRECTION('ref_axis',(0.864607517159528,-0.502447849305016,0.));
#430=DIRECTION('',(0.,0.,1.));
#431=DIRECTION('center_axis',(0.,0.,-1.));
#432=DIRECTION('ref_axis',(0.864607517159528,-0.502447849305016,0.));
#433=DIRECTION('center_axis',(-0.999995998815649,0.00282884299523575,0.));
#434=DIRECTION('ref_axis',(0.00282884299523575,0.999995998815649,0.));
#435=DIRECTION('',(0.00282884299523575,0.999995998815649,0.));
#436=DIRECTION('center_axis',(0.,0.,1.));
#437=DIRECTION('ref_axis',(1.,0.,0.));
#438=DIRECTION('center_axis',(0.,0.,1.));
#439=DIRECTION('ref_axis',(1.,0.,0.));
#440=DIRECTION('center_axis',(0.,0.,1.));
#441=DIRECTION('ref_axis',(1.,0.,0.));
#442=DIRECTION('',(0.,0.,-1.));
#443=DIRECTION('center_axis',(0.,0.,-1.));
#444=DIRECTION('ref_axis',(1.,0.,0.));
#445=DIRECTION('center_axis',(0.,0.,1.));
#446=DIRECTION('ref_axis',(1.,0.,0.));
#447=DIRECTION('center_axis',(0.,0.,1.));
#448=DIRECTION('ref_axis',(1.,0.,0.));
#449=DIRECTION('',(0.,0.,1.));
#450=DIRECTION('center_axis',(0.,0.,-1.));
#451=DIRECTION('ref_axis',(-1.,0.,0.));
#452=CARTESIAN_POINT('',(0.,0.,0.));
#453=CARTESIAN_POINT('Origin',(0.0058652896262143,2.07337988286694,2.5));
#454=CARTESIAN_POINT('',(0.050079905702991,2.14946397692999,0.));
#455=CARTESIAN_POINT('',(-0.0379181606179294,2.14971291063953,0.));
#456=CARTESIAN_POINT('Origin',(0.0058652896262143,2.07337988286694,0.));
#457=CARTESIAN_POINT('',(-0.0379181606179294,2.14971291063953,2.5));
#458=CARTESIAN_POINT('',(-0.0379181606179294,2.14971291063953,2.5));
#459=CARTESIAN_POINT('',(0.050079905702991,2.14946397692999,2.5));
#460=CARTESIAN_POINT('Origin',(0.0058652896262143,2.07337988286694,2.5));
#461=CARTESIAN_POINT('',(0.0500799057029908,2.14946397692999,2.5));
#462=CARTESIAN_POINT('Origin',(0.00615273351463626,2.17499129742404,2.5));
#463=CARTESIAN_POINT('',(-1.83645045568941,1.11810245902292,0.));
#464=CARTESIAN_POINT('',(-0.465515787319516,1.90444949112763,0.));
#465=CARTESIAN_POINT('',(-1.83645045568941,1.11810245902292,2.5));
#466=CARTESIAN_POINT('',(-1.83645045568941,1.11810245902292,2.5));
#467=CARTESIAN_POINT('',(-0.465515787319516,1.90444949112763,2.5));
#468=CARTESIAN_POINT('Origin',(-1.571770267287E-16,6.839013379049E-17,0.));
#469=CARTESIAN_POINT('',(1.84274691114826,1.10769454567967,0.));
#470=CARTESIAN_POINT('',(1.41654374588112,1.35537324324523,0.));
#471=CARTESIAN_POINT('',(1.8865303613924,1.03136151790708,0.));
#472=CARTESIAN_POINT('Origin',(1.79853229507148,1.03161045161661,0.));
#473=CARTESIAN_POINT('',(1.88066507176618,-1.04201836495986,0.));
#474=CARTESIAN_POINT('',(1.88205953320063,-0.549076247882401,0.));
#475=CARTESIAN_POINT('',(1.83645045568941,-1.11810245902292,0.));
#476=CARTESIAN_POINT('Origin',(1.79266700544526,-1.04176943125032,0.));
#477=CARTESIAN_POINT('',(0.0379181606179285,-2.14971291063953,0.));
#478=CARTESIAN_POINT('',(0.465515787319515,-1.90444949112763,0.));
#479=CARTESIAN_POINT('',(-0.0500799057029916,-2.14946397692999,0.));
#480=CARTESIAN_POINT('Origin',(-0.00586528962621513,-2.07337988286694,0.));
#481=CARTESIAN_POINT('',(-1.84274691114826,-1.10769454567967,0.));
#482=CARTESIAN_POINT('',(-1.41654374588112,-1.35537324324523,0.));
#483=CARTESIAN_POINT('',(-1.8865303613924,-1.03136151790708,0.));
#484=CARTESIAN_POINT('Origin',(-1.79853229507148,-1.03161045161661,0.));
#485=CARTESIAN_POINT('',(-1.88066507176618,1.04201836495986,0.));
#486=CARTESIAN_POINT('',(-1.88205953320063,0.549076247882401,0.));
#487=CARTESIAN_POINT('Origin',(-1.79266700544526,1.04176943125032,0.));
#488=CARTESIAN_POINT('',(-1.4,-2.07387220004969E-16,0.));
#489=CARTESIAN_POINT('Origin',(4.440892098501E-16,-3.593666812434E-17,0.));
#490=CARTESIAN_POINT('Origin',(-1.79266700544526,1.04176943125032,2.5));
#491=CARTESIAN_POINT('',(-1.88066507176618,1.04201836495986,2.5));
#492=CARTESIAN_POINT('',(-1.88066507176618,1.04201836495986,2.5));
#493=CARTESIAN_POINT('Origin',(-1.79266700544526,1.04176943125032,2.5));
#494=CARTESIAN_POINT('Origin',(-1.88052134982197,1.09282407223841,2.5));
#495=CARTESIAN_POINT('',(-1.8865303613924,-1.03136151790708,2.5));
#496=CARTESIAN_POINT('',(-1.8865303613924,-1.03136151790708,2.5));
#497=CARTESIAN_POINT('',(-1.88205953320063,0.549076247882401,2.5));
#498=CARTESIAN_POINT('Origin',(-1.79853229507148,-1.03161045161661,2.5));
#499=CARTESIAN_POINT('',(-1.84274691114826,-1.10769454567967,2.5));
#500=CARTESIAN_POINT('',(-1.84274691114826,-1.10769454567967,2.5));
#501=CARTESIAN_POINT('Origin',(-1.79853229507148,-1.03161045161661,2.5));
#502=CARTESIAN_POINT('Origin',(-1.88667408333661,-1.08216722518563,2.5));
#503=CARTESIAN_POINT('',(-0.0500799057029916,-2.14946397692999,2.5));
#504=CARTESIAN_POINT('',(-0.0500799057029915,-2.14946397692999,2.5));
#505=CARTESIAN_POINT('',(-1.41654374588112,-1.35537324324523,2.5));
#506=CARTESIAN_POINT('Origin',(-0.00586528962621513,-2.07337988286694,2.5));
#507=CARTESIAN_POINT('',(0.0379181606179285,-2.14971291063953,2.5));
#508=CARTESIAN_POINT('',(0.0379181606179285,-2.14971291063953,2.5));
#509=CARTESIAN_POINT('Origin',(-0.00586528962621513,-2.07337988286694,2.5));
#510=CARTESIAN_POINT('Origin',(-0.00615273351463705,-2.17499129742404,2.5));
#511=CARTESIAN_POINT('',(1.83645045568941,-1.11810245902292,2.5));
#512=CARTESIAN_POINT('',(1.83645045568941,-1.11810245902292,2.5));
#513=CARTESIAN_POINT('',(0.465515787319515,-1.90444949112763,2.5));
#514=CARTESIAN_POINT('Origin',(1.79853229507148,1.03161045161661,2.5));
#515=CARTESIAN_POINT('',(1.84274691114826,1.10769454567967,2.5));
#516=CARTESIAN_POINT('',(1.8865303613924,1.03136151790708,2.5));
#517=CARTESIAN_POINT('Origin',(1.79853229507148,1.03161045161661,2.5));
#518=CARTESIAN_POINT('',(1.8865303613924,1.03136151790708,2.5));
#519=CARTESIAN_POINT('',(1.84274691114826,1.10769454567967,2.5));
#520=CARTESIAN_POINT('Origin',(1.88667408333661,1.08216722518563,2.5));
#521=CARTESIAN_POINT('',(1.41654374588112,1.35537324324523,2.5));
#522=CARTESIAN_POINT('Origin',(1.79266700544526,-1.04176943125032,2.5));
#523=CARTESIAN_POINT('',(1.88066507176618,-1.04201836495986,2.5));
#524=CARTESIAN_POINT('',(1.88066507176618,-1.04201836495986,2.5));
#525=CARTESIAN_POINT('Origin',(1.79266700544526,-1.04176943125032,2.5));
#526=CARTESIAN_POINT('Origin',(1.88052134982197,-1.09282407223841,2.5));
#527=CARTESIAN_POINT('',(1.88205953320063,-0.549076247882401,2.5));
#528=CARTESIAN_POINT('Origin',(-1.571770267287E-16,6.839013379049E-17,2.5));
#529=CARTESIAN_POINT('',(-0.785,-1.32071441857407E-16,2.5));
#530=CARTESIAN_POINT('Origin',(4.440892098501E-16,-3.593666812434E-17,2.5));
#531=CARTESIAN_POINT('Origin',(4.440892098501E-16,-3.593666812434E-17,0.));
#532=CARTESIAN_POINT('',(-1.4,-2.07387220004969E-16,-1.4));
#533=CARTESIAN_POINT('',(-1.4,-2.07387220004969E-16,0.));
#534=CARTESIAN_POINT('Origin',(4.440892098501E-16,-3.593666812434E-17,-1.4));
#535=CARTESIAN_POINT('Origin',(4.440892098501E-16,-3.593666812434E-17,2.5));
#536=CARTESIAN_POINT('',(-0.785,-1.32071441857407E-16,-1.4));
#537=CARTESIAN_POINT('Origin',(4.440892098501E-16,-3.593666812434E-17,-1.4));
#538=CARTESIAN_POINT('',(-0.785,-1.32071441857407E-16,2.5));
#539=CARTESIAN_POINT('Origin',(3.35755389686E-16,-7.093212970392E-17,-1.4));
#540=UNCERTAINTY_MEASURE_WITH_UNIT(LENGTH_MEASURE(0.01),#544,
'DISTANCE_ACCURACY_VALUE',
'Maximum model space distance between geometric entities at asserted c
onnectivities');
#541=UNCERTAINTY_MEASURE_WITH_UNIT(LENGTH_MEASURE(0.01),#544,
'DISTANCE_ACCURACY_VALUE',
'Maximum model space distance between geometric entities at asserted c
onnectivities');
#542=(
GEOMETRIC_REPRESENTATION_CONTEXT(3)
GLOBAL_UNCERTAINTY_ASSIGNED_CONTEXT((#540))
GLOBAL_UNIT_ASSIGNED_CONTEXT((#544,#546,#547))
REPRESENTATION_CONTEXT('','3D')
);
#543=(
GEOMETRIC_REPRESENTATION_CONTEXT(3)
GLOBAL_UNCERTAINTY_ASSIGNED_CONTEXT((#541))
GLOBAL_UNIT_ASSIGNED_CONTEXT((#544,#546,#547))
REPRESENTATION_CONTEXT('','3D')
);
#544=(
LENGTH_UNIT()
NAMED_UNIT(*)
SI_UNIT(.MILLI.,.METRE.)
);
#545=(
LENGTH_UNIT()
NAMED_UNIT(*)
SI_UNIT($,.METRE.)
);
#546=(
NAMED_UNIT(*)
PLANE_ANGLE_UNIT()
SI_UNIT($,.RADIAN.)
);
#547=(
NAMED_UNIT(*)
SI_UNIT($,.STERADIAN.)
SOLID_ANGLE_UNIT()
);
#548=SHAPE_DEFINITION_REPRESENTATION(#549,#550);
#549=PRODUCT_DEFINITION_SHAPE('',$,#552);
#550=SHAPE_REPRESENTATION('',(#324),#542);
#551=PRODUCT_DEFINITION_CONTEXT('part definition',#556,'design');
#552=PRODUCT_DEFINITION('Mounting_Wuerth_WA_SMSI_M2_H25mm_9774025243',
'(Unsaved)',#553,#551);
#553=PRODUCT_DEFINITION_FORMATION('',$,#558);
#554=PRODUCT_RELATED_PRODUCT_CATEGORY('(Unsaved)','(Unsaved)',(#558));
#555=APPLICATION_PROTOCOL_DEFINITION('international standard',
'ap242_managed_model_based_3d_engineering',2011,#556);
#556=APPLICATION_CONTEXT('Managed model based 3d engineering');
#557=PRODUCT_CONTEXT('part definition',#556,'mechanical');
#558=PRODUCT('Mounting_Wuerth_WA_SMSI_M2_H25mm_9774025243','(Unsaved)',
'model of Mounting_Wuerth_WA-SMSI-M2_H2.5mm_9774025243',(#557));
#559=PRESENTATION_STYLE_ASSIGNMENT((#561));
#560=PRESENTATION_STYLE_ASSIGNMENT((#562));
#561=SURFACE_STYLE_USAGE(.BOTH.,#563);
#562=SURFACE_STYLE_USAGE(.BOTH.,#564);
#563=SURFACE_SIDE_STYLE('',(#565));
#564=SURFACE_SIDE_STYLE('',(#566));
#565=SURFACE_STYLE_FILL_AREA(#567);
#566=SURFACE_STYLE_FILL_AREA(#568);
#567=FILL_AREA_STYLE('Steel - Satin',(#569));
#568=FILL_AREA_STYLE('Nickel - Satin',(#570));
#569=FILL_AREA_STYLE_COLOUR('Steel - Satin',#571);
#570=FILL_AREA_STYLE_COLOUR('Nickel - Satin',#572);
#571=COLOUR_RGB('Steel - Satin',0.627450980392157,0.627450980392157,0.627450980392157);
#572=COLOUR_RGB('Nickel - Satin',0.819607843137255,0.8,0.752941176470588);
ENDSEC;
END-ISO-10303-21;
