ISO-10303-21;
HEADER;
/* Generated by software containing ST-Developer
 * from STEP Tools, Inc. (www.steptools.com) 
 */

FILE_DESCRIPTION(
/* description */ (''),
/* implementation_level */ '2;1');

FILE_NAME(
/* name */ 'Pogo_Pin_pushed.step',
/* time_stamp */ '2026-01-29T18:47:54-08:00',
/* author */ (''),
/* organization */ (''),
/* preprocessor_version */ 'ST-DEVELOPER v20.1',
/* originating_system */ 'Autodesk Translation Framework v14.24.0.0',
/* authorisation */ '');

FILE_SCHEMA (('AUTOMOTIVE_DESIGN { 1 0 10303 214 3 1 1 }'));
ENDSEC;

DATA;
#10=MECHANICAL_DESIGN_GEOMETRIC_PRESENTATION_REPRESENTATION('',(#22,#23),
#327);
#11=ITEM_DEFINED_TRANSFORMATION($,$,#184,#211);
#12=(
REPRESENTATION_RELATIONSHIP($,$,#338,#337)
REPRESENTATION_RELATIONSHIP_WITH_TRANSFORMATION(#11)
SHAPE_REPRESENTATION_RELATIONSHIP()
);
#13=CONTEXT_DEPENDENT_SHAPE_REPRESENTATION(#12,#336);
#14=NEXT_ASSEMBLY_USAGE_OCCURRENCE('Component1:1','Component1:1',
'Component1:1',#340,#341,'Component1:1');
#15=FACE_BOUND('',#65,.T.);
#16=FACE_BOUND('',#67,.T.);
#17=TOROIDAL_SURFACE('',#196,0.4,0.2);
#18=SHAPE_REPRESENTATION_RELATIONSHIP('SRR','None',#338,#20);
#19=SHAPE_REPRESENTATION_RELATIONSHIP('SRR','None',#337,#21);
#20=ADVANCED_BREP_SHAPE_REPRESENTATION('',(#24),#326);
#21=ADVANCED_BREP_SHAPE_REPRESENTATION('',(#25),#325);
#22=STYLED_ITEM('',(#352),#24);
#23=STYLED_ITEM('',(#352),#25);
#24=MANIFOLD_SOLID_BREP('Body1',#169);
#25=MANIFOLD_SOLID_BREP('Body1',#170);
#26=LINE('',#286,#31);
#27=LINE('',#292,#32);
#28=LINE('',#304,#33);
#29=LINE('',#310,#34);
#30=LINE('',#317,#35);
#31=VECTOR('',#228,0.4);
#32=VECTOR('',#233,0.4);
#33=VECTOR('',#250,0.6);
#34=VECTOR('',#257,0.6);
#35=VECTOR('',#266,0.8);
#36=CYLINDRICAL_SURFACE('',#190,0.4);
#37=CYLINDRICAL_SURFACE('',#191,0.4);
#38=CYLINDRICAL_SURFACE('',#200,0.6);
#39=CYLINDRICAL_SURFACE('',#202,0.6);
#40=CYLINDRICAL_SURFACE('',#206,0.8);
#41=SPHERICAL_SURFACE('',#187,0.4);
#42=FACE_OUTER_BOUND('',#54,.T.);
#43=FACE_OUTER_BOUND('',#55,.T.);
#44=FACE_OUTER_BOUND('',#56,.T.);
#45=FACE_OUTER_BOUND('',#57,.T.);
#46=FACE_OUTER_BOUND('',#58,.T.);
#47=FACE_OUTER_BOUND('',#59,.T.);
#48=FACE_OUTER_BOUND('',#60,.T.);
#49=FACE_OUTER_BOUND('',#61,.T.);
#50=FACE_OUTER_BOUND('',#62,.T.);
#51=FACE_OUTER_BOUND('',#63,.T.);
#52=FACE_OUTER_BOUND('',#64,.T.);
#53=FACE_OUTER_BOUND('',#66,.T.);
#54=EDGE_LOOP('',(#114));
#55=EDGE_LOOP('',(#115,#116,#117));
#56=EDGE_LOOP('',(#118,#119,#120,#121));
#57=EDGE_LOOP('',(#122,#123,#124,#125,#126));
#58=EDGE_LOOP('',(#127));
#59=EDGE_LOOP('',(#128,#129,#130,#131,#132,#133));
#60=EDGE_LOOP('',(#134,#135,#136,#137,#138));
#61=EDGE_LOOP('',(#139,#140,#141,#142));
#62=EDGE_LOOP('',(#143));
#63=EDGE_LOOP('',(#144,#145,#146,#147));
#64=EDGE_LOOP('',(#148));
#65=EDGE_LOOP('',(#149));
#66=EDGE_LOOP('',(#150));
#67=EDGE_LOOP('',(#151));
#68=CIRCLE('',#186,0.4);
#69=CIRCLE('',#188,0.4);
#70=CIRCLE('',#189,0.4);
#71=CIRCLE('',#192,0.4);
#72=CIRCLE('',#193,0.4);
#73=CIRCLE('',#194,0.4);
#74=CIRCLE('',#197,0.2);
#75=CIRCLE('',#198,0.6);
#76=CIRCLE('',#199,0.6);
#77=CIRCLE('',#201,0.6);
#78=CIRCLE('',#203,0.6);
#79=CIRCLE('',#204,0.6);
#80=CIRCLE('',#207,0.8);
#81=CIRCLE('',#208,0.8);
#82=VERTEX_POINT('',#278);
#83=VERTEX_POINT('',#281);
#84=VERTEX_POINT('',#283);
#85=VERTEX_POINT('',#288);
#86=VERTEX_POINT('',#289);
#87=VERTEX_POINT('',#291);
#88=VERTEX_POINT('',#297);
#89=VERTEX_POINT('',#299);
#90=VERTEX_POINT('',#303);
#91=VERTEX_POINT('',#307);
#92=VERTEX_POINT('',#309);
#93=VERTEX_POINT('',#314);
#94=VERTEX_POINT('',#316);
#95=EDGE_CURVE('',#82,#82,#68,.T.);
#96=EDGE_CURVE('',#83,#83,#69,.T.);
#97=EDGE_CURVE('',#83,#84,#70,.T.);
#98=EDGE_CURVE('',#83,#82,#26,.T.);
#99=EDGE_CURVE('',#85,#86,#71,.T.);
#100=EDGE_CURVE('',#85,#87,#27,.T.);
#101=EDGE_CURVE('',#87,#87,#72,.T.);
#102=EDGE_CURVE('',#86,#85,#73,.T.);
#103=EDGE_CURVE('',#86,#88,#74,.T.);
#104=EDGE_CURVE('',#88,#89,#75,.T.);
#105=EDGE_CURVE('',#89,#88,#76,.T.);
#106=EDGE_CURVE('',#89,#90,#28,.T.);
#107=EDGE_CURVE('',#90,#90,#77,.T.);
#108=EDGE_CURVE('',#91,#91,#78,.T.);
#109=EDGE_CURVE('',#91,#92,#29,.T.);
#110=EDGE_CURVE('',#92,#92,#79,.T.);
#111=EDGE_CURVE('',#93,#93,#80,.T.);
#112=EDGE_CURVE('',#93,#94,#30,.T.);
#113=EDGE_CURVE('',#94,#94,#81,.T.);
#114=ORIENTED_EDGE('',*,*,#95,.F.);
#115=ORIENTED_EDGE('',*,*,#96,.T.);
#116=ORIENTED_EDGE('',*,*,#97,.T.);
#117=ORIENTED_EDGE('',*,*,#97,.F.);
#118=ORIENTED_EDGE('',*,*,#96,.F.);
#119=ORIENTED_EDGE('',*,*,#98,.T.);
#120=ORIENTED_EDGE('',*,*,#95,.T.);
#121=ORIENTED_EDGE('',*,*,#98,.F.);
#122=ORIENTED_EDGE('',*,*,#99,.F.);
#123=ORIENTED_EDGE('',*,*,#100,.T.);
#124=ORIENTED_EDGE('',*,*,#101,.T.);
#125=ORIENTED_EDGE('',*,*,#100,.F.);
#126=ORIENTED_EDGE('',*,*,#102,.F.);
#127=ORIENTED_EDGE('',*,*,#101,.F.);
#128=ORIENTED_EDGE('',*,*,#99,.T.);
#129=ORIENTED_EDGE('',*,*,#103,.T.);
#130=ORIENTED_EDGE('',*,*,#104,.T.);
#131=ORIENTED_EDGE('',*,*,#105,.T.);
#132=ORIENTED_EDGE('',*,*,#103,.F.);
#133=ORIENTED_EDGE('',*,*,#102,.T.);
#134=ORIENTED_EDGE('',*,*,#105,.F.);
#135=ORIENTED_EDGE('',*,*,#106,.T.);
#136=ORIENTED_EDGE('',*,*,#107,.F.);
#137=ORIENTED_EDGE('',*,*,#106,.F.);
#138=ORIENTED_EDGE('',*,*,#104,.F.);
#139=ORIENTED_EDGE('',*,*,#108,.F.);
#140=ORIENTED_EDGE('',*,*,#109,.T.);
#141=ORIENTED_EDGE('',*,*,#110,.F.);
#142=ORIENTED_EDGE('',*,*,#109,.F.);
#143=ORIENTED_EDGE('',*,*,#108,.T.);
#144=ORIENTED_EDGE('',*,*,#111,.F.);
#145=ORIENTED_EDGE('',*,*,#112,.T.);
#146=ORIENTED_EDGE('',*,*,#113,.F.);
#147=ORIENTED_EDGE('',*,*,#112,.F.);
#148=ORIENTED_EDGE('',*,*,#113,.T.);
#149=ORIENTED_EDGE('',*,*,#110,.T.);
#150=ORIENTED_EDGE('',*,*,#111,.T.);
#151=ORIENTED_EDGE('',*,*,#107,.T.);
#152=PLANE('',#185);
#153=PLANE('',#195);
#154=PLANE('',#205);
#155=PLANE('',#209);
#156=PLANE('',#210);
#157=ADVANCED_FACE('',(#42),#152,.F.);
#158=ADVANCED_FACE('',(#43),#41,.T.);
#159=ADVANCED_FACE('',(#44),#36,.T.);
#160=ADVANCED_FACE('',(#45),#37,.F.);
#161=ADVANCED_FACE('',(#46),#153,.T.);
#162=ADVANCED_FACE('',(#47),#17,.T.);
#163=ADVANCED_FACE('',(#48),#38,.T.);
#164=ADVANCED_FACE('',(#49),#39,.T.);
#165=ADVANCED_FACE('',(#50),#154,.T.);
#166=ADVANCED_FACE('',(#51),#40,.T.);
#167=ADVANCED_FACE('',(#52,#15),#155,.T.);
#168=ADVANCED_FACE('',(#53,#16),#156,.F.);
#169=CLOSED_SHELL('',(#157,#158,#159));
#170=CLOSED_SHELL('',(#160,#161,#162,#163,#164,#165,#166,#167,#168));
#171=DERIVED_UNIT_ELEMENT(#173,1.);
#172=DERIVED_UNIT_ELEMENT(#329,-3.);
#173=(
MASS_UNIT()
NAMED_UNIT(*)
SI_UNIT(.KILO.,.GRAM.)
);
#174=DERIVED_UNIT((#171,#172));
#175=MEASURE_REPRESENTATION_ITEM('density measure',
POSITIVE_RATIO_MEASURE(7850.),#174);
#176=PROPERTY_DEFINITION_REPRESENTATION(#181,#178);
#177=PROPERTY_DEFINITION_REPRESENTATION(#182,#179);
#178=REPRESENTATION('material name',(#180),#326);
#179=REPRESENTATION('density',(#175),#326);
#180=DESCRIPTIVE_REPRESENTATION_ITEM('Steel','Steel');
#181=PROPERTY_DEFINITION('material property','material name',#341);
#182=PROPERTY_DEFINITION('material property','density of part',#341);
#183=AXIS2_PLACEMENT_3D('',#275,#212,#213);
#184=AXIS2_PLACEMENT_3D('',#276,#214,#215);
#185=AXIS2_PLACEMENT_3D('',#277,#216,#217);
#186=AXIS2_PLACEMENT_3D('',#279,#218,#219);
#187=AXIS2_PLACEMENT_3D('',#280,#220,#221);
#188=AXIS2_PLACEMENT_3D('',#282,#222,#223);
#189=AXIS2_PLACEMENT_3D('',#284,#224,#225);
#190=AXIS2_PLACEMENT_3D('',#285,#226,#227);
#191=AXIS2_PLACEMENT_3D('',#287,#229,#230);
#192=AXIS2_PLACEMENT_3D('',#290,#231,#232);
#193=AXIS2_PLACEMENT_3D('',#293,#234,#235);
#194=AXIS2_PLACEMENT_3D('',#294,#236,#237);
#195=AXIS2_PLACEMENT_3D('',#295,#238,#239);
#196=AXIS2_PLACEMENT_3D('',#296,#240,#241);
#197=AXIS2_PLACEMENT_3D('',#298,#242,#243);
#198=AXIS2_PLACEMENT_3D('',#300,#244,#245);
#199=AXIS2_PLACEMENT_3D('',#301,#246,#247);
#200=AXIS2_PLACEMENT_3D('',#302,#248,#249);
#201=AXIS2_PLACEMENT_3D('',#305,#251,#252);
#202=AXIS2_PLACEMENT_3D('',#306,#253,#254);
#203=AXIS2_PLACEMENT_3D('',#308,#255,#256);
#204=AXIS2_PLACEMENT_3D('',#311,#258,#259);
#205=AXIS2_PLACEMENT_3D('',#312,#260,#261);
#206=AXIS2_PLACEMENT_3D('',#313,#262,#263);
#207=AXIS2_PLACEMENT_3D('',#315,#264,#265);
#208=AXIS2_PLACEMENT_3D('',#318,#267,#268);
#209=AXIS2_PLACEMENT_3D('',#319,#269,#270);
#210=AXIS2_PLACEMENT_3D('',#320,#271,#272);
#211=AXIS2_PLACEMENT_3D('',#321,#273,#274);
#212=DIRECTION('axis',(0.,0.,1.));
#213=DIRECTION('refdir',(1.,0.,0.));
#214=DIRECTION('axis',(0.,0.,1.));
#215=DIRECTION('refdir',(1.,0.,0.));
#216=DIRECTION('center_axis',(0.,0.,-1.));
#217=DIRECTION('ref_axis',(1.,0.,0.));
#218=DIRECTION('center_axis',(0.,0.,-1.));
#219=DIRECTION('ref_axis',(1.,0.,0.));
#220=DIRECTION('center_axis',(6.12323399573677E-17,0.,1.));
#221=DIRECTION('ref_axis',(1.,0.,0.));
#222=DIRECTION('center_axis',(0.,0.,-1.));
#223=DIRECTION('ref_axis',(1.,0.,0.));
#224=DIRECTION('center_axis',(1.22464679914735E-16,-1.,0.));
#225=DIRECTION('ref_axis',(-1.,-1.22464679914735E-16,0.));
#226=DIRECTION('center_axis',(0.,0.,-1.));
#227=DIRECTION('ref_axis',(1.,0.,0.));
#228=DIRECTION('',(0.,0.,1.));
#229=DIRECTION('center_axis',(0.,0.,1.));
#230=DIRECTION('ref_axis',(1.,0.,0.));
#231=DIRECTION('center_axis',(0.,0.,1.));
#232=DIRECTION('ref_axis',(1.,0.,0.));
#233=DIRECTION('',(0.,0.,1.));
#234=DIRECTION('center_axis',(0.,0.,1.));
#235=DIRECTION('ref_axis',(1.,0.,0.));
#236=DIRECTION('center_axis',(0.,0.,1.));
#237=DIRECTION('ref_axis',(1.,0.,0.));
#238=DIRECTION('center_axis',(0.,0.,-1.));
#239=DIRECTION('ref_axis',(1.,0.,0.));
#240=DIRECTION('center_axis',(0.,0.,-1.));
#241=DIRECTION('ref_axis',(-1.,0.,0.));
#242=DIRECTION('center_axis',(-1.22464679914735E-16,-1.,0.));
#243=DIRECTION('ref_axis',(1.,-1.22464679914735E-16,0.));
#244=DIRECTION('center_axis',(0.,0.,-1.));
#245=DIRECTION('ref_axis',(1.,0.,0.));
#246=DIRECTION('center_axis',(0.,0.,-1.));
#247=DIRECTION('ref_axis',(1.,0.,0.));
#248=DIRECTION('center_axis',(0.,0.,-1.));
#249=DIRECTION('ref_axis',(1.,0.,0.));
#250=DIRECTION('',(0.,0.,1.));
#251=DIRECTION('center_axis',(0.,0.,1.));
#252=DIRECTION('ref_axis',(1.,0.,0.));
#253=DIRECTION('center_axis',(0.,0.,1.));
#254=DIRECTION('ref_axis',(1.,0.,0.));
#255=DIRECTION('center_axis',(0.,0.,1.));
#256=DIRECTION('ref_axis',(1.,0.,0.));
#257=DIRECTION('',(0.,0.,-1.));
#258=DIRECTION('center_axis',(0.,0.,-1.));
#259=DIRECTION('ref_axis',(1.,0.,0.));
#260=DIRECTION('center_axis',(0.,0.,1.));
#261=DIRECTION('ref_axis',(1.,0.,0.));
#262=DIRECTION('center_axis',(0.,0.,-1.));
#263=DIRECTION('ref_axis',(1.,0.,0.));
#264=DIRECTION('center_axis',(0.,0.,-1.));
#265=DIRECTION('ref_axis',(1.,0.,0.));
#266=DIRECTION('',(0.,0.,1.));
#267=DIRECTION('center_axis',(0.,0.,1.));
#268=DIRECTION('ref_axis',(1.,0.,0.));
#269=DIRECTION('center_axis',(0.,0.,1.));
#270=DIRECTION('ref_axis',(1.,0.,0.));
#271=DIRECTION('center_axis',(0.,0.,1.));
#272=DIRECTION('ref_axis',(1.,0.,0.));
#273=DIRECTION('',(0.,0.,1.));
#274=DIRECTION('',(1.,0.,0.));
#275=CARTESIAN_POINT('',(0.,0.,0.));
#276=CARTESIAN_POINT('',(0.,0.,0.));
#277=CARTESIAN_POINT('Origin',(0.,0.,-0.5));
#278=CARTESIAN_POINT('',(-0.4,-4.89858719658941E-17,-0.5));
#279=CARTESIAN_POINT('Origin',(0.,0.,-0.5));
#280=CARTESIAN_POINT('Origin',(0.,0.,-0.7));
#281=CARTESIAN_POINT('',(-0.4,4.89858719658941E-17,-0.7));
#282=CARTESIAN_POINT('Origin',(0.,0.,-0.7));
#283=CARTESIAN_POINT('',(-2.44929359829471E-17,-2.99951956532372E-33,-1.1));
#284=CARTESIAN_POINT('Origin',(0.,0.,-0.7));
#285=CARTESIAN_POINT('Origin',(0.,0.,-0.1));
#286=CARTESIAN_POINT('',(-0.4,4.89858719658941E-17,-0.1));
#287=CARTESIAN_POINT('Origin',(0.,0.,-0.6));
#288=CARTESIAN_POINT('',(-0.4,-4.89858719658941E-17,-0.6));
#289=CARTESIAN_POINT('',(0.4,-4.89858719658941E-17,-0.6));
#290=CARTESIAN_POINT('Origin',(0.,0.,-0.6));
#291=CARTESIAN_POINT('',(-0.4,-4.89858719658941E-17,-0.1));
#292=CARTESIAN_POINT('',(-0.4,-4.89858719658941E-17,-0.6));
#293=CARTESIAN_POINT('Origin',(0.,0.,-0.1));
#294=CARTESIAN_POINT('Origin',(0.,0.,-0.6));
#295=CARTESIAN_POINT('Origin',(0.,0.,-0.1));
#296=CARTESIAN_POINT('Origin',(0.,0.,-0.4));
#297=CARTESIAN_POINT('',(0.6,-7.34788079488412E-17,-0.4));
#298=CARTESIAN_POINT('Origin',(0.4,-4.89858719658941E-17,-0.4));
#299=CARTESIAN_POINT('',(-0.6,7.34788079488412E-17,-0.4));
#300=CARTESIAN_POINT('Origin',(0.,0.,-0.4));
#301=CARTESIAN_POINT('Origin',(0.,0.,-0.4));
#302=CARTESIAN_POINT('Origin',(0.,0.,-0.2));
#303=CARTESIAN_POINT('',(-0.6,7.34788079488412E-17,-0.2));
#304=CARTESIAN_POINT('',(-0.6,7.34788079488412E-17,-0.2));
#305=CARTESIAN_POINT('Origin',(0.,0.,-0.2));
#306=CARTESIAN_POINT('Origin',(0.,0.,0.));
#307=CARTESIAN_POINT('',(-0.6,-7.34788079488412E-17,0.9));
#308=CARTESIAN_POINT('Origin',(0.,0.,0.9));
#309=CARTESIAN_POINT('',(-0.6,-7.34788079488412E-17,0.));
#310=CARTESIAN_POINT('',(-0.6,-7.34788079488412E-17,0.));
#311=CARTESIAN_POINT('Origin',(0.,0.,0.));
#312=CARTESIAN_POINT('Origin',(0.,0.,0.9));
#313=CARTESIAN_POINT('Origin',(0.,0.,0.));
#314=CARTESIAN_POINT('',(-0.8,-9.79717439317883E-17,-0.2));
#315=CARTESIAN_POINT('Origin',(0.,0.,-0.2));
#316=CARTESIAN_POINT('',(-0.8,-9.79717439317883E-17,0.));
#317=CARTESIAN_POINT('',(-0.8,9.79717439317883E-17,0.));
#318=CARTESIAN_POINT('Origin',(0.,0.,0.));
#319=CARTESIAN_POINT('Origin',(0.,0.,0.));
#320=CARTESIAN_POINT('Origin',(0.,0.,-0.2));
#321=CARTESIAN_POINT('',(0.,0.,0.4));
#322=UNCERTAINTY_MEASURE_WITH_UNIT(LENGTH_MEASURE(0.01),#328,
'DISTANCE_ACCURACY_VALUE',
'Maximum model space distance between geometric entities at asserted c
onnectivities');
#323=UNCERTAINTY_MEASURE_WITH_UNIT(LENGTH_MEASURE(0.01),#328,
'DISTANCE_ACCURACY_VALUE',
'Maximum model space distance between geometric entities at asserted c
onnectivities');
#324=UNCERTAINTY_MEASURE_WITH_UNIT(LENGTH_MEASURE(0.01),#328,
'DISTANCE_ACCURACY_VALUE',
'Maximum model space distance between geometric entities at asserted c
onnectivities');
#325=(
GEOMETRIC_REPRESENTATION_CONTEXT(3)
GLOBAL_UNCERTAINTY_ASSIGNED_CONTEXT((#322))
GLOBAL_UNIT_ASSIGNED_CONTEXT((#328,#330,#331))
REPRESENTATION_CONTEXT('','3D')
);
#326=(
GEOMETRIC_REPRESENTATION_CONTEXT(3)
GLOBAL_UNCERTAINTY_ASSIGNED_CONTEXT((#323))
GLOBAL_UNIT_ASSIGNED_CONTEXT((#328,#330,#331))
REPRESENTATION_CONTEXT('','3D')
);
#327=(
GEOMETRIC_REPRESENTATION_CONTEXT(3)
GLOBAL_UNCERTAINTY_ASSIGNED_CONTEXT((#324))
GLOBAL_UNIT_ASSIGNED_CONTEXT((#328,#330,#331))
REPRESENTATION_CONTEXT('','3D')
);
#328=(
LENGTH_UNIT()
NAMED_UNIT(*)
SI_UNIT(.MILLI.,.METRE.)
);
#329=(
LENGTH_UNIT()
NAMED_UNIT(*)
SI_UNIT($,.METRE.)
);
#330=(
NAMED_UNIT(*)
PLANE_ANGLE_UNIT()
SI_UNIT($,.RADIAN.)
);
#331=(
NAMED_UNIT(*)
SI_UNIT($,.STERADIAN.)
SOLID_ANGLE_UNIT()
);
#332=SHAPE_DEFINITION_REPRESENTATION(#334,#337);
#333=SHAPE_DEFINITION_REPRESENTATION(#335,#338);
#334=PRODUCT_DEFINITION_SHAPE('',$,#340);
#335=PRODUCT_DEFINITION_SHAPE('',$,#341);
#336=PRODUCT_DEFINITION_SHAPE($,$,#14);
#337=SHAPE_REPRESENTATION('',(#183,#211),#325);
#338=SHAPE_REPRESENTATION('',(#184),#326);
#339=PRODUCT_DEFINITION_CONTEXT('part definition',#347,'design');
#340=PRODUCT_DEFINITION('Pogo_Pin','Pogo_Pin v1',#342,#339);
#341=PRODUCT_DEFINITION('Component1','Component1',#343,#339);
#342=PRODUCT_DEFINITION_FORMATION('',$,#349);
#343=PRODUCT_DEFINITION_FORMATION('',$,#350);
#344=PRODUCT_RELATED_PRODUCT_CATEGORY('Pogo_Pin v1','Pogo_Pin v1',(#349));
#345=PRODUCT_RELATED_PRODUCT_CATEGORY('Component1','Component1',(#350));
#346=APPLICATION_PROTOCOL_DEFINITION('international standard',
'automotive_design',2009,#347);
#347=APPLICATION_CONTEXT(
'Core Data for Automotive Mechanical Design Process');
#348=PRODUCT_CONTEXT('part definition',#347,'mechanical');
#349=PRODUCT('Pogo_Pin','Pogo_Pin v1',$,(#348));
#350=PRODUCT('Component1','Component1',$,(#348));
#351=PRESENTATION_STYLE_ASSIGNMENT((#353));
#352=PRESENTATION_STYLE_ASSIGNMENT((#354));
#353=SURFACE_STYLE_USAGE(.BOTH.,#355);
#354=SURFACE_STYLE_USAGE(.BOTH.,#356);
#355=SURFACE_SIDE_STYLE('',(#357));
#356=SURFACE_SIDE_STYLE('',(#358));
#357=SURFACE_STYLE_FILL_AREA(#359);
#358=SURFACE_STYLE_FILL_AREA(#360);
#359=FILL_AREA_STYLE('Steel - Satin',(#361));
#360=FILL_AREA_STYLE('Brass - Polished',(#362));
#361=FILL_AREA_STYLE_COLOUR('Steel - Satin',#363);
#362=FILL_AREA_STYLE_COLOUR('Brass - Polished',#364);
#363=COLOUR_RGB('Steel - Satin',0.627450980392157,0.627450980392157,0.627450980392157);
#364=COLOUR_RGB('Brass - Polished',0.952941176470588,0.796078431372549,
0.486274509803922);
ENDSEC;
END-ISO-10303-21;
